# MagicaVoxel @ Ephtracy

# material
mtllib Target_Egg_7.mtl
usemtl palette

# normals
vn -1 0 0
vn 1 0 0
vn 0 0 1
vn 0 0 -1
vn 0 -1 0
vn 0 1 0

# texcoords
vt 0.595703 0.5
vt 0.599609 0.5
vt 0.603516 0.5

# verts
v -10 9 3
v -10 9 -3
v -10 14 -2
v -10 14 -3
v -10 15 3
v -10 15 -2
v -9 6 -2
v -9 6 -3
v -9 7 3
v -9 7 -2
v -9 9 6
v -9 9 3
v -9 9 -3
v -9 9 -5
v -9 14 -2
v -9 14 -3
v -9 14 -4
v -9 14 -5
v -9 15 6
v -9 15 3
v -9 15 2
v -9 15 -2
v -9 15 -3
v -9 15 -4
v -9 16 3
v -9 16 2
v -8 6 -3
v -8 6 -4
v -8 7 5
v -8 7 3
v -8 9 7
v -8 9 6
v -8 9 5
v -8 9 3
v -8 9 -3
v -8 9 -4
v -8 15 7
v -8 15 6
v -8 15 5
v -8 15 3
v -8 15 2
v -8 15 -0
v -8 16 3
v -8 16 2
v -8 16 -0
v -8 18 5
v -8 18 3
v -7 8 7
v -7 8 5
v -7 9 8
v -7 9 7
v -7 9 5
v -7 15 8
v -7 15 7
v -7 15 5
v -7 15 -0
v -7 15 -3
v -7 16 -0
v -7 16 -3
v -7 18 7
v -7 18 5
v -7 18 4
v -7 19 4
v -7 19 3
v -7 20 5
v -7 20 3
v -6 9 9
v -6 9 8
v -6 15 9
v -6 15 8
v -6 16 3
v -6 16 1
v -6 17 3
v -6 17 1
v -6 18 6
v -6 18 5
v -6 20 6
v -6 20 5
v -5 8 8
v -5 8 7
v -5 9 8
v -5 9 7
v -5 15 8
v -5 15 7
v -5 16 1
v -5 16 -2
v -5 17 1
v -5 17 -2
v -5 18 8
v -5 18 7
v -5 18 6
v -5 20 7
v -5 20 6
v -4 17 4
v -4 17 3
v -4 17 2
v -4 18 4
v -4 18 2
v -3 17 2
v -3 17 -1
v -3 18 2
v -3 18 -1
v -8 6 -2
v -8 6 -3
v -8 7 -2
v -8 7 -3
v -8 9 -4
v -8 9 -5
v -8 14 -4
v -8 14 -5
v -7 6 -3
v -7 6 -4
v -7 7 5
v -7 7 3
v -7 7 -3
v -7 7 -4
v -7 8 5
v -7 8 3
v -7 17 4
v -7 17 3
v -7 18 4
v -7 18 3
v -6 7 3
v -6 7 2
v -6 7 -3
v -6 7 -4
v -6 8 3
v -6 8 2
v -6 15 -3
v -6 15 -4
v -6 19 4
v -6 19 3
v -6 20 4
v -6 20 3
v -5 7 2
v -5 7 -0
v -5 7 -2
v -5 7 -3
v -5 8 2
v -5 8 -0
v -5 14 -2
v -5 16 -2
v -5 16 -3
v -4 7 -0
v -4 7 -1
v -4 8 8
v -4 8 7
v -4 8 -0
v -4 8 -1
v -4 9 9
v -4 9 8
v -4 9 7
v -4 12 8
v -4 12 7
v -4 15 9
v -4 15 8
v -4 15 7
v -4 18 8
v -4 18 7
v -3 7 -1
v -3 7 -2
v -3 8 7
v -3 8 5
v -3 8 -1
v -3 9 8
v -3 9 7
v -3 9 6
v -3 9 5
v -3 11 6
v -3 11 5
v -3 11 -1
v -3 12 8
v -3 12 7
v -3 12 -1
v -3 12 -2
v -3 14 5
v -3 17 -1
v -3 17 -2
v -3 18 7
v -3 18 6
v -3 18 5
v -3 18 4
v -3 20 7
v -3 20 6
v -3 20 4
v -2 8 5
v -2 8 4
v -2 9 6
v -2 9 5
v -2 10 4
v -2 10 3
v -2 11 6
v -2 11 5
v -2 11 3
v -2 14 5
v -2 14 3
v -2 17 -0
v -2 17 -1
v -2 18 5
v -2 18 3
v -2 18 -0
v -2 18 -1
v -1 8 4
v -1 8 1
v -1 8 -0
v -1 8 -1
v -1 10 4
v -1 10 3
v -1 11 3
v -1 11 1
v -1 11 -0
v -1 11 -1
v -1 17 -0
v -1 17 -1
v -1 18 3
v -1 18 1
v 0 8 1
v 0 8 -0
v 0 11 1
v 0 11 -0
v 0 18 1
v 0 18 -0
v -6 9 9
v -6 15 9
v -4 9 9
v -4 15 9
v -7 9 8
v -7 15 8
v -6 9 8
v -6 15 8
v -5 8 8
v -5 9 8
v -5 15 8
v -5 18 8
v -4 8 8
v -4 9 8
v -4 12 8
v -4 15 8
v -4 18 8
v -3 9 8
v -3 12 8
v -8 9 7
v -8 15 7
v -7 8 7
v -7 9 7
v -7 15 7
v -7 18 7
v -5 8 7
v -5 9 7
v -5 15 7
v -5 18 7
v -5 20 7
v -4 8 7
v -4 9 7
v -4 12 7
v -4 15 7
v -4 18 7
v -3 8 7
v -3 9 7
v -3 12 7
v -3 18 7
v -3 20 7
v -9 9 6
v -9 15 6
v -8 9 6
v -8 15 6
v -6 18 6
v -6 20 6
v -5 18 6
v -5 20 6
v -3 9 6
v -3 11 6
v -2 9 6
v -2 11 6
v -8 7 5
v -8 9 5
v -8 15 5
v -8 18 5
v -7 7 5
v -7 8 5
v -7 9 5
v -7 15 5
v -7 18 5
v -7 20 5
v -6 18 5
v -6 20 5
v -3 8 5
v -3 9 5
v -3 11 5
v -3 14 5
v -3 18 5
v -2 8 5
v -2 9 5
v -2 11 5
v -2 14 5
v -2 18 5
v -2 8 4
v -2 10 4
v -1 8 4
v -1 10 4
v -10 9 3
v -10 15 3
v -9 7 3
v -9 9 3
v -9 15 3
v -9 16 3
v -8 7 3
v -8 9 3
v -8 15 3
v -8 16 3
v -7 7 3
v -7 8 3
v -6 7 3
v -6 8 3
v -2 10 3
v -2 11 3
v -2 14 3
v -2 18 3
v -1 10 3
v -1 11 3
v -1 18 3
v -6 7 2
v -6 8 2
v -5 7 2
v -5 8 2
v -1 8 1
v -1 11 1
v -1 18 1
v 0 8 1
v 0 11 1
v 0 18 1
v -5 7 -0
v -5 8 -0
v -4 7 -0
v -4 8 -0
v -4 7 -1
v -4 8 -1
v -3 7 -1
v -3 8 -1
v -9 6 -2
v -9 7 -2
v -8 6 -2
v -8 7 -2
v -8 6 -3
v -8 7 -3
v -7 6 -3
v -7 7 -3
v -7 17 4
v -7 18 4
v -7 19 4
v -6 18 4
v -6 19 4
v -6 20 4
v -4 17 4
v -4 18 4
v -3 18 4
v -3 20 4
v -8 16 3
v -8 18 3
v -7 16 3
v -7 17 3
v -7 18 3
v -7 19 3
v -7 20 3
v -6 16 3
v -6 17 3
v -6 19 3
v -6 20 3
v -9 15 2
v -9 16 2
v -8 15 2
v -8 16 2
v -4 17 2
v -4 18 2
v -3 17 2
v -3 18 2
v -6 16 1
v -6 17 1
v -5 16 1
v -5 17 1
v -8 15 -0
v -8 16 -0
v -7 15 -0
v -7 16 -0
v -2 17 -0
v -2 18 -0
v -1 8 -0
v -1 11 -0
v -1 17 -0
v 0 8 -0
v 0 11 -0
v 0 18 -0
v -3 8 -1
v -3 11 -1
v -3 12 -1
v -3 17 -1
v -3 18 -1
v -2 17 -1
v -2 18 -1
v -1 8 -1
v -1 11 -1
v -1 17 -1
v -10 14 -2
v -10 15 -2
v -9 14 -2
v -9 15 -2
v -5 7 -2
v -5 14 -2
v -5 16 -2
v -5 17 -2
v -4 12 -2
v -4 14 -2
v -3 7 -2
v -3 12 -2
v -3 17 -2
v -10 9 -3
v -10 14 -3
v -9 6 -3
v -9 9 -3
v -9 14 -3
v -8 6 -3
v -8 9 -3
v -7 15 -3
v -7 16 -3
v -6 7 -3
v -6 15 -3
v -5 7 -3
v -5 16 -3
v -9 14 -4
v -9 15 -4
v -8 6 -4
v -8 9 -4
v -8 14 -4
v -8 15 -4
v -7 6 -4
v -7 7 -4
v -7 9 -4
v -6 7 -4
v -6 15 -4
v -9 9 -5
v -9 14 -5
v -8 9 -5
v -8 14 -5
v -9 6 -2
v -8 6 -2
v -9 6 -3
v -8 6 -3
v -7 6 -3
v -8 6 -4
v -7 6 -4
v -8 7 5
v -7 7 5
v -9 7 3
v -8 7 3
v -7 7 3
v -6 7 3
v -6 7 2
v -5 7 2
v -5 7 -0
v -4 7 -0
v -4 7 -1
v -3 7 -1
v -9 7 -2
v -8 7 -2
v -5 7 -2
v -3 7 -2
v -8 7 -3
v -7 7 -3
v -6 7 -3
v -5 7 -3
v -7 7 -4
v -6 7 -4
v -5 8 8
v -4 8 8
v -7 8 7
v -5 8 7
v -4 8 7
v -3 8 7
v -6 8 6
v -5 8 6
v -7 8 5
v -6 8 5
v -3 8 5
v -2 8 5
v -2 8 4
v -1 8 4
v -7 8 3
v -6 8 3
v -6 8 2
v -5 8 2
v -1 8 1
v 0 8 1
v -5 8 -0
v -4 8 -0
v -1 8 -0
v 0 8 -0
v -4 8 -1
v -3 8 -1
v -1 8 -1
v -6 9 9
v -4 9 9
v -7 9 8
v -6 9 8
v -5 9 8
v -4 9 8
v -3 9 8
v -8 9 7
v -7 9 7
v -5 9 7
v -4 9 7
v -3 9 7
v -9 9 6
v -8 9 6
v -3 9 6
v -2 9 6
v -8 9 5
v -7 9 5
v -3 9 5
v -2 9 5
v -10 9 3
v -9 9 3
v -8 9 3
v -10 9 -3
v -9 9 -3
v -8 9 -3
v -8 9 -4
v -9 9 -5
v -8 9 -5
v -7 19 4
v -6 19 4
v -7 19 3
v -6 19 3
v -2 10 4
v -1 10 4
v -2 10 3
v -1 10 3
v -3 11 6
v -2 11 6
v -3 11 5
v -2 11 5
v -4 12 8
v -3 12 8
v -4 12 7
v -3 12 7
v -10 14 -2
v -9 14 -2
v -10 14 -3
v -9 14 -3
v -9 14 -4
v -8 14 -4
v -9 14 -5
v -8 14 -5
v -6 15 9
v -4 15 9
v -7 15 8
v -6 15 8
v -5 15 8
v -4 15 8
v -8 15 7
v -7 15 7
v -5 15 7
v -9 15 6
v -8 15 6
v -8 15 5
v -7 15 5
v -10 15 3
v -9 15 3
v -8 15 3
v -9 15 2
v -8 15 2
v -8 15 -0
v -7 15 -0
v -10 15 -2
v -9 15 -2
v -9 15 -3
v -8 15 -3
v -7 15 -3
v -6 15 -3
v -9 15 -4
v -8 15 -4
v -6 15 -4
v -9 16 3
v -8 16 3
v -7 16 3
v -6 16 3
v -9 16 2
v -8 16 2
v -6 16 1
v -5 16 1
v -8 16 -0
v -7 16 -0
v -5 16 -2
v -7 16 -3
v -5 16 -3
v -7 17 4
v -4 17 4
v -7 17 3
v -6 17 3
v -5 17 3
v -4 17 3
v -4 17 2
v -3 17 2
v -6 17 1
v -5 17 1
v -2 17 -0
v -1 17 -0
v -3 17 -1
v -2 17 -1
v -1 17 -1
v -5 17 -2
v -3 17 -2
v -5 18 8
v -4 18 8
v -7 18 7
v -5 18 7
v -4 18 7
v -6 18 6
v -5 18 6
v -8 18 5
v -7 18 5
v -6 18 5
v -3 18 5
v -2 18 5
v -7 18 4
v -4 18 4
v -3 18 4
v -8 18 3
v -7 18 3
v -2 18 3
v -1 18 3
v -4 18 2
v -3 18 2
v -1 18 1
v 0 18 1
v -2 18 -0
v 0 18 -0
v -3 18 -1
v -2 18 -1
v -5 20 7
v -3 20 7
v -6 20 6
v -5 20 6
v -3 20 6
v -7 20 5
v -6 20 5
v -5 20 5
v -6 20 4
v -3 20 4
v -7 20 3
v -6 20 3

# faces
f 3/1/1 2/1/1 1/1/1
f 4/1/1 2/1/1 3/1/1
f 5/1/1 3/1/1 1/1/1
f 6/1/1 3/1/1 5/1/1
f 10/1/1 8/1/1 7/1/1
f 12/1/1 10/1/1 9/1/1
f 13/1/1 8/1/1 10/1/1
f 13/1/1 10/1/1 12/1/1
f 16/1/1 14/1/1 13/1/1
f 17/1/1 14/1/1 16/1/1
f 18/1/1 14/1/1 17/1/1
f 19/1/1 12/1/1 11/1/1
f 20/1/1 12/1/1 19/1/1
f 22/2/1 16/2/1 15/2/1
f 23/1/1 17/1/1 16/1/1
f 23/2/1 16/2/1 22/2/1
f 24/1/1 17/1/1 23/1/1
f 25/1/1 21/1/1 20/1/1
f 26/1/1 21/1/1 25/1/1
f 33/1/1 30/1/1 29/1/1
f 34/1/1 30/1/1 33/1/1
f 35/1/1 28/1/1 27/1/1
f 36/1/1 28/1/1 35/1/1
f 37/1/1 32/1/1 31/1/1
f 38/1/1 32/1/1 37/1/1
f 43/1/1 40/1/1 39/1/1
f 44/2/1 42/2/1 41/2/1
f 45/2/1 42/2/1 44/2/1
f 46/1/1 43/1/1 39/1/1
f 47/1/1 43/1/1 46/1/1
f 51/1/1 49/1/1 48/1/1
f 52/1/1 49/1/1 51/1/1
f 53/1/1 51/1/1 50/1/1
f 54/1/1 51/1/1 53/1/1
f 58/2/1 57/2/1 56/2/1
f 59/2/1 57/2/1 58/2/1
f 60/1/1 55/1/1 54/1/1
f 61/1/1 55/1/1 60/1/1
f 63/1/1 62/1/1 61/1/1
f 65/1/1 63/1/1 61/1/1
f 65/1/1 64/1/1 63/1/1
f 66/1/1 64/1/1 65/1/1
f 69/1/1 68/1/1 67/1/1
f 70/1/1 68/1/1 69/1/1
f 73/2/1 72/2/1 71/2/1
f 74/2/1 72/2/1 73/2/1
f 77/1/1 76/1/1 75/1/1
f 78/1/1 76/1/1 77/1/1
f 81/1/1 80/1/1 79/1/1
f 82/1/1 80/1/1 81/1/1
f 87/3/1 86/3/1 85/3/1
f 88/3/1 86/3/1 87/3/1
f 89/1/1 84/1/1 83/1/1
f 90/1/1 84/1/1 89/1/1
f 92/1/1 91/1/1 90/1/1
f 93/1/1 91/1/1 92/1/1
f 97/3/1 95/3/1 94/3/1
f 97/3/1 96/3/1 95/3/1
f 98/3/1 96/3/1 97/3/1
f 101/3/1 100/3/1 99/3/1
f 102/3/1 100/3/1 101/3/1
f 103/1/2 104/1/2 105/1/2
f 105/1/2 104/1/2 106/1/2
f 107/1/2 108/1/2 109/1/2
f 109/1/2 108/1/2 110/1/2
f 111/1/2 112/1/2 115/1/2
f 115/1/2 112/1/2 116/1/2
f 113/1/2 114/1/2 117/1/2
f 117/1/2 114/1/2 118/1/2
f 119/1/2 120/1/2 121/1/2
f 121/1/2 120/1/2 122/1/2
f 123/2/2 124/2/2 127/2/2
f 127/2/2 124/2/2 128/2/2
f 125/2/2 126/2/2 129/2/2
f 129/2/2 126/2/2 130/2/2
f 131/1/2 132/1/2 133/1/2
f 133/1/2 132/1/2 134/1/2
f 135/2/2 136/2/2 139/2/2
f 139/2/2 136/2/2 140/2/2
f 137/2/2 138/2/2 141/2/2
f 141/2/2 138/2/2 142/2/2
f 142/2/2 138/2/2 143/2/2
f 144/2/2 145/2/2 148/2/2
f 148/2/2 145/2/2 149/2/2
f 146/1/2 147/1/2 151/1/2
f 151/1/2 147/1/2 152/1/2
f 150/1/2 151/1/2 153/1/2
f 150/1/2 153/1/2 155/1/2
f 153/2/2 154/2/2 156/2/2
f 155/1/2 153/1/2 156/1/2
f 156/2/2 154/2/2 157/2/2
f 156/1/2 157/1/2 158/1/2
f 158/1/2 157/1/2 159/1/2
f 160/2/2 161/2/2 164/2/2
f 162/2/2 163/2/2 166/2/2
f 166/2/2 163/2/2 167/2/2
f 167/2/2 163/2/2 168/2/2
f 165/2/2 166/2/2 169/2/2
f 166/2/2 167/2/2 169/2/2
f 164/2/2 161/2/2 171/2/2
f 169/2/2 170/2/2 172/2/2
f 165/2/2 169/2/2 172/2/2
f 172/2/2 170/2/2 173/2/2
f 171/2/2 161/2/2 174/2/2
f 174/2/2 161/2/2 175/2/2
f 173/2/2 170/2/2 176/2/2
f 174/3/2 175/3/2 177/3/2
f 177/3/2 175/3/2 178/3/2
f 173/2/2 176/2/2 179/2/2
f 179/2/2 176/2/2 180/2/2
f 180/2/2 176/2/2 181/2/2
f 179/1/2 180/1/2 183/1/2
f 181/2/2 182/2/2 184/2/2
f 183/1/2 180/1/2 184/1/2
f 180/2/2 181/2/2 184/2/2
f 184/2/2 182/2/2 185/2/2
f 186/2/2 187/2/2 189/2/2
f 189/2/2 187/2/2 190/2/2
f 188/2/2 189/2/2 190/2/2
f 188/2/2 190/2/2 192/2/2
f 190/2/2 191/2/2 192/2/2
f 192/2/2 191/2/2 193/2/2
f 193/2/2 191/2/2 194/2/2
f 193/2/2 194/2/2 195/2/2
f 195/2/2 194/2/2 196/2/2
f 195/3/2 196/3/2 199/3/2
f 199/3/2 196/3/2 200/3/2
f 197/3/2 198/3/2 201/3/2
f 201/3/2 198/3/2 202/3/2
f 203/2/2 204/2/2 207/2/2
f 207/2/2 204/2/2 208/2/2
f 208/2/2 204/2/2 209/2/2
f 209/2/2 204/2/2 210/2/2
f 205/2/2 206/2/2 211/2/2
f 211/2/2 206/2/2 212/2/2
f 211/3/2 212/3/2 213/3/2
f 213/3/2 212/3/2 214/3/2
f 209/3/2 210/3/2 215/3/2
f 215/3/2 210/3/2 216/3/2
f 217/2/2 218/2/2 219/2/2
f 219/2/2 218/2/2 220/2/2
f 219/3/2 220/3/2 221/3/2
f 221/3/2 220/3/2 222/3/2
f 225/1/3 224/1/3 223/1/3
f 226/1/3 224/1/3 225/1/3
f 229/1/3 228/1/3 227/1/3
f 230/1/3 228/1/3 229/1/3
f 235/1/3 232/1/3 231/1/3
f 236/1/3 232/1/3 235/1/3
f 238/1/3 234/1/3 233/1/3
f 239/1/3 234/1/3 238/1/3
f 240/2/3 237/2/3 236/2/3
f 241/2/3 237/2/3 240/2/3
f 245/1/3 243/1/3 242/1/3
f 246/1/3 243/1/3 245/1/3
f 248/1/3 245/1/3 244/1/3
f 249/1/3 245/1/3 248/1/3
f 250/1/3 247/1/3 246/1/3
f 251/1/3 247/1/3 250/1/3
f 257/1/3 252/1/3 251/1/3
f 258/2/3 254/2/3 253/2/3
f 259/2/3 254/2/3 258/2/3
f 260/2/3 256/2/3 255/2/3
f 260/2/3 257/2/3 256/2/3
f 261/1/3 252/1/3 257/1/3
f 261/2/3 257/2/3 260/2/3
f 262/1/3 252/1/3 261/1/3
f 265/1/3 264/1/3 263/1/3
f 266/1/3 264/1/3 265/1/3
f 269/1/3 268/1/3 267/1/3
f 270/1/3 268/1/3 269/1/3
f 273/2/3 272/2/3 271/2/3
f 274/2/3 272/2/3 273/2/3
f 279/1/3 276/1/3 275/1/3
f 280/1/3 276/1/3 279/1/3
f 281/1/3 276/1/3 280/1/3
f 282/1/3 278/1/3 277/1/3
f 283/1/3 278/1/3 282/1/3
f 285/1/3 284/1/3 283/1/3
f 286/1/3 284/1/3 285/1/3
f 292/2/3 288/2/3 287/2/3
f 293/2/3 288/2/3 292/2/3
f 294/2/3 290/2/3 289/2/3
f 295/3/3 291/3/3 290/3/3
f 295/2/3 290/2/3 294/2/3
f 296/3/3 291/3/3 295/3/3
f 299/2/3 298/2/3 297/2/3
f 300/2/3 298/2/3 299/2/3
f 304/1/3 302/1/3 301/1/3
f 305/1/3 302/1/3 304/1/3
f 307/1/3 304/1/3 303/1/3
f 308/1/3 304/1/3 307/1/3
f 309/1/3 306/1/3 305/1/3
f 310/1/3 306/1/3 309/1/3
f 313/2/3 312/2/3 311/2/3
f 314/2/3 312/2/3 313/2/3
f 319/2/3 316/2/3 315/2/3
f 320/3/3 317/3/3 316/3/3
f 320/2/3 316/2/3 319/2/3
f 320/3/3 318/3/3 317/3/3
f 321/3/3 318/3/3 320/3/3
f 324/2/3 323/2/3 322/2/3
f 325/2/3 323/2/3 324/2/3
f 329/2/3 327/2/3 326/2/3
f 330/3/3 328/3/3 327/3/3
f 330/2/3 327/2/3 329/2/3
f 331/3/3 328/3/3 330/3/3
f 334/2/3 333/2/3 332/2/3
f 335/2/3 333/2/3 334/2/3
f 338/2/3 337/2/3 336/2/3
f 339/2/3 337/2/3 338/2/3
f 342/1/3 341/1/3 340/1/3
f 343/1/3 341/1/3 342/1/3
f 346/1/3 345/1/3 344/1/3
f 347/1/3 345/1/3 346/1/3
f 348/2/4 349/2/4 351/2/4
f 349/1/4 350/1/4 351/1/4
f 351/1/4 350/1/4 352/1/4
f 348/2/4 351/2/4 354/2/4
f 352/2/4 353/2/4 354/2/4
f 351/2/4 352/2/4 354/2/4
f 354/2/4 353/2/4 355/2/4
f 355/2/4 353/2/4 356/2/4
f 356/2/4 353/2/4 357/2/4
f 358/1/4 359/1/4 360/1/4
f 360/1/4 359/1/4 361/1/4
f 361/1/4 359/1/4 362/1/4
f 360/2/4 361/2/4 365/2/4
f 365/2/4 361/2/4 366/2/4
f 363/1/4 364/1/4 367/1/4
f 367/1/4 364/1/4 368/1/4
f 369/1/4 370/1/4 371/1/4
f 371/1/4 370/1/4 372/1/4
f 373/3/4 374/3/4 375/3/4
f 375/3/4 374/3/4 376/3/4
f 377/2/4 378/2/4 379/2/4
f 379/2/4 378/2/4 380/2/4
f 381/2/4 382/2/4 383/2/4
f 383/2/4 382/2/4 384/2/4
f 385/3/4 386/3/4 389/3/4
f 387/2/4 388/2/4 390/2/4
f 388/3/4 389/3/4 391/3/4
f 390/2/4 388/2/4 391/2/4
f 389/3/4 386/3/4 392/3/4
f 391/3/4 389/3/4 392/3/4
f 394/3/4 395/3/4 398/3/4
f 396/3/4 397/3/4 398/3/4
f 395/3/4 396/3/4 398/3/4
f 398/3/4 397/3/4 399/3/4
f 393/2/4 394/2/4 400/2/4
f 394/3/4 398/3/4 401/3/4
f 400/2/4 394/2/4 401/2/4
f 401/3/4 398/3/4 402/3/4
f 403/1/4 404/1/4 405/1/4
f 405/1/4 404/1/4 406/1/4
f 407/2/4 408/2/4 411/2/4
f 409/3/4 410/3/4 412/3/4
f 411/2/4 408/2/4 412/2/4
f 408/3/4 409/3/4 412/3/4
f 407/2/4 411/2/4 413/2/4
f 411/3/4 412/3/4 414/3/4
f 413/2/4 411/2/4 414/2/4
f 412/3/4 410/3/4 415/3/4
f 414/3/4 412/3/4 415/3/4
f 416/1/4 417/1/4 419/1/4
f 419/1/4 417/1/4 420/1/4
f 418/1/4 419/1/4 421/1/4
f 421/1/4 419/1/4 422/1/4
f 423/2/4 424/2/4 426/2/4
f 425/2/4 426/2/4 427/2/4
f 426/2/4 424/2/4 428/2/4
f 427/2/4 426/2/4 428/2/4
f 429/1/4 430/1/4 433/1/4
f 433/1/4 430/1/4 434/1/4
f 431/1/4 432/1/4 435/1/4
f 435/1/4 432/1/4 436/1/4
f 432/2/4 433/2/4 437/2/4
f 436/1/4 432/1/4 437/1/4
f 433/2/4 434/2/4 437/2/4
f 436/2/4 437/2/4 438/2/4
f 437/2/4 434/2/4 439/2/4
f 438/2/4 437/2/4 439/2/4
f 440/1/4 441/1/4 442/1/4
f 442/1/4 441/1/4 443/1/4
f 446/1/5 445/1/5 444/1/5
f 447/1/5 445/1/5 446/1/5
f 449/1/5 448/1/5 447/1/5
f 450/1/5 448/1/5 449/1/5
f 454/1/5 452/1/5 451/1/5
f 455/1/5 452/1/5 454/1/5
f 457/2/5 455/2/5 454/2/5
f 457/2/5 456/2/5 455/2/5
f 459/2/5 458/2/5 457/2/5
f 461/2/5 460/2/5 459/2/5
f 463/1/5 454/1/5 453/1/5
f 464/2/5 462/2/5 461/2/5
f 464/1/5 454/1/5 463/1/5
f 464/2/5 457/2/5 454/2/5
f 464/2/5 461/2/5 459/2/5
f 464/2/5 459/2/5 457/2/5
f 465/2/5 462/2/5 464/2/5
f 466/2/5 462/2/5 465/2/5
f 467/2/5 465/2/5 464/2/5
f 468/2/5 465/2/5 467/2/5
f 469/2/5 465/2/5 468/2/5
f 470/2/5 465/2/5 469/2/5
f 471/2/5 469/2/5 468/2/5
f 472/2/5 469/2/5 471/2/5
f 476/1/5 474/1/5 473/1/5
f 477/1/5 474/1/5 476/1/5
f 479/1/5 476/1/5 475/1/5
f 480/2/5 478/2/5 477/2/5
f 480/1/5 476/1/5 479/1/5
f 480/2/5 477/2/5 476/2/5
f 481/1/5 479/1/5 475/1/5
f 482/2/5 480/2/5 479/2/5
f 482/1/5 479/1/5 481/1/5
f 483/2/5 478/2/5 480/2/5
f 483/2/5 480/2/5 482/2/5
f 485/2/5 482/2/5 481/2/5
f 485/2/5 484/2/5 483/2/5
f 485/2/5 483/2/5 482/2/5
f 487/2/5 485/2/5 481/2/5
f 487/2/5 486/2/5 485/2/5
f 488/2/5 486/2/5 487/2/5
f 489/2/5 486/2/5 488/2/5
f 490/2/5 486/2/5 489/2/5
f 491/2/5 486/2/5 490/2/5
f 493/2/5 491/2/5 490/2/5
f 493/2/5 492/2/5 491/2/5
f 494/2/5 492/2/5 493/2/5
f 495/2/5 492/2/5 494/2/5
f 496/2/5 492/2/5 495/2/5
f 497/2/5 495/2/5 494/2/5
f 498/2/5 495/2/5 497/2/5
f 499/2/5 495/2/5 498/2/5
f 503/1/5 501/1/5 500/1/5
f 504/1/5 501/1/5 503/1/5
f 505/1/5 501/1/5 504/1/5
f 508/1/5 503/1/5 502/1/5
f 508/1/5 504/1/5 503/1/5
f 509/1/5 504/1/5 508/1/5
f 510/2/5 506/2/5 505/2/5
f 511/2/5 506/2/5 510/2/5
f 513/1/5 508/1/5 507/1/5
f 516/1/5 513/1/5 512/1/5
f 516/1/5 508/1/5 513/1/5
f 517/1/5 508/1/5 516/1/5
f 518/2/5 515/2/5 514/2/5
f 519/2/5 515/2/5 518/2/5
f 521/1/5 516/1/5 512/1/5
f 522/1/5 516/1/5 521/1/5
f 523/1/5 521/1/5 520/1/5
f 524/1/5 521/1/5 523/1/5
f 526/1/5 525/1/5 524/1/5
f 527/1/5 526/1/5 524/1/5
f 528/1/5 526/1/5 527/1/5
f 531/1/5 530/1/5 529/1/5
f 532/1/5 530/1/5 531/1/5
f 533/2/6 534/2/6 535/2/6
f 535/2/6 534/2/6 536/2/6
f 537/2/6 538/2/6 539/2/6
f 539/2/6 538/2/6 540/2/6
f 541/2/6 542/2/6 543/2/6
f 543/2/6 542/2/6 544/2/6
f 545/1/6 546/1/6 547/1/6
f 547/1/6 546/1/6 548/1/6
f 549/1/6 550/1/6 551/1/6
f 551/1/6 550/1/6 552/1/6
f 553/1/6 554/1/6 556/1/6
f 556/1/6 554/1/6 557/1/6
f 557/1/6 554/1/6 558/1/6
f 555/1/6 556/1/6 560/1/6
f 556/1/6 557/1/6 560/1/6
f 560/1/6 557/1/6 561/1/6
f 559/1/6 560/1/6 563/1/6
f 563/1/6 560/1/6 564/1/6
f 562/1/6 563/1/6 564/1/6
f 564/1/6 560/1/6 565/1/6
f 562/1/6 564/1/6 567/1/6
f 567/1/6 564/1/6 568/1/6
f 566/1/6 567/1/6 569/1/6
f 569/2/6 570/2/6 571/2/6
f 566/1/6 569/1/6 573/1/6
f 569/2/6 571/2/6 574/2/6
f 573/1/6 569/1/6 574/1/6
f 571/2/6 572/2/6 574/2/6
f 574/2/6 572/2/6 575/2/6
f 575/2/6 572/2/6 576/2/6
f 576/2/6 572/2/6 577/2/6
f 575/1/6 576/1/6 579/1/6
f 576/2/6 577/2/6 580/2/6
f 579/1/6 576/1/6 580/1/6
f 577/2/6 578/2/6 580/2/6
f 580/2/6 578/2/6 581/2/6
f 582/1/6 583/1/6 586/1/6
f 584/2/6 585/2/6 587/2/6
f 586/1/6 583/1/6 587/1/6
f 583/2/6 584/2/6 587/2/6
f 587/2/6 585/2/6 588/2/6
f 587/2/6 588/2/6 590/2/6
f 588/2/6 589/2/6 590/2/6
f 590/2/6 589/2/6 591/2/6
f 591/2/6 589/2/6 592/2/6
f 591/2/6 592/2/6 593/2/6
f 593/2/6 592/2/6 594/2/6
f 595/2/6 596/2/6 597/2/6
f 597/2/6 596/2/6 598/2/6
f 598/2/6 596/2/6 599/2/6
f 599/2/6 596/2/6 600/2/6
f 599/3/6 600/3/6 601/3/6
f 598/2/6 599/2/6 603/2/6
f 599/3/6 601/3/6 604/3/6
f 603/2/6 599/2/6 604/2/6
f 601/3/6 602/3/6 604/3/6
f 604/3/6 602/3/6 607/3/6
f 605/3/6 606/3/6 608/3/6
f 608/3/6 606/3/6 609/3/6
f 604/3/6 607/3/6 610/3/6
f 610/3/6 607/3/6 611/3/6
f 612/1/6 613/1/6 615/1/6
f 615/1/6 613/1/6 616/1/6
f 614/1/6 615/1/6 617/1/6
f 617/1/6 615/1/6 618/1/6
f 614/1/6 617/1/6 620/1/6
f 620/1/6 617/1/6 621/1/6
f 619/1/6 620/1/6 624/1/6
f 622/3/6 623/3/6 626/3/6
f 619/1/6 624/1/6 627/1/6
f 627/1/6 624/1/6 628/1/6
f 625/3/6 626/3/6 629/3/6
f 626/3/6 623/3/6 629/3/6
f 629/3/6 630/3/6 631/3/6
f 625/3/6 629/3/6 631/3/6
f 631/3/6 630/3/6 632/3/6
f 632/3/6 630/3/6 633/3/6
f 632/3/6 633/3/6 635/3/6
f 633/3/6 634/3/6 635/3/6
f 635/3/6 634/3/6 636/3/6
f 632/3/6 635/3/6 637/3/6
f 637/3/6 635/3/6 638/3/6
f 639/1/6 640/1/6 642/1/6
f 642/1/6 640/1/6 643/1/6
f 641/1/6 642/1/6 645/1/6
f 642/2/6 643/2/6 646/2/6
f 645/1/6 642/1/6 646/1/6
f 644/1/6 645/1/6 647/1/6
f 645/2/6 646/2/6 647/2/6
f 646/2/6 643/2/6 648/2/6
f 647/2/6 646/2/6 648/2/6
f 644/1/6 647/1/6 649/1/6
f 649/1/6 647/1/6 650/1/6
