# MagicaVoxel @ Ephtracy

# material
mtllib Target_Egg_9.mtl
usemtl palette

# normals
vn -1 0 0
vn 1 0 0
vn 0 0 1
vn 0 0 -1
vn 0 -1 0
vn 0 1 0

# texcoords
vt 0.595703 0.5
vt 0.599609 0.5

# verts
v 2 0 5
v 2 0 -4
v 2 1 6
v 2 1 5
v 2 1 -3
v 2 1 -4
v 2 2 7
v 2 2 6
v 2 2 5
v 2 2 -2
v 2 2 -3
v 2 4 8
v 2 4 7
v 2 5 7
v 2 5 6
v 2 6 9
v 2 6 8
v 2 6 7
v 2 7 6
v 2 7 2
v 2 8 9
v 2 8 8
v 2 8 6
v 2 8 2
v 2 8 1
v 2 9 1
v 2 9 -0
v 2 10 -0
v 2 10 -2
v 3 2 -2
v 3 2 -3
v 3 7 6
v 3 7 5
v 3 7 3
v 3 7 2
v 3 8 6
v 3 8 5
v 3 8 3
v 3 8 2
v 3 8 1
v 3 9 2
v 3 9 1
v 3 10 -1
v 3 10 -2
v 3 11 -1
v 3 11 -2
v 3 12 -2
v 3 12 -3
v 4 1 -3
v 4 1 -4
v 4 2 -3
v 4 2 -4
v 4 9 1
v 4 9 -0
v 4 10 1
v 4 10 -0
v 4 12 -3
v 4 13 -3
v 4 13 -4
v 5 2 -4
v 5 2 -5
v 5 5 -4
v 5 5 -5
v 5 6 -5
v 5 6 -6
v 5 7 5
v 5 7 3
v 5 8 5
v 5 8 3
v 5 8 2
v 5 9 3
v 5 9 2
v 5 10 -0
v 5 10 -1
v 5 11 -0
v 5 11 -1
v 5 11 -2
v 5 12 -1
v 5 12 -2
v 5 12 -5
v 5 12 -6
v 5 13 -4
v 5 13 -5
v 6 6 -6
v 6 6 -7
v 6 9 2
v 6 9 1
v 6 9 -6
v 6 9 -7
v 6 10 2
v 6 10 1
v 6 10 -0
v 6 11 1
v 6 11 -0
v 6 11 -6
v 6 11 -7
v 6 12 -2
v 6 12 -3
v 6 13 -2
v 6 13 -3
v 7 8 4
v 7 8 3
v 7 9 4
v 7 9 3
v 7 11 -0
v 7 11 -1
v 7 12 -0
v 7 12 -1
v 8 9 3
v 8 9 2
v 8 10 3
v 8 10 2
v 8 10 1
v 8 11 2
v 8 11 1
v 8 12 -1
v 8 12 -2
v 8 13 -1
v 8 13 -2
v 9 11 1
v 9 11 -0
v 9 12 1
v 9 12 -0
v 3 0 5
v 3 0 4
v 3 0 -3
v 3 0 -4
v 3 1 6
v 3 1 5
v 3 1 4
v 3 1 -3
v 3 1 -4
v 3 2 7
v 3 2 6
v 3 2 5
v 3 4 8
v 3 4 7
v 3 4 6
v 3 6 9
v 3 6 8
v 3 6 7
v 3 8 9
v 3 8 8
v 4 0 4
v 4 0 3
v 4 1 5
v 4 1 4
v 4 1 3
v 4 2 5
v 4 2 4
v 5 0 3
v 5 0 -3
v 5 1 4
v 5 1 3
v 5 1 -3
v 5 1 -4
v 5 2 6
v 5 2 5
v 5 2 4
v 5 2 3
v 5 2 -3
v 5 2 -4
v 5 4 7
v 5 4 6
v 5 4 5
v 5 6 8
v 5 6 7
v 5 6 6
v 5 8 8
v 5 8 7
v 6 1 3
v 6 1 -3
v 6 2 5
v 6 2 3
v 6 2 -3
v 6 2 -5
v 6 4 6
v 6 4 5
v 6 4 3
v 6 4 -3
v 6 4 -5
v 6 6 6
v 6 6 5
v 7 2 3
v 7 2 -3
v 7 4 5
v 7 4 3
v 7 4 -3
v 7 4 -5
v 7 6 7
v 7 6 5
v 7 6 3
v 7 6 -3
v 7 6 -5
v 7 6 -7
v 7 8 7
v 7 8 5
v 7 9 -5
v 7 9 -7
v 7 12 -4
v 7 12 -5
v 7 13 -4
v 7 13 -5
v 8 4 3
v 8 4 -3
v 8 6 5
v 8 6 3
v 8 6 -3
v 8 6 -5
v 8 8 5
v 8 8 4
v 8 9 4
v 8 9 3
v 8 9 -3
v 8 9 -5
v 8 9 -6
v 8 9 -7
v 8 11 -6
v 8 11 -7
v 9 6 3
v 9 6 -3
v 9 9 3
v 9 9 -3
v 9 9 -6
v 9 12 -4
v 9 12 -6
v 9 13 -3
v 9 13 -4
v 10 9 3
v 10 9 -3
v 10 10 3
v 10 10 2
v 10 11 2
v 10 11 1
v 10 12 1
v 10 12 -1
v 10 13 -1
v 10 13 -3
v 2 6 9
v 2 8 9
v 3 6 9
v 3 8 9
v 2 4 8
v 2 6 8
v 3 4 8
v 3 6 8
v 3 8 8
v 5 6 8
v 5 8 8
v 2 2 7
v 2 4 7
v 3 2 7
v 3 4 7
v 3 6 7
v 5 4 7
v 5 6 7
v 5 8 7
v 7 6 7
v 7 8 7
v 2 1 6
v 2 2 6
v 3 1 6
v 3 2 6
v 3 4 6
v 5 2 6
v 5 4 6
v 5 6 6
v 6 4 6
v 6 6 6
v 2 0 5
v 2 1 5
v 3 0 5
v 3 1 5
v 3 2 5
v 4 1 5
v 4 2 5
v 5 2 5
v 5 4 5
v 6 2 5
v 6 4 5
v 6 6 5
v 7 4 5
v 7 6 5
v 7 8 5
v 8 6 5
v 8 8 5
v 3 0 4
v 3 1 4
v 4 0 4
v 4 1 4
v 4 2 4
v 5 1 4
v 5 2 4
v 7 8 4
v 7 9 4
v 8 8 4
v 8 9 4
v 3 7 3
v 3 8 3
v 4 0 3
v 4 1 3
v 5 0 3
v 5 1 3
v 5 2 3
v 5 7 3
v 5 8 3
v 5 9 3
v 6 1 3
v 6 2 3
v 6 4 3
v 7 2 3
v 7 4 3
v 7 6 3
v 7 8 3
v 7 9 3
v 8 4 3
v 8 6 3
v 8 9 3
v 8 10 3
v 9 6 3
v 9 9 3
v 9 10 3
v 10 9 3
v 10 10 3
v 2 7 2
v 2 8 2
v 3 7 2
v 3 8 2
v 3 9 2
v 5 8 2
v 5 9 2
v 6 9 2
v 6 10 2
v 8 9 2
v 8 10 2
v 8 11 2
v 9 10 2
v 9 11 2
v 10 10 2
v 10 11 2
v 2 8 1
v 2 9 1
v 3 8 1
v 3 9 1
v 4 9 1
v 4 10 1
v 6 9 1
v 6 10 1
v 6 11 1
v 8 10 1
v 8 11 1
v 9 11 1
v 9 12 1
v 10 11 1
v 10 12 1
v 2 9 -0
v 2 10 -0
v 4 9 -0
v 4 10 -0
v 5 10 -0
v 5 11 -0
v 6 10 -0
v 6 11 -0
v 7 11 -0
v 7 12 -0
v 9 11 -0
v 9 12 -0
v 3 10 -1
v 3 11 -1
v 5 10 -1
v 5 11 -1
v 5 12 -1
v 7 11 -1
v 7 12 -1
v 8 12 -1
v 8 13 -1
v 9 12 -1
v 9 13 -1
v 10 12 -1
v 10 13 -1
v 3 11 -2
v 3 12 -2
v 5 11 -2
v 5 12 -2
v 6 12 -2
v 6 13 -2
v 8 12 -2
v 8 13 -2
v 4 12 -3
v 4 13 -3
v 6 12 -3
v 6 13 -3
v 2 7 6
v 2 8 6
v 3 7 6
v 3 8 6
v 3 7 5
v 3 8 5
v 5 7 5
v 5 8 5
v 2 2 -2
v 2 10 -2
v 3 2 -2
v 3 10 -2
v 2 1 -3
v 2 2 -3
v 3 0 -3
v 3 1 -3
v 3 2 -3
v 3 12 -3
v 4 1 -3
v 4 2 -3
v 4 12 -3
v 5 0 -3
v 5 1 -3
v 5 2 -3
v 6 1 -3
v 6 2 -3
v 6 4 -3
v 7 2 -3
v 7 4 -3
v 7 6 -3
v 8 4 -3
v 8 6 -3
v 8 9 -3
v 9 6 -3
v 9 9 -3
v 9 13 -3
v 10 9 -3
v 10 13 -3
v 2 0 -4
v 2 1 -4
v 3 0 -4
v 3 1 -4
v 4 1 -4
v 4 2 -4
v 4 13 -4
v 5 1 -4
v 5 2 -4
v 5 5 -4
v 5 13 -4
v 7 12 -4
v 7 13 -4
v 8 12 -4
v 8 13 -4
v 9 12 -4
v 9 13 -4
v 5 2 -5
v 5 5 -5
v 5 6 -5
v 5 12 -5
v 5 13 -5
v 6 2 -5
v 6 4 -5
v 6 5 -5
v 6 6 -5
v 7 4 -5
v 7 6 -5
v 7 9 -5
v 7 12 -5
v 7 13 -5
v 8 6 -5
v 8 9 -5
v 5 6 -6
v 5 12 -6
v 6 6 -6
v 6 9 -6
v 6 11 -6
v 7 11 -6
v 7 12 -6
v 8 9 -6
v 8 11 -6
v 9 9 -6
v 9 12 -6
v 6 6 -7
v 6 9 -7
v 6 11 -7
v 7 6 -7
v 7 9 -7
v 7 11 -7
v 8 9 -7
v 8 11 -7
v 2 0 5
v 3 0 5
v 3 0 4
v 4 0 4
v 4 0 3
v 5 0 3
v 3 0 -3
v 5 0 -3
v 2 0 -4
v 3 0 -4
v 2 1 6
v 3 1 6
v 2 1 5
v 3 1 5
v 4 1 5
v 3 1 4
v 4 1 4
v 5 1 4
v 4 1 3
v 5 1 3
v 6 1 3
v 4 1 -3
v 5 1 -3
v 6 1 -3
v 4 1 -4
v 5 1 -4
v 2 2 7
v 3 2 7
v 2 2 6
v 3 2 6
v 5 2 6
v 3 2 5
v 4 2 5
v 5 2 5
v 6 2 5
v 4 2 4
v 5 2 4
v 5 2 3
v 6 2 3
v 7 2 3
v 5 2 -3
v 6 2 -3
v 7 2 -3
v 5 2 -4
v 5 2 -5
v 6 2 -5
v 2 4 8
v 3 4 8
v 2 4 7
v 3 4 7
v 5 4 7
v 3 4 6
v 5 4 6
v 6 4 6
v 5 4 5
v 6 4 5
v 7 4 5
v 6 4 3
v 7 4 3
v 8 4 3
v 6 4 -3
v 7 4 -3
v 8 4 -3
v 6 4 -5
v 7 4 -5
v 2 6 9
v 3 6 9
v 2 6 8
v 3 6 8
v 5 6 8
v 3 6 7
v 5 6 7
v 7 6 7
v 5 6 6
v 6 6 6
v 6 6 5
v 7 6 5
v 8 6 5
v 7 6 3
v 8 6 3
v 9 6 3
v 7 6 -3
v 8 6 -3
v 9 6 -3
v 5 6 -5
v 6 6 -5
v 7 6 -5
v 8 6 -5
v 5 6 -6
v 6 6 -6
v 6 6 -7
v 7 6 -7
v 9 9 3
v 10 9 3
v 8 9 -3
v 9 9 -3
v 10 9 -3
v 7 9 -5
v 8 9 -5
v 8 9 -6
v 9 9 -6
v 7 9 -7
v 8 9 -7
v 2 1 -3
v 3 1 -3
v 2 1 -4
v 3 1 -4
v 2 2 -2
v 3 2 -2
v 2 2 -3
v 3 2 -3
v 2 7 6
v 3 7 6
v 3 7 5
v 5 7 5
v 3 7 3
v 5 7 3
v 2 7 2
v 3 7 2
v 2 8 9
v 3 8 9
v 2 8 8
v 3 8 8
v 5 8 8
v 3 8 7
v 5 8 7
v 7 8 7
v 2 8 6
v 3 8 6
v 5 8 6
v 6 8 6
v 3 8 5
v 5 8 5
v 6 8 5
v 7 8 5
v 8 8 5
v 7 8 4
v 8 8 4
v 3 8 3
v 5 8 3
v 7 8 3
v 2 8 2
v 3 8 2
v 5 8 2
v 2 8 1
v 3 8 1
v 7 9 4
v 8 9 4
v 5 9 3
v 7 9 3
v 8 9 3
v 3 9 2
v 5 9 2
v 6 9 2
v 8 9 2
v 2 9 1
v 3 9 1
v 4 9 1
v 6 9 1
v 2 9 -0
v 4 9 -0
v 8 10 3
v 9 10 3
v 10 10 3
v 6 10 2
v 8 10 2
v 9 10 2
v 10 10 2
v 4 10 1
v 6 10 1
v 8 10 1
v 2 10 -0
v 4 10 -0
v 5 10 -0
v 6 10 -0
v 3 10 -1
v 5 10 -1
v 2 10 -2
v 3 10 -2
v 8 11 2
v 9 11 2
v 10 11 2
v 6 11 1
v 8 11 1
v 9 11 1
v 10 11 1
v 5 11 -0
v 6 11 -0
v 7 11 -0
v 9 11 -0
v 3 11 -1
v 5 11 -1
v 7 11 -1
v 3 11 -2
v 5 11 -2
v 6 11 -6
v 7 11 -6
v 8 11 -6
v 6 11 -7
v 7 11 -7
v 8 11 -7
v 9 12 1
v 10 12 1
v 7 12 -0
v 9 12 -0
v 5 12 -1
v 7 12 -1
v 8 12 -1
v 9 12 -1
v 10 12 -1
v 3 12 -2
v 5 12 -2
v 6 12 -2
v 8 12 -2
v 3 12 -3
v 4 12 -3
v 6 12 -3
v 7 12 -4
v 8 12 -4
v 9 12 -4
v 5 12 -5
v 7 12 -5
v 8 12 -5
v 5 12 -6
v 7 12 -6
v 9 12 -6
v 8 13 -1
v 9 13 -1
v 10 13 -1
v 6 13 -2
v 8 13 -2
v 4 13 -3
v 6 13 -3
v 8 13 -3
v 9 13 -3
v 10 13 -3
v 4 13 -4
v 5 13 -4
v 7 13 -4
v 8 13 -4
v 9 13 -4
v 5 13 -5
v 7 13 -5

# faces
f 4/1/1 2/1/1 1/1/1
f 5/1/1 2/1/1 4/1/1
f 6/1/1 2/1/1 5/1/1
f 8/1/1 4/1/1 3/1/1
f 9/2/1 5/2/1 4/2/1
f 9/1/1 4/1/1 8/1/1
f 10/2/1 5/2/1 9/2/1
f 11/2/1 5/2/1 10/2/1
f 13/1/1 8/1/1 7/1/1
f 14/1/1 8/1/1 13/1/1
f 14/1/1 13/1/1 12/1/1
f 15/2/1 9/2/1 8/2/1
f 15/1/1 8/1/1 14/1/1
f 15/2/1 10/2/1 9/2/1
f 17/1/1 14/1/1 12/1/1
f 18/2/1 15/2/1 14/2/1
f 18/1/1 14/1/1 17/1/1
f 19/2/1 10/2/1 15/2/1
f 19/2/1 15/2/1 18/2/1
f 19/2/1 18/2/1 17/2/1
f 20/2/1 10/2/1 19/2/1
f 21/1/1 17/1/1 16/1/1
f 22/2/1 19/2/1 17/2/1
f 22/1/1 17/1/1 21/1/1
f 23/2/1 19/2/1 22/2/1
f 24/2/1 10/2/1 20/2/1
f 25/2/1 10/2/1 24/2/1
f 26/2/1 10/2/1 25/2/1
f 27/2/1 10/2/1 26/2/1
f 28/2/1 10/2/1 27/2/1
f 29/2/1 10/2/1 28/2/1
f 36/2/1 33/2/1 32/2/1
f 37/2/1 33/2/1 36/2/1
f 38/2/1 35/2/1 34/2/1
f 39/2/1 35/2/1 38/2/1
f 41/2/1 40/2/1 39/2/1
f 42/2/1 40/2/1 41/2/1
f 44/2/1 31/2/1 30/2/1
f 45/2/1 44/2/1 43/2/1
f 46/2/1 31/2/1 44/2/1
f 46/2/1 44/2/1 45/2/1
f 47/2/1 31/2/1 46/2/1
f 48/2/1 31/2/1 47/2/1
f 51/1/1 50/1/1 49/1/1
f 52/1/1 50/1/1 51/1/1
f 55/2/1 54/2/1 53/2/1
f 56/2/1 54/2/1 55/2/1
f 57/2/1 52/2/1 51/2/1
f 58/2/1 52/2/1 57/2/1
f 59/2/1 52/2/1 58/2/1
f 62/1/1 61/1/1 60/1/1
f 63/1/1 61/1/1 62/1/1
f 64/2/1 63/2/1 62/2/1
f 68/2/1 67/2/1 66/2/1
f 69/2/1 67/2/1 68/2/1
f 71/2/1 70/2/1 69/2/1
f 72/2/1 70/2/1 71/2/1
f 75/2/1 74/2/1 73/2/1
f 76/2/1 74/2/1 75/2/1
f 78/2/1 77/2/1 76/2/1
f 79/2/1 77/2/1 78/2/1
f 80/2/1 64/2/1 62/2/1
f 80/2/1 65/2/1 64/2/1
f 81/2/1 65/2/1 80/2/1
f 82/2/1 80/2/1 62/2/1
f 83/2/1 80/2/1 82/2/1
f 88/1/1 85/1/1 84/1/1
f 89/1/1 85/1/1 88/1/1
f 90/2/1 87/2/1 86/2/1
f 91/2/1 87/2/1 90/2/1
f 93/2/1 92/2/1 91/2/1
f 94/2/1 92/2/1 93/2/1
f 95/2/1 89/2/1 88/2/1
f 96/2/1 89/2/1 95/2/1
f 99/2/1 98/2/1 97/2/1
f 100/2/1 98/2/1 99/2/1
f 103/1/1 102/1/1 101/1/1
f 104/1/1 102/1/1 103/1/1
f 107/2/1 106/2/1 105/2/1
f 108/2/1 106/2/1 107/2/1
f 111/2/1 110/2/1 109/2/1
f 112/2/1 110/2/1 111/2/1
f 114/2/1 113/2/1 112/2/1
f 115/2/1 113/2/1 114/2/1
f 118/2/1 117/2/1 116/2/1
f 119/2/1 117/2/1 118/2/1
f 122/1/1 121/1/1 120/1/1
f 123/1/1 121/1/1 122/1/1
f 124/1/2 125/1/2 129/1/2
f 129/1/2 125/1/2 130/1/2
f 126/1/2 127/1/2 131/1/2
f 131/1/2 127/1/2 132/1/2
f 128/1/2 129/1/2 134/1/2
f 134/1/2 129/1/2 135/1/2
f 133/1/2 134/1/2 137/1/2
f 137/1/2 134/1/2 138/1/2
f 136/1/2 137/1/2 140/1/2
f 140/1/2 137/1/2 141/1/2
f 139/1/2 140/1/2 142/1/2
f 142/1/2 140/1/2 143/1/2
f 144/1/2 145/1/2 147/1/2
f 147/1/2 145/1/2 148/1/2
f 146/1/2 147/1/2 149/1/2
f 149/1/2 147/1/2 150/1/2
f 151/1/2 152/1/2 154/1/2
f 154/1/2 152/1/2 155/1/2
f 153/1/2 154/1/2 159/1/2
f 159/1/2 154/1/2 160/1/2
f 155/1/2 156/1/2 161/1/2
f 161/1/2 156/1/2 162/1/2
f 157/1/2 158/1/2 164/1/2
f 164/1/2 158/1/2 165/1/2
f 163/1/2 164/1/2 167/1/2
f 167/1/2 164/1/2 168/1/2
f 166/1/2 167/1/2 169/1/2
f 169/1/2 167/1/2 170/1/2
f 171/1/2 172/1/2 174/1/2
f 174/1/2 172/1/2 175/1/2
f 173/1/2 174/1/2 178/1/2
f 178/1/2 174/1/2 179/1/2
f 175/1/2 176/1/2 180/1/2
f 180/1/2 176/1/2 181/1/2
f 177/1/2 178/1/2 182/1/2
f 182/1/2 178/1/2 183/1/2
f 184/1/2 185/1/2 187/1/2
f 187/1/2 185/1/2 188/1/2
f 186/1/2 187/1/2 191/1/2
f 191/1/2 187/1/2 192/1/2
f 188/1/2 189/1/2 193/1/2
f 193/1/2 189/1/2 194/1/2
f 190/1/2 191/1/2 196/1/2
f 196/1/2 191/1/2 197/1/2
f 194/1/2 195/1/2 198/1/2
f 198/1/2 195/1/2 199/1/2
f 200/2/2 201/2/2 202/2/2
f 202/2/2 201/2/2 203/2/2
f 204/1/2 205/1/2 207/1/2
f 207/1/2 205/1/2 208/1/2
f 206/1/2 207/1/2 210/1/2
f 210/1/2 207/1/2 211/1/2
f 211/1/2 207/1/2 212/1/2
f 212/1/2 207/1/2 213/1/2
f 208/1/2 209/1/2 214/1/2
f 214/1/2 209/1/2 215/1/2
f 216/1/2 217/1/2 218/1/2
f 218/1/2 217/1/2 219/1/2
f 220/1/2 221/1/2 222/1/2
f 222/1/2 221/1/2 223/1/2
f 223/1/2 224/1/2 225/1/2
f 225/1/2 224/1/2 226/1/2
f 223/1/2 225/1/2 227/1/2
f 227/1/2 225/1/2 228/1/2
f 229/1/2 230/1/2 231/1/2
f 231/1/2 230/1/2 232/1/2
f 232/1/2 230/1/2 233/1/2
f 233/1/2 230/1/2 234/1/2
f 234/1/2 230/1/2 235/1/2
f 235/1/2 230/1/2 236/1/2
f 236/1/2 230/1/2 237/1/2
f 237/1/2 230/1/2 238/1/2
f 241/1/3 240/1/3 239/1/3
f 242/1/3 240/1/3 241/1/3
f 245/1/3 244/1/3 243/1/3
f 246/1/3 244/1/3 245/1/3
f 248/1/3 247/1/3 246/1/3
f 249/1/3 247/1/3 248/1/3
f 252/1/3 251/1/3 250/1/3
f 253/1/3 251/1/3 252/1/3
f 255/1/3 254/1/3 253/1/3
f 256/1/3 254/1/3 255/1/3
f 258/1/3 257/1/3 256/1/3
f 259/1/3 257/1/3 258/1/3
f 262/1/3 261/1/3 260/1/3
f 263/1/3 261/1/3 262/1/3
f 265/1/3 264/1/3 263/1/3
f 266/1/3 264/1/3 265/1/3
f 268/1/3 267/1/3 266/1/3
f 269/1/3 267/1/3 268/1/3
f 272/1/3 271/1/3 270/1/3
f 273/1/3 271/1/3 272/1/3
f 275/1/3 274/1/3 273/1/3
f 276/1/3 274/1/3 275/1/3
f 279/1/3 278/1/3 277/1/3
f 280/1/3 278/1/3 279/1/3
f 282/1/3 281/1/3 280/1/3
f 283/1/3 281/1/3 282/1/3
f 285/1/3 284/1/3 283/1/3
f 286/1/3 284/1/3 285/1/3
f 289/1/3 288/1/3 287/1/3
f 290/1/3 288/1/3 289/1/3
f 292/1/3 291/1/3 290/1/3
f 293/1/3 291/1/3 292/1/3
f 296/1/3 295/1/3 294/1/3
f 297/1/3 295/1/3 296/1/3
f 302/1/3 301/1/3 300/1/3
f 303/1/3 301/1/3 302/1/3
f 305/2/3 299/2/3 298/2/3
f 306/2/3 299/2/3 305/2/3
f 308/1/3 304/1/3 303/1/3
f 309/1/3 304/1/3 308/1/3
f 311/1/3 310/1/3 309/1/3
f 312/1/3 310/1/3 311/1/3
f 314/2/3 307/2/3 306/2/3
f 315/2/3 307/2/3 314/2/3
f 316/1/3 313/1/3 312/1/3
f 317/1/3 313/1/3 316/1/3
f 320/1/3 318/1/3 317/1/3
f 321/2/3 319/2/3 318/2/3
f 321/1/3 318/1/3 320/1/3
f 322/2/3 319/2/3 321/2/3
f 323/1/3 322/1/3 321/1/3
f 324/1/3 322/1/3 323/1/3
f 327/2/3 326/2/3 325/2/3
f 328/2/3 326/2/3 327/2/3
f 330/2/3 329/2/3 328/2/3
f 331/2/3 329/2/3 330/2/3
f 334/2/3 333/2/3 332/2/3
f 335/2/3 333/2/3 334/2/3
f 337/2/3 336/2/3 335/2/3
f 338/2/3 336/2/3 337/2/3
f 339/1/3 338/1/3 337/1/3
f 340/1/3 338/1/3 339/1/3
f 343/2/3 342/2/3 341/2/3
f 344/2/3 342/2/3 343/2/3
f 347/2/3 346/2/3 345/2/3
f 348/2/3 346/2/3 347/2/3
f 350/2/3 349/2/3 348/2/3
f 351/2/3 349/2/3 350/2/3
f 354/1/3 353/1/3 352/1/3
f 355/1/3 353/1/3 354/1/3
f 358/2/3 357/2/3 356/2/3
f 359/2/3 357/2/3 358/2/3
f 362/2/3 361/2/3 360/2/3
f 363/2/3 361/2/3 362/2/3
f 366/2/3 365/2/3 364/2/3
f 367/2/3 365/2/3 366/2/3
f 370/2/3 369/2/3 368/2/3
f 371/2/3 369/2/3 370/2/3
f 373/2/3 372/2/3 371/2/3
f 374/2/3 372/2/3 373/2/3
f 377/2/3 376/2/3 375/2/3
f 378/2/3 376/2/3 377/2/3
f 379/1/3 378/1/3 377/1/3
f 380/1/3 378/1/3 379/1/3
f 383/2/3 382/2/3 381/2/3
f 384/2/3 382/2/3 383/2/3
f 387/2/3 386/2/3 385/2/3
f 388/2/3 386/2/3 387/2/3
f 391/2/3 390/2/3 389/2/3
f 392/2/3 390/2/3 391/2/3
f 393/2/4 394/2/4 395/2/4
f 395/2/4 394/2/4 396/2/4
f 397/2/4 398/2/4 399/2/4
f 399/2/4 398/2/4 400/2/4
f 401/2/4 402/2/4 403/2/4
f 403/2/4 402/2/4 404/2/4
f 405/2/4 406/2/4 408/2/4
f 408/2/4 406/2/4 409/2/4
f 407/1/4 408/1/4 411/1/4
f 409/2/4 410/2/4 411/2/4
f 408/2/4 409/2/4 411/2/4
f 411/2/4 410/2/4 412/2/4
f 412/2/4 410/2/4 413/2/4
f 407/1/4 411/1/4 414/1/4
f 414/1/4 411/1/4 415/1/4
f 415/1/4 416/1/4 417/1/4
f 417/1/4 416/1/4 418/1/4
f 418/1/4 419/1/4 420/1/4
f 420/1/4 419/1/4 421/1/4
f 421/1/4 422/1/4 423/1/4
f 423/1/4 422/1/4 424/1/4
f 424/1/4 425/1/4 426/1/4
f 426/1/4 425/1/4 427/1/4
f 427/1/4 428/1/4 429/1/4
f 429/1/4 428/1/4 430/1/4
f 431/1/4 432/1/4 433/1/4
f 433/1/4 432/1/4 434/1/4
f 435/1/4 436/1/4 438/1/4
f 436/2/4 437/2/4 439/2/4
f 438/1/4 436/1/4 439/1/4
f 439/2/4 437/2/4 440/2/4
f 440/2/4 437/2/4 441/2/4
f 442/2/4 443/2/4 444/2/4
f 444/2/4 443/2/4 445/2/4
f 444/1/4 445/1/4 446/1/4
f 446/1/4 445/1/4 447/1/4
f 448/1/4 449/1/4 453/1/4
f 453/1/4 449/1/4 454/1/4
f 449/2/4 450/2/4 455/2/4
f 454/1/4 449/1/4 455/1/4
f 455/2/4 450/2/4 456/2/4
f 454/1/4 455/1/4 457/1/4
f 455/1/4 456/1/4 457/1/4
f 457/1/4 456/1/4 458/1/4
f 451/2/4 452/2/4 460/2/4
f 460/2/4 452/2/4 461/2/4
f 458/1/4 459/1/4 462/1/4
f 462/1/4 459/1/4 463/1/4
f 464/2/4 465/2/4 466/2/4
f 466/2/4 465/2/4 467/2/4
f 467/2/4 465/2/4 468/2/4
f 468/2/4 465/2/4 469/2/4
f 469/2/4 465/2/4 470/2/4
f 469/1/4 470/1/4 472/1/4
f 471/1/4 472/1/4 473/1/4
f 472/1/4 470/1/4 474/1/4
f 473/1/4 472/1/4 474/1/4
f 475/1/4 476/1/4 478/1/4
f 476/2/4 477/2/4 479/2/4
f 478/1/4 476/1/4 479/1/4
f 479/2/4 477/2/4 480/2/4
f 479/1/4 480/1/4 481/1/4
f 481/1/4 480/1/4 482/1/4
f 485/1/5 484/1/5 483/1/5
f 487/1/5 486/1/5 485/1/5
f 489/1/5 485/1/5 483/1/5
f 489/1/5 488/1/5 487/1/5
f 489/1/5 487/1/5 485/1/5
f 490/1/5 488/1/5 489/1/5
f 491/1/5 489/1/5 483/1/5
f 492/1/5 489/1/5 491/1/5
f 495/1/5 494/1/5 493/1/5
f 496/1/5 494/1/5 495/1/5
f 498/1/5 497/1/5 496/1/5
f 499/1/5 497/1/5 498/1/5
f 501/1/5 500/1/5 499/1/5
f 502/1/5 500/1/5 501/1/5
f 505/1/5 503/1/5 502/1/5
f 506/1/5 503/1/5 505/1/5
f 507/1/5 505/1/5 504/1/5
f 508/1/5 505/1/5 507/1/5
f 511/1/5 510/1/5 509/1/5
f 512/1/5 510/1/5 511/1/5
f 514/1/5 513/1/5 512/1/5
f 515/1/5 513/1/5 514/1/5
f 516/1/5 513/1/5 515/1/5
f 518/1/5 517/1/5 516/1/5
f 518/1/5 516/1/5 515/1/5
f 519/1/5 517/1/5 518/1/5
f 520/1/5 517/1/5 519/1/5
f 521/1/5 517/1/5 520/1/5
f 524/1/5 522/1/5 521/1/5
f 525/1/5 522/1/5 524/1/5
f 526/1/5 524/1/5 523/1/5
f 527/1/5 524/1/5 526/1/5
f 528/1/5 524/1/5 527/1/5
f 531/1/5 530/1/5 529/1/5
f 532/1/5 530/1/5 531/1/5
f 534/1/5 533/1/5 532/1/5
f 535/1/5 533/1/5 534/1/5
f 537/1/5 536/1/5 535/1/5
f 538/1/5 536/1/5 537/1/5
f 540/1/5 539/1/5 538/1/5
f 541/1/5 539/1/5 540/1/5
f 544/1/5 542/1/5 541/1/5
f 545/1/5 542/1/5 544/1/5
f 546/1/5 544/1/5 543/1/5
f 547/1/5 544/1/5 546/1/5
f 550/1/5 549/1/5 548/1/5
f 551/1/5 549/1/5 550/1/5
f 553/1/5 552/1/5 551/1/5
f 554/1/5 552/1/5 553/1/5
f 556/1/5 555/1/5 554/1/5
f 557/1/5 555/1/5 556/1/5
f 558/1/5 555/1/5 557/1/5
f 559/1/5 555/1/5 558/1/5
f 561/1/5 560/1/5 559/1/5
f 562/1/5 560/1/5 561/1/5
f 565/1/5 563/1/5 562/1/5
f 566/1/5 563/1/5 565/1/5
f 569/1/5 565/1/5 564/1/5
f 570/1/5 565/1/5 569/1/5
f 571/2/5 568/2/5 567/2/5
f 572/1/5 569/1/5 568/1/5
f 572/2/5 568/2/5 571/2/5
f 573/1/5 569/1/5 572/1/5
f 574/1/5 569/1/5 573/1/5
f 578/1/5 576/1/5 575/1/5
f 579/1/5 576/1/5 578/1/5
f 581/1/5 578/1/5 577/1/5
f 582/1/5 578/1/5 581/1/5
f 582/1/5 581/1/5 580/1/5
f 583/1/5 578/1/5 582/1/5
f 584/1/5 582/1/5 580/1/5
f 585/1/5 582/1/5 584/1/5
f 586/1/6 587/1/6 588/1/6
f 588/1/6 587/1/6 589/1/6
f 590/2/6 591/2/6 592/2/6
f 592/2/6 591/2/6 593/2/6
f 594/2/6 595/2/6 596/2/6
f 594/2/6 596/2/6 598/2/6
f 596/2/6 597/2/6 598/2/6
f 598/2/6 597/2/6 599/2/6
f 594/2/6 598/2/6 600/2/6
f 600/2/6 598/2/6 601/2/6
f 602/1/6 603/1/6 604/1/6
f 604/1/6 603/1/6 605/1/6
f 604/2/6 605/2/6 607/2/6
f 605/1/6 606/1/6 607/1/6
f 607/1/6 606/1/6 608/1/6
f 604/2/6 607/2/6 610/2/6
f 607/2/6 608/2/6 610/2/6
f 610/2/6 608/2/6 611/2/6
f 608/1/6 609/1/6 612/1/6
f 611/2/6 608/2/6 612/2/6
f 612/1/6 609/1/6 613/1/6
f 611/2/6 612/2/6 614/2/6
f 612/2/6 613/2/6 614/2/6
f 614/2/6 613/2/6 615/2/6
f 613/1/6 609/1/6 616/1/6
f 615/2/6 613/2/6 616/2/6
f 616/1/6 609/1/6 617/1/6
f 617/1/6 618/1/6 619/1/6
f 616/2/6 617/2/6 619/2/6
f 615/2/6 616/2/6 619/2/6
f 619/1/6 618/1/6 620/1/6
f 615/2/6 619/2/6 622/2/6
f 622/2/6 619/2/6 623/2/6
f 621/2/6 622/2/6 625/2/6
f 625/2/6 622/2/6 626/2/6
f 624/2/6 625/2/6 627/2/6
f 627/2/6 625/2/6 628/2/6
f 629/1/6 630/1/6 632/1/6
f 632/1/6 630/1/6 633/1/6
f 631/2/6 632/2/6 635/2/6
f 632/2/6 633/2/6 635/2/6
f 635/2/6 633/2/6 636/2/6
f 636/2/6 633/2/6 637/2/6
f 634/2/6 635/2/6 639/2/6
f 635/2/6 636/2/6 639/2/6
f 639/2/6 636/2/6 640/2/6
f 640/2/6 636/2/6 641/2/6
f 638/2/6 639/2/6 642/2/6
f 639/2/6 640/2/6 642/2/6
f 642/2/6 640/2/6 643/2/6
f 644/2/6 645/2/6 648/2/6
f 645/1/6 646/1/6 649/1/6
f 648/2/6 645/2/6 649/2/6
f 649/1/6 646/1/6 650/1/6
f 647/2/6 648/2/6 652/2/6
f 652/2/6 648/2/6 653/2/6
f 651/2/6 652/2/6 655/2/6
f 655/2/6 652/2/6 656/2/6
f 656/2/6 652/2/6 657/2/6
f 654/2/6 655/2/6 658/2/6
f 655/2/6 656/2/6 658/2/6
f 658/2/6 656/2/6 659/2/6
f 654/2/6 658/2/6 660/2/6
f 660/2/6 658/2/6 661/2/6
f 662/2/6 663/2/6 666/2/6
f 663/1/6 664/1/6 667/1/6
f 666/2/6 663/2/6 667/2/6
f 667/1/6 664/1/6 668/1/6
f 665/2/6 666/2/6 670/2/6
f 666/2/6 667/2/6 670/2/6
f 670/2/6 667/2/6 671/2/6
f 671/2/6 667/2/6 672/2/6
f 669/2/6 670/2/6 674/2/6
f 670/2/6 671/2/6 674/2/6
f 674/2/6 671/2/6 675/2/6
f 673/2/6 674/2/6 676/2/6
f 676/2/6 674/2/6 677/2/6
f 678/2/6 679/2/6 681/2/6
f 679/1/6 680/1/6 682/1/6
f 681/2/6 679/2/6 682/2/6
f 682/1/6 680/1/6 683/1/6
f 684/1/6 685/1/6 687/1/6
f 686/2/6 687/2/6 689/2/6
f 689/2/6 687/2/6 690/2/6
f 687/1/6 685/1/6 691/1/6
f 690/2/6 687/2/6 691/2/6
f 691/1/6 685/1/6 692/1/6
f 689/2/6 690/2/6 694/2/6
f 688/2/6 689/2/6 694/2/6
f 694/2/6 690/2/6 695/2/6
f 695/2/6 690/2/6 696/2/6
f 693/2/6 694/2/6 697/2/6
f 694/2/6 695/2/6 697/2/6
f 697/2/6 695/2/6 698/2/6
f 698/2/6 695/2/6 699/2/6
f 700/2/6 701/2/6 704/2/6
f 701/1/6 702/1/6 705/1/6
f 704/2/6 701/2/6 705/2/6
f 703/2/6 704/2/6 706/2/6
f 704/1/6 705/1/6 707/1/6
f 706/2/6 704/2/6 707/2/6
f 705/1/6 702/1/6 708/1/6
f 707/1/6 705/1/6 708/1/6
f 709/2/6 710/2/6 713/2/6
f 712/2/6 713/2/6 715/2/6
f 713/2/6 710/2/6 716/2/6
f 715/2/6 713/2/6 716/2/6
f 710/1/6 711/1/6 717/1/6
f 716/2/6 710/2/6 717/2/6
f 717/1/6 711/1/6 718/1/6
f 715/2/6 716/2/6 719/2/6
f 714/2/6 715/2/6 719/2/6
f 719/2/6 716/2/6 720/2/6
f 720/2/6 716/2/6 721/2/6
f 716/1/6 717/1/6 722/1/6
f 721/2/6 716/2/6 722/2/6
f 722/1/6 717/1/6 723/1/6
f 720/2/6 721/2/6 724/2/6
f 724/2/6 721/2/6 725/2/6
