# MagicaVoxel @ Ephtracy

# material
mtllib Target_Oak_5.mtl
usemtl palette

# normals
vn -1 0 0
vn 1 0 0
vn 0 0 1
vn 0 0 -1
vn 0 -1 0
vn 0 1 0

# texcoords
vt 0.533203 0.5
vt 0.970703 0.5

# verts
v 0 0 7
v 0 0 -0
v 0 1 5
v 0 1 -0
v 0 2 7
v 0 2 6
v 0 2 5
v 0 3 7
v 0 3 6
v 0 5 7
v 0 5 6
v 2 0 -0
v 2 0 -2
v 2 1 -0
v 2 1 -2
v 3 1 5
v 3 1 4
v 3 2 6
v 3 2 5
v 3 2 4
v 3 3 6
v 3 3 5
v 3 5 7
v 3 5 6
v 3 5 5
v 3 6 7
v 3 6 6
v 3 8 7
v 3 8 6
v 4 1 4
v 4 1 3
v 4 2 5
v 4 2 4
v 4 2 3
v 4 3 5
v 4 3 4
v 4 5 5
v 4 5 4
v 5 1 3
v 5 1 -2
v 5 2 4
v 5 2 3
v 5 2 -2
v 5 3 4
v 5 3 3
v 5 5 6
v 5 5 5
v 5 5 4
v 5 5 3
v 5 6 6
v 5 6 5
v 5 8 7
v 5 8 6
v 5 8 5
v 5 11 7
v 5 11 6
v 6 2 3
v 6 2 -2
v 6 3 3
v 6 3 -2
v 6 5 5
v 6 5 3
v 6 5 -2
v 6 6 5
v 6 6 3
v 6 8 6
v 6 8 5
v 6 8 3
v 6 11 6
v 6 11 5
v 7 5 3
v 7 5 -2
v 7 6 3
v 7 6 -2
v 7 8 5
v 7 8 3
v 7 8 -2
v 7 11 5
v 7 11 3
v 8 5 -2
v 8 5 -3
v 8 6 -2
v 8 6 -3
v 8 8 3
v 8 8 -2
v 8 9 3
v 8 9 -3
v 8 11 6
v 8 11 5
v 8 12 6
v 8 12 5
v 9 8 -3
v 9 8 -4
v 9 9 -3
v 9 11 -3
v 9 11 -4
v 3 0 7
v 3 0 6
v 3 2 7
v 3 2 6
v 5 0 6
v 5 0 5
v 5 2 7
v 5 2 6
v 5 2 5
v 5 3 7
v 5 3 6
v 5 5 7
v 5 5 6
v 6 0 5
v 6 0 3
v 6 2 6
v 6 2 5
v 6 2 3
v 6 3 6
v 6 3 5
v 6 5 6
v 6 5 5
v 7 0 3
v 7 0 -2
v 7 2 5
v 7 2 3
v 7 2 -2
v 7 3 5
v 7 3 3
v 7 5 7
v 7 5 5
v 7 5 3
v 7 6 7
v 7 6 5
v 7 8 7
v 7 8 5
v 8 2 3
v 8 2 -2
v 8 3 3
v 8 3 -2
v 8 5 5
v 8 5 3
v 8 5 -2
v 8 6 5
v 8 6 3
v 8 8 7
v 8 8 6
v 8 8 5
v 8 8 3
v 8 9 5
v 8 9 3
v 8 11 7
v 8 11 6
v 8 11 5
v 8 11 3
v 9 5 3
v 9 5 -3
v 9 6 3
v 9 6 -3
v 9 8 6
v 9 8 4
v 9 8 3
v 9 8 -3
v 9 9 5
v 9 9 4
v 9 12 6
v 9 12 5
v 10 8 4
v 10 8 -4
v 10 9 4
v 10 9 -3
v 10 11 -3
v 10 11 -4
v 0 0 7
v 0 2 7
v 0 3 7
v 0 5 7
v 3 0 7
v 3 2 7
v 3 5 7
v 3 6 7
v 3 8 7
v 5 2 7
v 5 3 7
v 5 5 7
v 5 8 7
v 5 11 7
v 7 5 7
v 7 6 7
v 7 8 7
v 8 8 7
v 8 11 7
v 3 0 6
v 3 2 6
v 5 0 6
v 5 2 6
v 5 3 6
v 5 5 6
v 6 2 6
v 6 3 6
v 6 5 6
v 8 8 6
v 8 11 6
v 8 12 6
v 9 8 6
v 9 12 6
v 5 0 5
v 5 2 5
v 6 0 5
v 6 2 5
v 6 3 5
v 6 5 5
v 7 2 5
v 7 3 5
v 7 5 5
v 7 6 5
v 7 8 5
v 8 5 5
v 8 6 5
v 8 8 5
v 9 8 4
v 9 9 4
v 10 8 4
v 10 9 4
v 6 0 3
v 6 2 3
v 7 0 3
v 7 2 3
v 7 3 3
v 7 5 3
v 8 2 3
v 8 3 3
v 8 5 3
v 8 6 3
v 8 8 3
v 9 5 3
v 9 6 3
v 9 8 3
v 9 9 -3
v 9 11 -3
v 10 9 -3
v 10 11 -3
v 0 2 6
v 0 3 6
v 0 5 6
v 3 2 6
v 3 3 6
v 3 5 6
v 3 6 6
v 3 8 6
v 5 5 6
v 5 6 6
v 5 8 6
v 5 11 6
v 6 8 6
v 6 11 6
v 0 1 5
v 0 2 5
v 3 1 5
v 3 2 5
v 3 3 5
v 3 5 5
v 4 2 5
v 4 3 5
v 4 5 5
v 5 5 5
v 5 6 5
v 5 8 5
v 6 5 5
v 6 6 5
v 6 8 5
v 6 11 5
v 7 8 5
v 7 11 5
v 8 9 5
v 8 11 5
v 8 12 5
v 9 9 5
v 9 12 5
v 3 1 4
v 3 2 4
v 4 1 4
v 4 2 4
v 4 3 4
v 4 5 4
v 5 2 4
v 5 3 4
v 5 5 4
v 4 1 3
v 4 2 3
v 5 1 3
v 5 2 3
v 5 3 3
v 5 5 3
v 6 2 3
v 6 3 3
v 6 5 3
v 6 6 3
v 6 8 3
v 7 5 3
v 7 6 3
v 7 8 3
v 7 11 3
v 8 8 3
v 8 9 3
v 8 11 3
v 0 0 -0
v 0 1 -0
v 2 0 -0
v 2 1 -0
v 2 0 -2
v 2 1 -2
v 5 1 -2
v 5 2 -2
v 6 2 -2
v 6 3 -2
v 6 5 -2
v 7 0 -2
v 7 2 -2
v 7 5 -2
v 7 6 -2
v 7 8 -2
v 8 2 -2
v 8 3 -2
v 8 5 -2
v 8 6 -2
v 8 8 -2
v 8 5 -3
v 8 6 -3
v 8 9 -3
v 9 5 -3
v 9 6 -3
v 9 8 -3
v 9 9 -3
v 9 8 -4
v 9 11 -4
v 10 8 -4
v 10 11 -4
v 0 0 7
v 3 0 7
v 3 0 6
v 5 0 6
v 5 0 5
v 6 0 5
v 6 0 3
v 7 0 3
v 0 0 -0
v 2 0 -0
v 2 0 -2
v 7 0 -2
v 3 2 7
v 5 2 7
v 3 2 6
v 5 2 6
v 6 2 6
v 5 2 5
v 6 2 5
v 7 2 5
v 6 2 3
v 7 2 3
v 8 2 3
v 7 2 -2
v 8 2 -2
v 5 5 7
v 7 5 7
v 5 5 6
v 6 5 6
v 6 5 5
v 7 5 5
v 8 5 5
v 7 5 3
v 8 5 3
v 9 5 3
v 8 5 -2
v 8 5 -3
v 9 5 -3
v 7 8 7
v 8 8 7
v 8 8 6
v 9 8 6
v 7 8 5
v 8 8 5
v 9 8 4
v 10 8 4
v 8 8 3
v 9 8 3
v 9 8 -3
v 9 8 -4
v 10 8 -4
v 0 1 5
v 3 1 5
v 3 1 4
v 4 1 4
v 4 1 3
v 5 1 3
v 0 1 -0
v 2 1 -0
v 2 1 -2
v 5 1 -2
v 0 2 6
v 3 2 6
v 0 2 5
v 3 2 5
v 4 2 5
v 3 2 4
v 4 2 4
v 5 2 4
v 4 2 3
v 5 2 3
v 6 2 3
v 5 2 -2
v 6 2 -2
v 0 5 7
v 3 5 7
v 0 5 6
v 3 5 6
v 5 5 6
v 3 5 5
v 4 5 5
v 5 5 5
v 6 5 5
v 4 5 4
v 5 5 4
v 5 5 3
v 6 5 3
v 7 5 3
v 6 5 -2
v 7 5 -2
v 3 8 7
v 5 8 7
v 3 8 6
v 5 8 6
v 6 8 6
v 5 8 5
v 6 8 5
v 7 8 5
v 6 8 3
v 7 8 3
v 8 8 3
v 7 8 -2
v 8 8 -2
v 8 9 5
v 9 9 5
v 9 9 4
v 10 9 4
v 8 9 3
v 8 9 -3
v 9 9 -3
v 10 9 -3
v 5 11 7
v 8 11 7
v 5 11 6
v 6 11 6
v 8 11 6
v 6 11 5
v 7 11 5
v 8 11 5
v 7 11 3
v 8 11 3
v 9 11 -3
v 10 11 -3
v 9 11 -4
v 10 11 -4
v 8 12 6
v 9 12 6
v 8 12 5
v 9 12 5

# faces
f 3/1/1 2/1/1 1/1/1
f 4/1/1 2/1/1 3/1/1
f 5/1/1 3/1/1 1/1/1
f 6/1/1 3/1/1 5/1/1
f 7/1/1 3/1/1 6/1/1
f 8/2/1 6/2/1 5/2/1
f 9/2/1 6/2/1 8/2/1
f 10/1/1 9/1/1 8/1/1
f 11/1/1 9/1/1 10/1/1
f 14/1/1 13/1/1 12/1/1
f 15/1/1 13/1/1 14/1/1
f 19/1/1 17/1/1 16/1/1
f 20/1/1 17/1/1 19/1/1
f 21/2/1 19/2/1 18/2/1
f 22/2/1 19/2/1 21/2/1
f 24/1/1 22/1/1 21/1/1
f 25/1/1 22/1/1 24/1/1
f 26/2/1 24/2/1 23/2/1
f 27/2/1 24/2/1 26/2/1
f 28/1/1 27/1/1 26/1/1
f 29/1/1 27/1/1 28/1/1
f 33/1/1 31/1/1 30/1/1
f 34/1/1 31/1/1 33/1/1
f 35/2/1 33/2/1 32/2/1
f 36/2/1 33/2/1 35/2/1
f 37/1/1 36/1/1 35/1/1
f 38/1/1 36/1/1 37/1/1
f 42/1/1 40/1/1 39/1/1
f 43/1/1 40/1/1 42/1/1
f 44/2/1 42/2/1 41/2/1
f 45/2/1 42/2/1 44/2/1
f 48/1/1 45/1/1 44/1/1
f 49/1/1 45/1/1 48/1/1
f 50/2/1 47/2/1 46/2/1
f 51/2/1 47/2/1 50/2/1
f 53/1/1 51/1/1 50/1/1
f 54/1/1 51/1/1 53/1/1
f 55/1/1 53/1/1 52/1/1
f 56/1/1 53/1/1 55/1/1
f 59/2/1 58/2/1 57/2/1
f 60/2/1 58/2/1 59/2/1
f 62/1/1 60/1/1 59/1/1
f 63/1/1 60/1/1 62/1/1
f 64/2/1 62/2/1 61/2/1
f 65/2/1 62/2/1 64/2/1
f 67/1/1 65/1/1 64/1/1
f 68/1/1 65/1/1 67/1/1
f 69/1/1 67/1/1 66/1/1
f 70/1/1 67/1/1 69/1/1
f 73/2/1 72/2/1 71/2/1
f 74/2/1 72/2/1 73/2/1
f 76/1/1 74/1/1 73/1/1
f 77/1/1 74/1/1 76/1/1
f 78/1/1 76/1/1 75/1/1
f 79/1/1 76/1/1 78/1/1
f 82/2/1 81/2/1 80/2/1
f 83/2/1 81/2/1 82/2/1
f 85/1/1 83/1/1 82/1/1
f 86/1/1 85/1/1 84/1/1
f 87/1/1 83/1/1 85/1/1
f 87/1/1 85/1/1 86/1/1
f 90/1/1 89/1/1 88/1/1
f 91/1/1 89/1/1 90/1/1
f 94/1/1 93/1/1 92/1/1
f 95/1/1 93/1/1 94/1/1
f 96/1/1 93/1/1 95/1/1
f 97/1/2 98/1/2 99/1/2
f 99/1/2 98/1/2 100/1/2
f 101/1/2 102/1/2 104/1/2
f 104/1/2 102/1/2 105/1/2
f 103/2/2 104/2/2 106/2/2
f 106/2/2 104/2/2 107/2/2
f 106/1/2 107/1/2 108/1/2
f 108/1/2 107/1/2 109/1/2
f 110/1/2 111/1/2 113/1/2
f 113/1/2 111/1/2 114/1/2
f 112/2/2 113/2/2 115/2/2
f 115/2/2 113/2/2 116/2/2
f 115/1/2 116/1/2 117/1/2
f 117/1/2 116/1/2 118/1/2
f 119/1/2 120/1/2 122/1/2
f 122/1/2 120/1/2 123/1/2
f 121/2/2 122/2/2 124/2/2
f 124/2/2 122/2/2 125/2/2
f 124/1/2 125/1/2 127/1/2
f 127/1/2 125/1/2 128/1/2
f 126/2/2 127/2/2 129/2/2
f 129/2/2 127/2/2 130/2/2
f 129/1/2 130/1/2 131/1/2
f 131/1/2 130/1/2 132/1/2
f 133/2/2 134/2/2 135/2/2
f 135/2/2 134/2/2 136/2/2
f 135/1/2 136/1/2 138/1/2
f 138/1/2 136/1/2 139/1/2
f 137/2/2 138/2/2 140/2/2
f 140/2/2 138/2/2 141/2/2
f 140/1/2 141/1/2 144/1/2
f 144/1/2 141/1/2 145/1/2
f 142/1/2 143/1/2 148/1/2
f 148/1/2 143/1/2 149/1/2
f 146/1/2 147/1/2 150/1/2
f 150/1/2 147/1/2 151/1/2
f 152/2/2 153/2/2 154/2/2
f 154/2/2 153/2/2 155/2/2
f 154/1/2 155/1/2 158/1/2
f 158/1/2 155/1/2 159/1/2
f 156/1/2 157/1/2 160/1/2
f 160/1/2 157/1/2 161/1/2
f 156/1/2 160/1/2 162/1/2
f 162/1/2 160/1/2 163/1/2
f 164/1/2 165/1/2 166/1/2
f 166/1/2 165/1/2 167/1/2
f 167/1/2 165/1/2 168/1/2
f 168/1/2 165/1/2 169/1/2
f 174/1/3 171/1/3 170/1/3
f 175/2/3 172/2/3 171/2/3
f 175/1/3 171/1/3 174/1/3
f 176/1/3 173/1/3 172/1/3
f 179/2/3 172/2/3 175/2/3
f 180/1/3 176/1/3 172/1/3
f 180/2/3 172/2/3 179/2/3
f 181/2/3 177/2/3 176/2/3
f 181/1/3 176/1/3 180/1/3
f 182/1/3 178/1/3 177/1/3
f 184/2/3 177/2/3 181/2/3
f 185/1/3 183/1/3 182/1/3
f 185/2/3 177/2/3 184/2/3
f 185/1/3 182/1/3 177/1/3
f 186/1/3 183/1/3 185/1/3
f 187/1/3 183/1/3 186/1/3
f 188/1/3 183/1/3 187/1/3
f 191/1/3 190/1/3 189/1/3
f 192/1/3 190/1/3 191/1/3
f 195/2/3 193/2/3 192/2/3
f 196/1/3 194/1/3 193/1/3
f 196/2/3 193/2/3 195/2/3
f 197/1/3 194/1/3 196/1/3
f 201/1/3 199/1/3 198/1/3
f 201/1/3 200/1/3 199/1/3
f 202/1/3 200/1/3 201/1/3
f 205/1/3 204/1/3 203/1/3
f 206/1/3 204/1/3 205/1/3
f 209/2/3 207/2/3 206/2/3
f 210/1/3 208/1/3 207/1/3
f 210/2/3 207/2/3 209/2/3
f 211/1/3 208/1/3 210/1/3
f 214/2/3 212/2/3 211/2/3
f 215/1/3 213/1/3 212/1/3
f 215/2/3 212/2/3 214/2/3
f 216/1/3 213/1/3 215/1/3
f 219/1/3 218/1/3 217/1/3
f 220/1/3 218/1/3 219/1/3
f 223/1/3 222/1/3 221/1/3
f 224/1/3 222/1/3 223/1/3
f 227/2/3 225/2/3 224/2/3
f 228/1/3 226/1/3 225/1/3
f 228/2/3 225/2/3 227/2/3
f 229/1/3 226/1/3 228/1/3
f 232/2/3 230/2/3 229/2/3
f 233/1/3 231/1/3 230/1/3
f 233/2/3 230/2/3 232/2/3
f 234/1/3 231/1/3 233/1/3
f 237/1/3 236/1/3 235/1/3
f 238/1/3 236/1/3 237/1/3
f 239/2/4 240/2/4 242/2/4
f 240/1/4 241/1/4 243/1/4
f 242/2/4 240/2/4 243/2/4
f 243/1/4 241/1/4 244/1/4
f 244/2/4 245/2/4 247/2/4
f 245/1/4 246/1/4 248/1/4
f 247/2/4 245/2/4 248/2/4
f 248/1/4 246/1/4 249/1/4
f 249/1/4 250/1/4 251/1/4
f 251/1/4 250/1/4 252/1/4
f 253/1/4 254/1/4 255/1/4
f 255/1/4 254/1/4 256/1/4
f 256/2/4 257/2/4 259/2/4
f 257/1/4 258/1/4 260/1/4
f 259/2/4 257/2/4 260/2/4
f 260/1/4 258/1/4 261/1/4
f 262/2/4 263/2/4 265/2/4
f 263/1/4 264/1/4 266/1/4
f 265/2/4 263/2/4 266/2/4
f 266/1/4 264/1/4 267/1/4
f 267/1/4 268/1/4 269/1/4
f 269/1/4 268/1/4 270/1/4
f 271/1/4 272/1/4 274/1/4
f 272/1/4 273/1/4 274/1/4
f 274/1/4 273/1/4 275/1/4
f 276/1/4 277/1/4 278/1/4
f 278/1/4 277/1/4 279/1/4
f 279/2/4 280/2/4 282/2/4
f 280/1/4 281/1/4 283/1/4
f 282/2/4 280/2/4 283/2/4
f 283/1/4 281/1/4 284/1/4
f 285/1/4 286/1/4 287/1/4
f 287/1/4 286/1/4 288/1/4
f 288/2/4 289/2/4 291/2/4
f 289/1/4 290/1/4 292/1/4
f 291/2/4 289/2/4 292/2/4
f 292/1/4 290/1/4 293/1/4
f 293/2/4 294/2/4 296/2/4
f 294/1/4 295/1/4 297/1/4
f 296/2/4 294/2/4 297/2/4
f 297/1/4 295/1/4 298/1/4
f 298/1/4 299/1/4 300/1/4
f 300/1/4 299/1/4 301/1/4
f 301/1/4 299/1/4 302/1/4
f 303/1/4 304/1/4 305/1/4
f 305/1/4 304/1/4 306/1/4
f 307/1/4 308/1/4 309/1/4
f 309/1/4 310/1/4 311/1/4
f 307/1/4 309/1/4 314/1/4
f 309/1/4 311/1/4 314/1/4
f 311/2/4 312/2/4 315/2/4
f 314/1/4 311/1/4 315/1/4
f 312/1/4 313/1/4 316/1/4
f 315/2/4 312/2/4 319/2/4
f 312/1/4 316/1/4 320/1/4
f 319/2/4 312/2/4 320/2/4
f 316/2/4 317/2/4 321/2/4
f 320/1/4 316/1/4 321/1/4
f 317/1/4 318/1/4 322/1/4
f 321/2/4 317/2/4 322/2/4
f 322/1/4 318/1/4 323/1/4
f 324/2/4 325/2/4 327/2/4
f 325/1/4 326/1/4 328/1/4
f 327/2/4 325/2/4 328/2/4
f 328/1/4 326/1/4 329/1/4
f 329/1/4 326/1/4 330/1/4
f 331/1/4 332/1/4 333/1/4
f 333/1/4 332/1/4 334/1/4
f 337/1/5 336/1/5 335/1/5
f 339/1/5 338/1/5 337/1/5
f 341/1/5 340/1/5 339/1/5
f 343/1/5 337/1/5 335/1/5
f 343/1/5 342/1/5 341/1/5
f 343/1/5 341/1/5 339/1/5
f 343/1/5 339/1/5 337/1/5
f 344/1/5 342/1/5 343/1/5
f 345/1/5 342/1/5 344/1/5
f 346/1/5 342/1/5 345/1/5
f 349/2/5 348/2/5 347/2/5
f 350/2/5 348/2/5 349/2/5
f 352/2/5 351/2/5 350/2/5
f 353/2/5 351/2/5 352/2/5
f 355/2/5 354/2/5 353/2/5
f 356/2/5 354/2/5 355/2/5
f 358/2/5 357/2/5 356/2/5
f 359/2/5 357/2/5 358/2/5
f 362/2/5 361/2/5 360/2/5
f 363/2/5 361/2/5 362/2/5
f 364/2/5 361/2/5 363/2/5
f 365/2/5 361/2/5 364/2/5
f 367/2/5 366/2/5 365/2/5
f 368/2/5 366/2/5 367/2/5
f 370/2/5 369/2/5 368/2/5
f 371/2/5 369/2/5 370/2/5
f 372/2/5 369/2/5 371/2/5
f 375/1/5 374/1/5 373/1/5
f 377/1/5 375/1/5 373/1/5
f 377/1/5 376/1/5 375/1/5
f 378/1/5 376/1/5 377/1/5
f 379/1/5 376/1/5 378/1/5
f 381/1/5 379/1/5 378/1/5
f 381/1/5 380/1/5 379/1/5
f 382/1/5 380/1/5 381/1/5
f 383/1/5 380/1/5 382/1/5
f 384/1/5 380/1/5 383/1/5
f 385/1/5 380/1/5 384/1/5
f 386/1/6 387/1/6 388/1/6
f 388/1/6 389/1/6 390/1/6
f 386/1/6 388/1/6 392/1/6
f 390/1/6 391/1/6 392/1/6
f 388/1/6 390/1/6 392/1/6
f 392/1/6 391/1/6 393/1/6
f 393/1/6 391/1/6 394/1/6
f 394/1/6 391/1/6 395/1/6
f 396/1/6 397/1/6 398/1/6
f 398/1/6 397/1/6 399/1/6
f 399/1/6 400/1/6 401/1/6
f 401/1/6 400/1/6 402/1/6
f 402/1/6 403/1/6 404/1/6
f 404/1/6 403/1/6 405/1/6
f 405/1/6 406/1/6 407/1/6
f 407/1/6 406/1/6 408/1/6
f 409/1/6 410/1/6 411/1/6
f 411/1/6 410/1/6 412/1/6
f 412/1/6 413/1/6 414/1/6
f 414/1/6 413/1/6 415/1/6
f 415/1/6 413/1/6 416/1/6
f 416/1/6 417/1/6 418/1/6
f 415/1/6 416/1/6 418/1/6
f 418/1/6 417/1/6 419/1/6
f 419/1/6 417/1/6 420/1/6
f 420/1/6 417/1/6 421/1/6
f 421/1/6 422/1/6 423/1/6
f 423/1/6 422/1/6 424/1/6
f 425/1/6 426/1/6 427/1/6
f 427/1/6 426/1/6 428/1/6
f 428/1/6 429/1/6 430/1/6
f 430/1/6 429/1/6 431/1/6
f 431/1/6 432/1/6 433/1/6
f 433/1/6 432/1/6 434/1/6
f 434/1/6 435/1/6 436/1/6
f 436/1/6 435/1/6 437/1/6
f 438/1/6 439/1/6 440/1/6
f 438/1/6 440/1/6 442/1/6
f 440/1/6 441/1/6 442/1/6
f 442/1/6 441/1/6 443/1/6
f 443/1/6 441/1/6 444/1/6
f 444/1/6 441/1/6 445/1/6
f 446/1/6 447/1/6 448/1/6
f 448/1/6 447/1/6 449/1/6
f 449/1/6 447/1/6 450/1/6
f 449/1/6 450/1/6 451/1/6
f 451/1/6 450/1/6 452/1/6
f 452/1/6 450/1/6 453/1/6
f 452/1/6 453/1/6 454/1/6
f 454/1/6 453/1/6 455/1/6
f 456/1/6 457/1/6 458/1/6
f 458/1/6 457/1/6 459/1/6
f 460/1/6 461/1/6 462/1/6
f 462/1/6 461/1/6 463/1/6
