# MagicaVoxel @ Ephtracy

# material
mtllib Target_Oak_6.mtl
usemtl palette

# normals
vn -1 0 0
vn 1 0 0
vn 0 0 1
vn 0 0 -1
vn 0 -1 0
vn 0 1 0

# texcoords
vt 0.306641 0.5
vt 0.533203 0.5
vt 0.970703 0.5

# verts
v -8 2 -0
v -8 2 -3
v -8 3 -0
v -8 3 -3
v -8 5 -0
v -8 5 -3
v -7 0 1
v -7 0 -3
v -7 2 1
v -7 2 -0
v -7 2 -3
v -7 2 -5
v -7 3 -3
v -7 3 -5
v -7 5 -3
v -7 5 -5
v -7 5 -7
v -7 6 -3
v -7 6 -7
v -7 8 -3
v -7 8 -5
v -7 8 -7
v -7 8 -8
v -7 9 -5
v -7 9 -8
v -6 0 -3
v -6 0 -5
v -6 2 -3
v -6 2 -5
v -6 2 -6
v -6 3 -5
v -6 3 -6
v -6 5 -5
v -6 5 -6
v -6 8 -8
v -6 8 -9
v -6 9 -8
v -6 12 -8
v -6 12 -9
v -5 0 -5
v -5 0 -6
v -5 2 -5
v -5 2 -6
v -5 2 -7
v -5 3 -6
v -5 3 -7
v -5 5 -6
v -5 5 -7
v -5 5 -8
v -5 6 -7
v -5 6 -8
v -5 8 -7
v -5 8 -8
v -4 8 -9
v -4 8 -10
v -4 12 -9
v -4 12 -10
v -3 0 -6
v -3 0 -7
v -3 2 -6
v -3 2 -7
v -3 2 -8
v -3 3 -7
v -3 3 -8
v -3 5 -7
v -3 5 -8
v -3 5 -9
v -3 6 -8
v -3 6 -9
v -3 8 -8
v -3 8 -9
v -6 2 -0
v -6 2 -3
v -6 3 -0
v -6 3 -3
v -6 5 -0
v -6 5 -3
v -6 5 -5
v -6 6 -3
v -6 6 -5
v -6 8 -3
v -6 8 -5
v -6 8 -6
v -6 9 -5
v -6 9 -6
v -5 1 1
v -5 1 -3
v -5 2 1
v -5 2 -3
v -5 2 -4
v -5 3 -3
v -5 3 -4
v -5 5 -3
v -5 5 -4
v -5 5 -5
v -5 5 -6
v -5 6 -5
v -5 6 -6
v -5 8 -5
v -5 8 -6
v -5 8 -7
v -5 9 -6
v -5 9 -7
v -4 1 -3
v -4 1 -4
v -4 2 -3
v -4 2 -4
v -4 2 -5
v -4 3 -4
v -4 3 -5
v -4 5 -4
v -4 5 -5
v -3 1 -4
v -3 1 -5
v -3 2 -4
v -3 2 -5
v -3 2 -6
v -3 3 -5
v -3 3 -6
v -3 5 -5
v -3 5 -6
v -3 5 -7
v -3 6 -6
v -3 6 -7
v -3 8 -6
v -3 8 -7
v -3 8 -8
v -3 9 -7
v -3 9 -8
v 0 0 1
v 0 0 -0
v 0 0 -2
v 0 0 -7
v 0 1 1
v 0 1 -0
v 0 1 -2
v 0 1 -5
v 0 2 -5
v 0 2 -6
v 0 2 -7
v 0 2 -8
v 0 3 -6
v 0 3 -8
v 0 5 -6
v 0 5 -7
v 0 5 -8
v 0 5 -9
v 0 6 -7
v 0 6 -9
v 0 8 -7
v 0 8 -8
v 0 8 -9
v 0 8 -10
v 0 9 -8
v 0 9 -10
v 1 10 -8
v 1 10 -9
v 1 12 -8
v 1 12 -9
v 2 0 -0
v 2 0 -2
v 2 1 -0
v 2 1 -2
v 3 9 -8
v 3 9 -9
v 3 10 -8
v 3 10 -9
v 4 9 -9
v 4 9 -10
v 4 12 -9
v 4 12 -10
v -7 0 1
v -7 2 1
v -5 1 1
v -5 2 1
v 0 0 1
v 0 1 1
v -8 2 -0
v -8 3 -0
v -8 5 -0
v -7 2 -0
v -6 2 -0
v -6 3 -0
v -6 5 -0
v 0 0 -0
v 0 1 -0
v 2 0 -0
v 2 1 -0
v -7 5 -3
v -7 6 -3
v -7 8 -3
v -6 2 -3
v -6 3 -3
v -6 5 -3
v -6 6 -3
v -6 8 -3
v -5 1 -3
v -5 2 -3
v -5 3 -3
v -5 5 -3
v -4 1 -3
v -4 2 -3
v -5 2 -4
v -5 3 -4
v -5 5 -4
v -4 1 -4
v -4 2 -4
v -4 3 -4
v -4 5 -4
v -3 1 -4
v -3 2 -4
v -7 8 -5
v -7 9 -5
v -6 5 -5
v -6 6 -5
v -6 8 -5
v -6 9 -5
v -5 5 -5
v -5 6 -5
v -5 8 -5
v -4 2 -5
v -4 3 -5
v -4 5 -5
v -3 1 -5
v -3 2 -5
v -3 3 -5
v -3 5 -5
v 0 1 -5
v 0 2 -5
v -6 8 -6
v -6 9 -6
v -5 5 -6
v -5 6 -6
v -5 8 -6
v -5 9 -6
v -3 2 -6
v -3 3 -6
v -3 5 -6
v -3 6 -6
v -3 8 -6
v 0 2 -6
v 0 3 -6
v 0 5 -6
v -5 8 -7
v -5 9 -7
v -3 5 -7
v -3 6 -7
v -3 8 -7
v -3 9 -7
v 0 5 -7
v 0 6 -7
v 0 8 -7
v -6 9 -8
v -6 12 -8
v -3 8 -8
v -3 9 -8
v 0 8 -8
v 0 9 -8
v 1 10 -8
v 1 12 -8
v 3 9 -8
v 3 10 -8
v 1 10 -9
v 1 12 -9
v 3 9 -9
v 3 10 -9
v 4 9 -9
v 4 12 -9
v 0 0 -2
v 0 1 -2
v 2 0 -2
v 2 1 -2
v -8 2 -3
v -8 3 -3
v -8 5 -3
v -7 0 -3
v -7 2 -3
v -7 3 -3
v -7 5 -3
v -6 0 -3
v -6 2 -3
v -7 2 -5
v -7 3 -5
v -7 5 -5
v -6 0 -5
v -6 2 -5
v -6 3 -5
v -6 5 -5
v -5 0 -5
v -5 2 -5
v -6 2 -6
v -6 3 -6
v -6 5 -6
v -5 0 -6
v -5 2 -6
v -5 3 -6
v -5 5 -6
v -3 0 -6
v -3 2 -6
v -7 5 -7
v -7 6 -7
v -7 8 -7
v -5 2 -7
v -5 3 -7
v -5 5 -7
v -5 6 -7
v -5 8 -7
v -3 0 -7
v -3 2 -7
v -3 3 -7
v -3 5 -7
v 0 0 -7
v 0 2 -7
v -7 8 -8
v -7 9 -8
v -6 8 -8
v -6 9 -8
v -5 5 -8
v -5 6 -8
v -5 8 -8
v -3 2 -8
v -3 3 -8
v -3 5 -8
v -3 6 -8
v -3 8 -8
v 0 2 -8
v 0 3 -8
v 0 5 -8
v -6 8 -9
v -6 12 -9
v -4 8 -9
v -4 12 -9
v -3 5 -9
v -3 6 -9
v -3 8 -9
v 0 5 -9
v 0 6 -9
v 0 8 -9
v -4 8 -10
v -4 12 -10
v 0 8 -10
v 0 9 -10
v 4 9 -10
v 4 12 -10
v -7 0 1
v 0 0 1
v 0 0 -0
v 2 0 -0
v 0 0 -2
v 2 0 -2
v -7 0 -3
v -6 0 -3
v -6 0 -5
v -5 0 -5
v -5 0 -6
v -3 0 -6
v -3 0 -7
v 0 0 -7
v -8 2 -0
v -7 2 -0
v -8 2 -3
v -7 2 -3
v -6 2 -3
v -7 2 -5
v -6 2 -5
v -5 2 -5
v -6 2 -6
v -5 2 -6
v -3 2 -6
v -5 2 -7
v -3 2 -7
v 0 2 -7
v -3 2 -8
v 0 2 -8
v -7 5 -5
v -6 5 -5
v -6 5 -6
v -5 5 -6
v -7 5 -7
v -5 5 -7
v -3 5 -7
v -5 5 -8
v -3 5 -8
v 0 5 -8
v -3 5 -9
v 0 5 -9
v -7 8 -7
v -5 8 -7
v -7 8 -8
v -6 8 -8
v -5 8 -8
v -3 8 -8
v -6 8 -9
v -4 8 -9
v -3 8 -9
v 0 8 -9
v -4 8 -10
v 0 8 -10
v 0 9 -8
v 3 9 -8
v 3 9 -9
v 4 9 -9
v 0 9 -10
v 4 9 -10
v -5 1 1
v 0 1 1
v 0 1 -0
v 2 1 -0
v 0 1 -2
v 2 1 -2
v -5 1 -3
v -4 1 -3
v -4 1 -4
v -3 1 -4
v -3 1 -5
v 0 1 -5
v -7 2 1
v -5 2 1
v -7 2 -0
v -6 2 -0
v -6 2 -3
v -5 2 -3
v -4 2 -3
v -5 2 -4
v -4 2 -4
v -3 2 -4
v -4 2 -5
v -3 2 -5
v 0 2 -5
v -3 2 -6
v 0 2 -6
v -8 5 -0
v -6 5 -0
v -8 5 -3
v -7 5 -3
v -6 5 -3
v -5 5 -3
v -5 5 -4
v -4 5 -4
v -6 5 -5
v -5 5 -5
v -4 5 -5
v -3 5 -5
v -5 5 -6
v -3 5 -6
v 0 5 -6
v -3 5 -7
v 0 5 -7
v -7 8 -3
v -6 8 -3
v -7 8 -5
v -6 8 -5
v -5 8 -5
v -6 8 -6
v -5 8 -6
v -3 8 -6
v -5 8 -7
v -3 8 -7
v 0 8 -7
v -3 8 -8
v 0 8 -8
v -7 9 -5
v -6 9 -5
v -6 9 -6
v -5 9 -6
v -5 9 -7
v -3 9 -7
v -7 9 -8
v -6 9 -8
v -3 9 -8
v 1 10 -8
v 3 10 -8
v 1 10 -9
v 3 10 -9
v -6 12 -8
v 1 12 -8
v -6 12 -9
v -4 12 -9
v 1 12 -9
v 4 12 -9
v -4 12 -10
v 4 12 -10

# faces
f 3/3/1 2/3/1 1/3/1
f 4/3/1 2/3/1 3/3/1
f 5/2/1 4/2/1 3/2/1
f 6/2/1 4/2/1 5/2/1
f 9/2/1 8/2/1 7/2/1
f 10/2/1 8/2/1 9/2/1
f 11/2/1 8/2/1 10/2/1
f 13/3/1 12/3/1 11/3/1
f 14/3/1 12/3/1 13/3/1
f 15/2/1 14/2/1 13/2/1
f 16/2/1 14/2/1 15/2/1
f 18/3/1 16/3/1 15/3/1
f 18/3/1 17/3/1 16/3/1
f 19/3/1 17/3/1 18/3/1
f 20/2/1 19/2/1 18/2/1
f 21/2/1 19/2/1 20/2/1
f 22/2/1 19/2/1 21/2/1
f 24/2/1 22/2/1 21/2/1
f 24/2/1 23/2/1 22/2/1
f 25/2/1 23/2/1 24/2/1
f 28/2/1 27/2/1 26/2/1
f 29/2/1 27/2/1 28/2/1
f 31/3/1 30/3/1 29/3/1
f 32/3/1 30/3/1 31/3/1
f 33/2/1 32/2/1 31/2/1
f 34/2/1 32/2/1 33/2/1
f 37/2/1 36/2/1 35/2/1
f 38/2/1 36/2/1 37/2/1
f 39/2/1 36/2/1 38/2/1
f 42/2/1 41/2/1 40/2/1
f 43/2/1 41/2/1 42/2/1
f 45/3/1 44/3/1 43/3/1
f 46/3/1 44/3/1 45/3/1
f 47/2/1 46/2/1 45/2/1
f 48/2/1 46/2/1 47/2/1
f 50/3/1 49/3/1 48/3/1
f 51/3/1 49/3/1 50/3/1
f 52/2/1 51/2/1 50/2/1
f 53/2/1 51/2/1 52/2/1
f 56/2/1 55/2/1 54/2/1
f 57/2/1 55/2/1 56/2/1
f 60/2/1 59/2/1 58/2/1
f 61/2/1 59/2/1 60/2/1
f 63/3/1 62/3/1 61/3/1
f 64/3/1 62/3/1 63/3/1
f 65/2/1 64/2/1 63/2/1
f 66/2/1 64/2/1 65/2/1
f 68/3/1 67/3/1 66/3/1
f 69/3/1 67/3/1 68/3/1
f 70/2/1 69/2/1 68/2/1
f 71/2/1 69/2/1 70/2/1
f 72/3/2 73/3/2 74/3/2
f 74/3/2 73/3/2 75/3/2
f 74/2/2 75/2/2 76/2/2
f 76/2/2 75/2/2 77/2/2
f 77/3/2 78/3/2 79/3/2
f 79/3/2 78/3/2 80/3/2
f 79/2/2 80/2/2 81/2/2
f 81/2/2 80/2/2 82/2/2
f 82/2/2 83/2/2 84/2/2
f 84/2/2 83/2/2 85/2/2
f 86/2/2 87/2/2 88/2/2
f 88/2/2 87/2/2 89/2/2
f 89/3/2 90/3/2 91/3/2
f 91/3/2 90/3/2 92/3/2
f 91/2/2 92/2/2 93/2/2
f 93/2/2 92/2/2 94/2/2
f 95/3/2 96/3/2 97/3/2
f 97/3/2 96/3/2 98/3/2
f 97/2/2 98/2/2 99/2/2
f 99/2/2 98/2/2 100/2/2
f 100/2/2 101/2/2 102/2/2
f 102/2/2 101/2/2 103/2/2
f 104/2/2 105/2/2 106/2/2
f 106/2/2 105/2/2 107/2/2
f 107/3/2 108/3/2 109/3/2
f 109/3/2 108/3/2 110/3/2
f 109/2/2 110/2/2 111/2/2
f 111/2/2 110/2/2 112/2/2
f 113/2/2 114/2/2 115/2/2
f 115/2/2 114/2/2 116/2/2
f 116/3/2 117/3/2 118/3/2
f 118/3/2 117/3/2 119/3/2
f 118/2/2 119/2/2 120/2/2
f 120/2/2 119/2/2 121/2/2
f 121/3/2 122/3/2 123/3/2
f 123/3/2 122/3/2 124/3/2
f 123/2/2 124/2/2 125/2/2
f 125/2/2 124/2/2 126/2/2
f 126/2/2 127/2/2 128/2/2
f 128/2/2 127/2/2 129/2/2
f 130/2/2 131/2/2 134/2/2
f 134/2/2 131/2/2 135/2/2
f 132/2/2 133/2/2 136/2/2
f 136/2/2 133/2/2 137/2/2
f 137/2/2 133/2/2 138/2/2
f 138/2/2 133/2/2 139/2/2
f 139/2/2 133/2/2 140/2/2
f 140/3/2 141/3/2 142/3/2
f 139/3/2 140/3/2 142/3/2
f 142/3/2 141/3/2 143/3/2
f 142/2/2 143/2/2 144/2/2
f 144/2/2 143/2/2 145/2/2
f 145/2/2 143/2/2 146/2/2
f 145/3/2 146/3/2 148/3/2
f 146/3/2 147/3/2 148/3/2
f 148/3/2 147/3/2 149/3/2
f 148/2/2 149/2/2 150/2/2
f 150/2/2 149/2/2 151/2/2
f 151/2/2 149/2/2 152/2/2
f 151/2/2 152/2/2 154/2/2
f 152/2/2 153/2/2 154/2/2
f 154/2/2 153/2/2 155/2/2
f 156/2/2 157/2/2 158/2/2
f 158/2/2 157/2/2 159/2/2
f 160/2/2 161/2/2 162/2/2
f 162/2/2 161/2/2 163/2/2
f 164/2/2 165/2/2 166/2/2
f 166/2/2 165/2/2 167/2/2
f 168/2/2 169/2/2 170/2/2
f 170/2/2 169/2/2 171/2/2
f 174/2/3 173/2/3 172/2/3
f 175/2/3 173/2/3 174/2/3
f 176/2/3 174/2/3 172/2/3
f 177/2/3 174/2/3 176/2/3
f 181/3/3 179/3/3 178/3/3
f 182/3/3 179/3/3 181/3/3
f 183/2/3 180/2/3 179/2/3
f 183/3/3 179/3/3 182/3/3
f 184/2/3 180/2/3 183/2/3
f 187/2/3 186/2/3 185/2/3
f 188/2/3 186/2/3 187/2/3
f 194/3/3 190/3/3 189/3/3
f 195/2/3 191/2/3 190/2/3
f 195/3/3 190/3/3 194/3/3
f 196/2/3 191/2/3 195/2/3
f 198/3/3 193/3/3 192/3/3
f 199/2/3 194/2/3 193/2/3
f 199/3/3 193/3/3 198/3/3
f 200/2/3 194/2/3 199/2/3
f 201/2/3 198/2/3 197/2/3
f 202/2/3 198/2/3 201/2/3
f 207/3/3 204/3/3 203/3/3
f 208/2/3 205/2/3 204/2/3
f 208/3/3 204/3/3 207/3/3
f 209/2/3 205/2/3 208/2/3
f 210/2/3 207/2/3 206/2/3
f 211/2/3 207/2/3 210/2/3
f 216/2/3 213/2/3 212/2/3
f 217/2/3 213/2/3 216/2/3
f 218/3/3 215/3/3 214/3/3
f 219/2/3 216/2/3 215/2/3
f 219/3/3 215/3/3 218/3/3
f 220/2/3 216/2/3 219/2/3
f 225/3/3 222/3/3 221/3/3
f 226/2/3 223/2/3 222/2/3
f 226/3/3 222/3/3 225/3/3
f 227/2/3 223/2/3 226/2/3
f 228/2/3 225/2/3 224/2/3
f 229/2/3 225/2/3 228/2/3
f 234/2/3 231/2/3 230/2/3
f 235/2/3 231/2/3 234/2/3
f 238/3/3 233/3/3 232/3/3
f 239/2/3 234/2/3 233/2/3
f 239/3/3 233/3/3 238/3/3
f 240/2/3 234/2/3 239/2/3
f 241/3/3 237/3/3 236/3/3
f 242/2/3 238/2/3 237/2/3
f 242/3/3 237/3/3 241/3/3
f 243/2/3 238/2/3 242/2/3
f 248/2/3 245/2/3 244/2/3
f 249/2/3 245/2/3 248/2/3
f 250/3/3 247/3/3 246/3/3
f 251/2/3 248/2/3 247/2/3
f 251/3/3 247/3/3 250/3/3
f 252/2/3 248/2/3 251/2/3
f 256/2/3 254/2/3 253/2/3
f 257/2/3 256/2/3 255/2/3
f 258/2/3 254/2/3 256/2/3
f 258/2/3 256/2/3 257/2/3
f 259/2/3 254/2/3 258/2/3
f 260/2/3 254/2/3 259/2/3
f 261/2/3 259/2/3 258/2/3
f 262/2/3 259/2/3 261/2/3
f 266/2/3 264/2/3 263/2/3
f 267/2/3 266/2/3 265/2/3
f 268/2/3 264/2/3 266/2/3
f 268/2/3 266/2/3 267/2/3
f 269/2/4 270/2/4 271/2/4
f 271/2/4 270/2/4 272/2/4
f 273/3/4 274/3/4 277/3/4
f 274/2/4 275/2/4 278/2/4
f 277/3/4 274/3/4 278/3/4
f 278/2/4 275/2/4 279/2/4
f 276/2/4 277/2/4 280/2/4
f 280/2/4 277/2/4 281/2/4
f 282/3/4 283/3/4 286/3/4
f 283/2/4 284/2/4 287/2/4
f 286/3/4 283/3/4 287/3/4
f 287/2/4 284/2/4 288/2/4
f 285/2/4 286/2/4 289/2/4
f 289/2/4 286/2/4 290/2/4
f 291/3/4 292/3/4 295/3/4
f 292/2/4 293/2/4 296/2/4
f 295/3/4 292/3/4 296/3/4
f 296/2/4 293/2/4 297/2/4
f 294/2/4 295/2/4 298/2/4
f 298/2/4 295/2/4 299/2/4
f 300/3/4 301/3/4 305/3/4
f 301/2/4 302/2/4 306/2/4
f 305/3/4 301/3/4 306/3/4
f 306/2/4 302/2/4 307/2/4
f 303/3/4 304/3/4 309/3/4
f 304/2/4 305/2/4 310/2/4
f 309/3/4 304/3/4 310/3/4
f 310/2/4 305/2/4 311/2/4
f 308/2/4 309/2/4 312/2/4
f 312/2/4 309/2/4 313/2/4
f 314/2/4 315/2/4 316/2/4
f 316/2/4 315/2/4 317/2/4
f 318/3/4 319/3/4 323/3/4
f 319/2/4 320/2/4 324/2/4
f 323/3/4 319/3/4 324/3/4
f 324/2/4 320/2/4 325/2/4
f 321/3/4 322/3/4 326/3/4
f 322/2/4 323/2/4 327/2/4
f 326/3/4 322/3/4 327/3/4
f 327/2/4 323/2/4 328/2/4
f 329/2/4 330/2/4 331/2/4
f 331/2/4 330/2/4 332/2/4
f 333/3/4 334/3/4 336/3/4
f 334/2/4 335/2/4 337/2/4
f 336/3/4 334/3/4 337/3/4
f 337/2/4 335/2/4 338/2/4
f 339/2/4 340/2/4 341/2/4
f 341/2/4 340/2/4 342/2/4
f 342/2/4 340/2/4 343/2/4
f 343/2/4 340/2/4 344/2/4
f 347/2/5 346/2/5 345/2/5
f 349/2/5 347/2/5 345/2/5
f 349/2/5 348/2/5 347/2/5
f 350/2/5 348/2/5 349/2/5
f 351/2/5 349/2/5 345/2/5
f 352/2/5 349/2/5 351/2/5
f 353/2/5 349/2/5 352/2/5
f 354/2/5 349/2/5 353/2/5
f 355/2/5 349/2/5 354/2/5
f 356/2/5 349/2/5 355/2/5
f 357/2/5 349/2/5 356/2/5
f 358/2/5 349/2/5 357/2/5
f 361/3/5 360/3/5 359/3/5
f 362/3/5 360/3/5 361/3/5
f 364/3/5 363/3/5 362/3/5
f 365/3/5 363/3/5 364/3/5
f 367/3/5 366/3/5 365/3/5
f 368/3/5 366/3/5 367/3/5
f 370/3/5 369/3/5 368/3/5
f 371/3/5 369/3/5 370/3/5
f 373/3/5 372/3/5 371/3/5
f 374/3/5 372/3/5 373/3/5
f 377/3/5 376/3/5 375/3/5
f 379/3/5 377/3/5 375/3/5
f 379/3/5 378/3/5 377/3/5
f 380/3/5 378/3/5 379/3/5
f 382/3/5 381/3/5 380/3/5
f 383/3/5 381/3/5 382/3/5
f 385/3/5 384/3/5 383/3/5
f 386/3/5 384/3/5 385/3/5
f 389/2/5 388/2/5 387/2/5
f 390/2/5 388/2/5 389/2/5
f 391/2/5 388/2/5 390/2/5
f 393/2/5 392/2/5 391/2/5
f 393/2/5 391/2/5 390/2/5
f 394/2/5 392/2/5 393/2/5
f 395/2/5 392/2/5 394/2/5
f 397/2/5 396/2/5 395/2/5
f 397/2/5 395/2/5 394/2/5
f 398/2/5 396/2/5 397/2/5
f 401/2/5 400/2/5 399/2/5
f 403/2/5 401/2/5 399/2/5
f 403/2/5 402/2/5 401/2/5
f 404/2/5 402/2/5 403/2/5
f 405/2/6 406/2/6 407/2/6
f 405/2/6 407/2/6 409/2/6
f 407/2/6 408/2/6 409/2/6
f 409/2/6 408/2/6 410/2/6
f 405/2/6 409/2/6 411/2/6
f 411/2/6 409/2/6 412/2/6
f 412/2/6 409/2/6 413/2/6
f 413/2/6 409/2/6 414/2/6
f 414/2/6 409/2/6 415/2/6
f 415/2/6 409/2/6 416/2/6
f 417/2/6 418/2/6 419/2/6
f 419/2/6 418/2/6 420/2/6
f 420/2/6 418/2/6 421/2/6
f 421/2/6 418/2/6 422/2/6
f 422/2/6 423/2/6 424/2/6
f 424/2/6 423/2/6 425/2/6
f 425/2/6 426/2/6 427/2/6
f 427/2/6 426/2/6 428/2/6
f 428/2/6 429/2/6 430/2/6
f 430/2/6 429/2/6 431/2/6
f 432/2/6 433/2/6 434/2/6
f 434/2/6 433/2/6 435/2/6
f 435/2/6 433/2/6 436/2/6
f 436/2/6 437/2/6 438/2/6
f 436/2/6 438/2/6 440/2/6
f 438/2/6 439/2/6 440/2/6
f 440/2/6 439/2/6 441/2/6
f 441/2/6 439/2/6 442/2/6
f 442/2/6 443/2/6 444/2/6
f 441/2/6 442/2/6 444/2/6
f 444/2/6 443/2/6 445/2/6
f 445/2/6 446/2/6 447/2/6
f 447/2/6 446/2/6 448/2/6
f 449/2/6 450/2/6 451/2/6
f 451/2/6 450/2/6 452/2/6
f 452/2/6 453/2/6 454/2/6
f 454/2/6 453/2/6 455/2/6
f 455/2/6 456/2/6 457/2/6
f 457/2/6 456/2/6 458/2/6
f 458/2/6 459/2/6 460/2/6
f 460/2/6 459/2/6 461/2/6
f 462/2/6 463/2/6 464/2/6
f 464/2/6 465/2/6 466/2/6
f 462/2/6 464/2/6 468/2/6
f 466/2/6 467/2/6 468/2/6
f 464/2/6 466/2/6 468/2/6
f 468/2/6 467/2/6 469/2/6
f 469/2/6 467/2/6 470/2/6
f 471/2/6 472/2/6 473/2/6
f 473/2/6 472/2/6 474/2/6
f 475/2/6 476/2/6 477/2/6
f 477/2/6 476/2/6 478/2/6
f 478/2/6 476/2/6 479/2/6
f 479/2/6 480/2/6 481/2/6
f 478/2/6 479/2/6 481/2/6
f 481/2/6 480/2/6 482/2/6
