# MagicaVoxel @ Ephtracy

# material
mtllib Target_Oak_7.mtl
usemtl palette

# normals
vn -1 0 0
vn 1 0 0
vn 0 0 1
vn 0 0 -1
vn 0 -1 0
vn 0 1 0

# texcoords
vt 0.533203 0.5
vt 0.970703 0.5

# verts
v -7 5 7
v -7 5 6
v -7 6 7
v -7 6 6
v -7 8 8
v -7 8 7
v -7 12 8
v -7 12 7
v -7 14 7
v -7 14 6
v -6 2 6
v -6 2 5
v -6 3 6
v -6 3 5
v -6 5 6
v -6 5 5
v -6 6 6
v -6 6 5
v -6 8 9
v -6 8 8
v -6 8 6
v -6 8 5
v -6 12 9
v -6 12 8
v -6 12 6
v -6 12 5
v -6 14 6
v -6 14 5
v -5 0 6
v -5 0 3
v -5 1 4
v -5 1 3
v -5 2 7
v -5 2 6
v -5 2 5
v -5 2 4
v -5 3 7
v -5 3 6
v -5 3 5
v -5 3 4
v -5 5 8
v -5 5 7
v -5 5 6
v -5 5 5
v -5 5 4
v -5 6 8
v -5 6 7
v -5 8 8
v -5 8 7
v -5 12 8
v -5 12 7
v -5 14 8
v -5 14 7
v -4 0 3
v -4 0 2
v -4 1 3
v -4 1 2
v -4 8 10
v -4 8 9
v -4 12 10
v -4 12 9
v -3 0 7
v -3 0 6
v -3 0 2
v -3 0 1
v -3 1 2
v -3 1 1
v -3 2 8
v -3 2 7
v -3 2 6
v -3 3 8
v -3 3 7
v -3 5 9
v -3 5 8
v -3 5 7
v -3 6 9
v -3 6 8
v -3 8 9
v -3 8 8
v -3 12 9
v -3 12 8
v -3 14 9
v -3 14 8
v 3 8 8
v 3 8 7
v 3 11 8
v 3 11 7
v -5 5 6
v -5 5 5
v -5 6 6
v -5 6 5
v -5 8 7
v -5 8 6
v -5 8 5
v -5 12 7
v -5 12 6
v -5 12 5
v -5 14 6
v -5 14 5
v -4 2 5
v -4 2 4
v -4 3 5
v -4 3 4
v -4 5 5
v -4 5 4
v -3 1 5
v -3 1 4
v -3 2 6
v -3 2 5
v -3 2 4
v -3 3 6
v -3 3 5
v -3 5 7
v -3 5 6
v -3 5 5
v -3 6 7
v -3 6 6
v -3 8 8
v -3 8 7
v -3 8 6
v -3 12 8
v -3 12 7
v -3 12 6
v -3 14 7
v -3 14 6
v 0 0 7
v 0 0 1
v 0 1 5
v 0 1 1
v 0 2 7
v 0 2 6
v 0 2 5
v 0 3 7
v 0 3 6
v 0 5 7
v 0 5 6
v 1 11 10
v 1 11 8
v 1 12 10
v 1 12 9
v 1 12 8
v 1 12 7
v 1 14 9
v 1 14 7
v 3 2 8
v 3 2 7
v 3 3 8
v 3 3 7
v 3 5 9
v 3 5 8
v 3 5 7
v 3 6 9
v 3 6 8
v 3 8 9
v 3 8 8
v 4 8 10
v 4 8 9
v 4 11 10
v 4 11 9
v 5 5 8
v 5 5 7
v 5 6 8
v 5 6 7
v 5 8 8
v 5 8 7
v 6 8 9
v 6 8 8
v 6 11 9
v 6 11 8
v 7 8 8
v 7 8 7
v 7 11 8
v 7 11 7
v -4 8 10
v -4 12 10
v 1 11 10
v 1 12 10
v 4 8 10
v 4 11 10
v -6 8 9
v -6 12 9
v -4 8 9
v -4 12 9
v -3 5 9
v -3 6 9
v -3 8 9
v -3 12 9
v -3 14 9
v 1 12 9
v 1 14 9
v 3 5 9
v 3 6 9
v 3 8 9
v 4 8 9
v 4 11 9
v 6 8 9
v 6 11 9
v -7 8 8
v -7 12 8
v -6 8 8
v -6 12 8
v -5 5 8
v -5 6 8
v -5 8 8
v -5 12 8
v -5 14 8
v -3 2 8
v -3 3 8
v -3 5 8
v -3 6 8
v -3 8 8
v -3 12 8
v -3 14 8
v 3 2 8
v 3 3 8
v 3 5 8
v 3 6 8
v 3 8 8
v 5 5 8
v 5 6 8
v 5 8 8
v 6 8 8
v 6 11 8
v 7 8 8
v 7 11 8
v -7 5 7
v -7 6 7
v -7 8 7
v -7 12 7
v -7 14 7
v -5 2 7
v -5 3 7
v -5 5 7
v -5 6 7
v -5 8 7
v -5 12 7
v -5 14 7
v -3 0 7
v -3 2 7
v -3 3 7
v -3 5 7
v 0 0 7
v 0 2 7
v -6 2 6
v -6 3 6
v -6 5 6
v -5 0 6
v -5 2 6
v -5 3 6
v -5 5 6
v -3 0 6
v -3 2 6
v -3 8 8
v -3 12 8
v 1 11 8
v 1 12 8
v 3 8 8
v 3 11 8
v -5 8 7
v -5 12 7
v -3 5 7
v -3 6 7
v -3 8 7
v -3 12 7
v -3 14 7
v 0 2 7
v 0 3 7
v 0 5 7
v 1 12 7
v 1 14 7
v 3 2 7
v 3 3 7
v 3 5 7
v 3 8 7
v 3 11 7
v 5 5 7
v 5 6 7
v 5 8 7
v 7 8 7
v 7 11 7
v -7 5 6
v -7 6 6
v -7 14 6
v -6 5 6
v -6 6 6
v -6 8 6
v -6 12 6
v -6 14 6
v -5 5 6
v -5 6 6
v -5 8 6
v -5 12 6
v -5 14 6
v -3 2 6
v -3 3 6
v -3 5 6
v -3 6 6
v -3 8 6
v -3 12 6
v -3 14 6
v 0 2 6
v 0 3 6
v 0 5 6
v -6 2 5
v -6 3 5
v -6 5 5
v -6 6 5
v -6 8 5
v -6 12 5
v -6 14 5
v -5 2 5
v -5 3 5
v -5 5 5
v -5 6 5
v -5 8 5
v -5 12 5
v -5 14 5
v -4 2 5
v -4 3 5
v -4 5 5
v -3 1 5
v -3 2 5
v -3 3 5
v -3 5 5
v 0 1 5
v 0 2 5
v -5 1 4
v -5 2 4
v -5 3 4
v -5 5 4
v -4 2 4
v -4 3 4
v -4 5 4
v -3 1 4
v -3 2 4
v -5 0 3
v -5 1 3
v -4 0 3
v -4 1 3
v -4 0 2
v -4 1 2
v -3 0 2
v -3 1 2
v -3 0 1
v -3 1 1
v 0 0 1
v 0 1 1
v -3 0 7
v 0 0 7
v -5 0 6
v -3 0 6
v -5 0 3
v -4 0 3
v -4 0 2
v -3 0 2
v -3 0 1
v 0 0 1
v -3 2 8
v 3 2 8
v -5 2 7
v -3 2 7
v 0 2 7
v 3 2 7
v -6 2 6
v -5 2 6
v -3 2 6
v -6 2 5
v -5 2 5
v -3 5 9
v 3 5 9
v -5 5 8
v -3 5 8
v 3 5 8
v 5 5 8
v -7 5 7
v -5 5 7
v -3 5 7
v 3 5 7
v 5 5 7
v -7 5 6
v -6 5 6
v -5 5 6
v -4 8 10
v 4 8 10
v -6 8 9
v -4 8 9
v -3 8 9
v 3 8 9
v 4 8 9
v 6 8 9
v -7 8 8
v -6 8 8
v -5 8 8
v -3 8 8
v 3 8 8
v 5 8 8
v 6 8 8
v 7 8 8
v -7 8 7
v -5 8 7
v 5 8 7
v 7 8 7
v -3 12 8
v 1 12 8
v -5 12 7
v -3 12 7
v 1 12 7
v -6 12 6
v -5 12 6
v -3 12 6
v -6 12 5
v -5 12 5
v -3 1 5
v 0 1 5
v -5 1 4
v -3 1 4
v -5 1 3
v -4 1 3
v -4 1 2
v -3 1 2
v -3 1 1
v 0 1 1
v -3 2 6
v 0 2 6
v -4 2 5
v -3 2 5
v 0 2 5
v -4 2 4
v -3 2 4
v -3 5 7
v 0 5 7
v -5 5 6
v -3 5 6
v 0 5 6
v -5 5 5
v -4 5 5
v -3 5 5
v -5 5 4
v -4 5 4
v -3 8 8
v 3 8 8
v -5 8 7
v -3 8 7
v 3 8 7
v -6 8 6
v -5 8 6
v -3 8 6
v -6 8 5
v -5 8 5
v 1 11 10
v 4 11 10
v 4 11 9
v 6 11 9
v 1 11 8
v 3 11 8
v 6 11 8
v 7 11 8
v 3 11 7
v 7 11 7
v -4 12 10
v 1 12 10
v -6 12 9
v -4 12 9
v -3 12 9
v 1 12 9
v -7 12 8
v -6 12 8
v -5 12 8
v -3 12 8
v -7 12 7
v -5 12 7
v -3 14 9
v 1 14 9
v -5 14 8
v -3 14 8
v -7 14 7
v -5 14 7
v -3 14 7
v 1 14 7
v -7 14 6
v -6 14 6
v -5 14 6
v -3 14 6
v -6 14 5
v -5 14 5

# faces
f 3/2/1 2/2/1 1/2/1
f 4/2/1 2/2/1 3/2/1
f 6/1/1 4/1/1 3/1/1
f 7/1/1 6/1/1 5/1/1
f 8/1/1 4/1/1 6/1/1
f 8/1/1 6/1/1 7/1/1
f 9/1/1 4/1/1 8/1/1
f 10/1/1 4/1/1 9/1/1
f 13/2/1 12/2/1 11/2/1
f 14/2/1 12/2/1 13/2/1
f 15/1/1 14/1/1 13/1/1
f 16/1/1 14/1/1 15/1/1
f 17/2/1 16/2/1 15/2/1
f 18/2/1 16/2/1 17/2/1
f 21/1/1 18/1/1 17/1/1
f 22/1/1 18/1/1 21/1/1
f 23/1/1 20/1/1 19/1/1
f 24/1/1 20/1/1 23/1/1
f 27/1/1 26/1/1 25/1/1
f 28/1/1 26/1/1 27/1/1
f 31/1/1 30/1/1 29/1/1
f 32/1/1 30/1/1 31/1/1
f 34/1/1 31/1/1 29/1/1
f 35/1/1 31/1/1 34/1/1
f 36/1/1 31/1/1 35/1/1
f 37/2/1 34/2/1 33/2/1
f 38/2/1 34/2/1 37/2/1
f 39/2/1 36/2/1 35/2/1
f 40/2/1 36/2/1 39/2/1
f 42/1/1 38/1/1 37/1/1
f 43/1/1 38/1/1 42/1/1
f 44/1/1 40/1/1 39/1/1
f 45/1/1 40/1/1 44/1/1
f 46/2/1 42/2/1 41/2/1
f 47/2/1 42/2/1 46/2/1
f 48/1/1 47/1/1 46/1/1
f 49/1/1 47/1/1 48/1/1
f 52/1/1 51/1/1 50/1/1
f 53/1/1 51/1/1 52/1/1
f 56/1/1 55/1/1 54/1/1
f 57/1/1 55/1/1 56/1/1
f 60/1/1 59/1/1 58/1/1
f 61/1/1 59/1/1 60/1/1
f 66/1/1 65/1/1 64/1/1
f 67/1/1 65/1/1 66/1/1
f 69/1/1 63/1/1 62/1/1
f 70/1/1 63/1/1 69/1/1
f 71/2/1 69/2/1 68/2/1
f 72/2/1 69/2/1 71/2/1
f 74/1/1 72/1/1 71/1/1
f 75/1/1 72/1/1 74/1/1
f 76/2/1 74/2/1 73/2/1
f 77/2/1 74/2/1 76/2/1
f 78/1/1 77/1/1 76/1/1
f 79/1/1 77/1/1 78/1/1
f 82/1/1 81/1/1 80/1/1
f 83/1/1 81/1/1 82/1/1
f 86/1/1 85/1/1 84/1/1
f 87/1/1 85/1/1 86/1/1
f 88/2/2 89/2/2 90/2/2
f 90/2/2 89/2/2 91/2/2
f 90/1/2 91/1/2 93/1/2
f 93/1/2 91/1/2 94/1/2
f 92/1/2 93/1/2 95/1/2
f 95/1/2 93/1/2 96/1/2
f 96/1/2 97/1/2 98/1/2
f 98/1/2 97/1/2 99/1/2
f 100/2/2 101/2/2 102/2/2
f 102/2/2 101/2/2 103/2/2
f 102/1/2 103/1/2 104/1/2
f 104/1/2 103/1/2 105/1/2
f 106/1/2 107/1/2 109/1/2
f 109/1/2 107/1/2 110/1/2
f 108/2/2 109/2/2 111/2/2
f 111/2/2 109/2/2 112/2/2
f 111/1/2 112/1/2 114/1/2
f 114/1/2 112/1/2 115/1/2
f 113/2/2 114/2/2 116/2/2
f 116/2/2 114/2/2 117/2/2
f 116/1/2 117/1/2 119/1/2
f 119/1/2 117/1/2 120/1/2
f 118/1/2 119/1/2 121/1/2
f 121/1/2 119/1/2 122/1/2
f 122/1/2 123/1/2 124/1/2
f 124/1/2 123/1/2 125/1/2
f 126/1/2 127/1/2 128/1/2
f 128/1/2 127/1/2 129/1/2
f 126/1/2 128/1/2 130/1/2
f 130/1/2 128/1/2 131/1/2
f 131/1/2 128/1/2 132/1/2
f 130/2/2 131/2/2 133/2/2
f 133/2/2 131/2/2 134/2/2
f 133/1/2 134/1/2 135/1/2
f 135/1/2 134/1/2 136/1/2
f 137/1/2 138/1/2 139/1/2
f 139/1/2 138/1/2 140/1/2
f 140/1/2 138/1/2 141/1/2
f 141/1/2 142/1/2 143/1/2
f 140/1/2 141/1/2 143/1/2
f 143/1/2 142/1/2 144/1/2
f 145/2/2 146/2/2 147/2/2
f 147/2/2 146/2/2 148/2/2
f 147/1/2 148/1/2 150/1/2
f 150/1/2 148/1/2 151/1/2
f 149/2/2 150/2/2 152/2/2
f 152/2/2 150/2/2 153/2/2
f 152/1/2 153/1/2 154/1/2
f 154/1/2 153/1/2 155/1/2
f 156/1/2 157/1/2 158/1/2
f 158/1/2 157/1/2 159/1/2
f 160/2/2 161/2/2 162/2/2
f 162/2/2 161/2/2 163/2/2
f 162/1/2 163/1/2 164/1/2
f 164/1/2 163/1/2 165/1/2
f 166/1/2 167/1/2 168/1/2
f 168/1/2 167/1/2 169/1/2
f 170/1/2 171/1/2 172/1/2
f 172/1/2 171/1/2 173/1/2
f 176/1/3 175/1/3 174/1/3
f 177/1/3 175/1/3 176/1/3
f 178/1/3 176/1/3 174/1/3
f 179/1/3 176/1/3 178/1/3
f 182/1/3 181/1/3 180/1/3
f 183/1/3 181/1/3 182/1/3
f 189/1/3 188/1/3 187/1/3
f 190/1/3 188/1/3 189/1/3
f 191/2/3 185/2/3 184/2/3
f 192/1/3 186/1/3 185/1/3
f 192/2/3 185/2/3 191/2/3
f 193/1/3 186/1/3 192/1/3
f 196/1/3 195/1/3 194/1/3
f 197/1/3 195/1/3 196/1/3
f 200/1/3 199/1/3 198/1/3
f 201/1/3 199/1/3 200/1/3
f 209/2/3 203/2/3 202/2/3
f 210/1/3 204/1/3 203/1/3
f 210/2/3 203/2/3 209/2/3
f 211/1/3 204/1/3 210/1/3
f 212/1/3 206/1/3 205/1/3
f 213/1/3 206/1/3 212/1/3
f 214/2/3 208/2/3 207/2/3
f 215/1/3 209/1/3 208/1/3
f 215/2/3 208/2/3 214/2/3
f 216/1/3 209/1/3 215/1/3
f 219/2/3 217/2/3 216/2/3
f 220/1/3 218/1/3 217/1/3
f 220/2/3 217/2/3 219/2/3
f 221/1/3 218/1/3 220/1/3
f 224/1/3 223/1/3 222/1/3
f 225/1/3 223/1/3 224/1/3
f 233/2/3 227/2/3 226/2/3
f 234/1/3 228/1/3 227/1/3
f 234/2/3 227/2/3 233/2/3
f 235/1/3 228/1/3 234/1/3
f 236/1/3 230/1/3 229/1/3
f 237/1/3 230/1/3 236/1/3
f 239/2/3 232/2/3 231/2/3
f 240/1/3 233/1/3 232/1/3
f 240/2/3 232/2/3 239/2/3
f 241/1/3 233/1/3 240/1/3
f 242/1/3 239/1/3 238/1/3
f 243/1/3 239/1/3 242/1/3
f 248/2/3 245/2/3 244/2/3
f 249/1/3 246/1/3 245/1/3
f 249/2/3 245/2/3 248/2/3
f 250/1/3 246/1/3 249/1/3
f 251/1/3 248/1/3 247/1/3
f 252/1/3 248/1/3 251/1/3
f 253/1/4 254/1/4 255/1/4
f 255/1/4 254/1/4 256/1/4
f 253/1/4 255/1/4 257/1/4
f 257/1/4 255/1/4 258/1/4
f 259/1/4 260/1/4 263/1/4
f 263/1/4 260/1/4 264/1/4
f 261/2/4 262/2/4 268/2/4
f 264/1/4 265/1/4 269/1/4
f 269/1/4 265/1/4 270/1/4
f 266/2/4 267/2/4 271/2/4
f 267/1/4 268/1/4 272/1/4
f 271/2/4 267/2/4 272/2/4
f 268/2/4 262/2/4 273/2/4
f 272/1/4 268/1/4 273/1/4
f 262/1/4 263/1/4 274/1/4
f 273/2/4 262/2/4 276/2/4
f 274/1/4 275/1/4 277/1/4
f 276/2/4 262/2/4 277/2/4
f 262/1/4 274/1/4 277/1/4
f 277/1/4 275/1/4 278/1/4
f 278/1/4 275/1/4 279/1/4
f 279/1/4 275/1/4 280/1/4
f 281/2/4 282/2/4 284/2/4
f 282/1/4 283/1/4 285/1/4
f 284/2/4 282/2/4 285/2/4
f 285/1/4 283/1/4 286/1/4
f 286/1/4 283/1/4 287/1/4
f 287/1/4 283/1/4 288/1/4
f 286/1/4 287/1/4 291/1/4
f 291/1/4 287/1/4 292/1/4
f 289/2/4 290/2/4 296/2/4
f 290/1/4 291/1/4 297/1/4
f 296/2/4 290/2/4 297/2/4
f 297/1/4 291/1/4 298/1/4
f 292/1/4 293/1/4 299/1/4
f 299/1/4 293/1/4 300/1/4
f 294/2/4 295/2/4 301/2/4
f 295/1/4 296/1/4 302/1/4
f 301/2/4 295/2/4 302/2/4
f 302/1/4 296/1/4 303/1/4
f 304/2/4 305/2/4 311/2/4
f 305/1/4 306/1/4 312/1/4
f 311/2/4 305/2/4 312/2/4
f 306/2/4 307/2/4 313/2/4
f 312/1/4 306/1/4 313/1/4
f 307/1/4 308/1/4 314/1/4
f 313/2/4 307/2/4 314/2/4
f 314/1/4 308/1/4 315/1/4
f 309/1/4 310/1/4 316/1/4
f 316/1/4 310/1/4 317/1/4
f 318/2/4 319/2/4 322/2/4
f 319/1/4 320/1/4 323/1/4
f 322/2/4 319/2/4 323/2/4
f 323/1/4 320/1/4 324/1/4
f 321/1/4 322/1/4 325/1/4
f 325/1/4 322/1/4 326/1/4
f 327/1/4 328/1/4 331/1/4
f 328/2/4 329/2/4 331/2/4
f 329/1/4 330/1/4 332/1/4
f 331/2/4 329/2/4 332/2/4
f 332/1/4 330/1/4 333/1/4
f 327/1/4 331/1/4 334/1/4
f 334/1/4 331/1/4 335/1/4
f 336/1/4 337/1/4 338/1/4
f 338/1/4 337/1/4 339/1/4
f 340/1/4 341/1/4 342/1/4
f 342/1/4 341/1/4 343/1/4
f 344/1/4 345/1/4 346/1/4
f 346/1/4 345/1/4 347/1/4
f 351/1/5 349/1/5 348/1/5
f 352/1/5 351/1/5 350/1/5
f 353/1/5 351/1/5 352/1/5
f 354/1/5 351/1/5 353/1/5
f 355/1/5 349/1/5 351/1/5
f 355/1/5 351/1/5 354/1/5
f 356/1/5 349/1/5 355/1/5
f 357/1/5 349/1/5 356/1/5
f 361/2/5 359/2/5 358/2/5
f 362/2/5 359/2/5 361/2/5
f 363/2/5 359/2/5 362/2/5
f 365/2/5 361/2/5 360/2/5
f 366/2/5 361/2/5 365/2/5
f 367/2/5 365/2/5 364/2/5
f 368/2/5 365/2/5 367/2/5
f 372/2/5 370/2/5 369/2/5
f 373/2/5 370/2/5 372/2/5
f 376/2/5 372/2/5 371/2/5
f 377/2/5 372/2/5 376/2/5
f 378/2/5 374/2/5 373/2/5
f 379/2/5 374/2/5 378/2/5
f 380/2/5 376/2/5 375/2/5
f 381/2/5 376/2/5 380/2/5
f 382/2/5 376/2/5 381/2/5
f 386/1/5 384/1/5 383/1/5
f 387/1/5 384/1/5 386/1/5
f 388/1/5 384/1/5 387/1/5
f 389/1/5 384/1/5 388/1/5
f 392/1/5 386/1/5 385/1/5
f 392/1/5 387/1/5 386/1/5
f 393/1/5 387/1/5 392/1/5
f 394/1/5 387/1/5 393/1/5
f 395/1/5 389/1/5 388/1/5
f 395/1/5 390/1/5 389/1/5
f 396/1/5 390/1/5 395/1/5
f 397/1/5 390/1/5 396/1/5
f 399/1/5 393/1/5 392/1/5
f 399/1/5 392/1/5 391/1/5
f 400/1/5 393/1/5 399/1/5
f 401/1/5 398/1/5 397/1/5
f 401/1/5 397/1/5 396/1/5
f 402/1/5 398/1/5 401/1/5
f 406/1/5 404/1/5 403/1/5
f 407/1/5 404/1/5 406/1/5
f 409/1/5 406/1/5 405/1/5
f 410/1/5 406/1/5 409/1/5
f 411/1/5 409/1/5 408/1/5
f 412/1/5 409/1/5 411/1/5
f 413/1/6 414/1/6 416/1/6
f 415/1/6 416/1/6 417/1/6
f 417/1/6 416/1/6 418/1/6
f 418/1/6 416/1/6 419/1/6
f 416/1/6 414/1/6 420/1/6
f 419/1/6 416/1/6 420/1/6
f 420/1/6 414/1/6 421/1/6
f 421/1/6 414/1/6 422/1/6
f 423/1/6 424/1/6 426/1/6
f 426/1/6 424/1/6 427/1/6
f 425/1/6 426/1/6 428/1/6
f 428/1/6 426/1/6 429/1/6
f 430/1/6 431/1/6 433/1/6
f 433/1/6 431/1/6 434/1/6
f 432/1/6 433/1/6 435/1/6
f 435/1/6 433/1/6 436/1/6
f 436/1/6 433/1/6 437/1/6
f 435/1/6 436/1/6 438/1/6
f 438/1/6 436/1/6 439/1/6
f 440/1/6 441/1/6 443/1/6
f 443/1/6 441/1/6 444/1/6
f 442/1/6 443/1/6 446/1/6
f 446/1/6 443/1/6 447/1/6
f 445/1/6 446/1/6 448/1/6
f 448/1/6 446/1/6 449/1/6
f 450/1/6 451/1/6 452/1/6
f 450/1/6 452/1/6 454/1/6
f 452/1/6 453/1/6 454/1/6
f 454/1/6 453/1/6 455/1/6
f 455/1/6 453/1/6 456/1/6
f 456/1/6 457/1/6 458/1/6
f 455/1/6 456/1/6 458/1/6
f 458/1/6 457/1/6 459/1/6
f 460/1/6 461/1/6 463/1/6
f 463/1/6 461/1/6 464/1/6
f 464/1/6 461/1/6 465/1/6
f 462/1/6 463/1/6 467/1/6
f 463/1/6 464/1/6 467/1/6
f 467/1/6 464/1/6 468/1/6
f 468/1/6 464/1/6 469/1/6
f 466/1/6 467/1/6 470/1/6
f 467/1/6 468/1/6 470/1/6
f 470/1/6 468/1/6 471/1/6
f 472/1/6 473/1/6 475/1/6
f 474/1/6 475/1/6 477/1/6
f 475/1/6 473/1/6 478/1/6
f 477/1/6 475/1/6 478/1/6
f 478/1/6 473/1/6 479/1/6
f 476/1/6 477/1/6 480/1/6
f 477/1/6 478/1/6 480/1/6
f 480/1/6 478/1/6 481/1/6
f 481/1/6 478/1/6 482/1/6
f 482/1/6 478/1/6 483/1/6
f 481/1/6 482/1/6 484/1/6
f 484/1/6 482/1/6 485/1/6
