# MagicaVoxel @ Ephtracy

# material
mtllib Target_Oak_3.mtl
usemtl palette

# normals
vn -1 0 0
vn 1 0 0
vn 0 0 1
vn 0 0 -1
vn 0 -1 0
vn 0 1 0

# texcoords
vt 0.533203 0.5
vt 0.970703 0.5

# verts
v -10 9 -3
v -10 9 -4
v -10 12 -3
v -10 12 -4
v -9 9 -4
v -9 9 -6
v -9 12 -4
v -9 12 -6
v -8 9 -6
v -8 9 -7
v -8 12 -3
v -8 12 -5
v -8 12 -6
v -8 12 -7
v -8 14 -3
v -8 14 -5
v -8 15 -3
v -8 15 -5
v -7 9 -7
v -7 9 -8
v -7 12 -5
v -7 12 -7
v -7 12 -8
v -7 14 -5
v -7 14 -7
v -7 15 -3
v -7 15 -5
v -7 15 -7
v -7 17 -3
v -7 17 -5
v -7 18 -3
v -7 18 -5
v -6 15 -5
v -6 15 -6
v -6 17 -5
v -6 17 -6
v -6 18 -2
v -6 18 -3
v -6 18 -5
v -6 18 -6
v -6 20 -2
v -6 20 -5
v -5 12 -7
v -5 12 -8
v -5 14 -7
v -5 14 -8
v -5 15 -6
v -5 15 -7
v -5 15 -8
v -5 17 -6
v -5 17 -7
v -5 18 -5
v -5 18 -6
v -5 18 -7
v -5 20 -5
v -5 20 -6
v -3 12 -8
v -3 12 -9
v -3 14 -8
v -3 14 -9
v -3 15 -7
v -3 15 -8
v -3 15 -9
v -3 17 -7
v -3 17 -8
v -3 18 -6
v -3 18 -7
v -3 18 -8
v -3 19 -1
v -3 19 -2
v -3 20 -1
v -3 20 -2
v -3 20 -6
v -3 20 -7
v -1 19 1
v -1 19 -1
v -1 20 1
v -1 20 -1
v -7 9 -3
v -7 9 -5
v -7 12 -3
v -7 12 -5
v -6 9 -5
v -6 9 -6
v -6 12 -3
v -6 12 -5
v -6 12 -6
v -6 14 -3
v -6 14 -5
v -6 15 -3
v -6 15 -5
v -5 9 -6
v -5 9 -7
v -5 12 -5
v -5 12 -6
v -5 12 -7
v -5 14 -5
v -5 14 -6
v -5 15 -3
v -5 15 -4
v -5 15 -5
v -5 15 -6
v -5 17 -3
v -5 17 -4
v -5 18 -2
v -5 18 -3
v -5 18 -4
v -5 19 -2
v -5 19 -3
v -4 15 -4
v -4 15 -5
v -4 17 -4
v -4 17 -5
v -4 18 -3
v -4 18 -4
v -4 18 -5
v -4 19 -3
v -4 19 -4
v -3 9 -7
v -3 9 -8
v -3 12 -6
v -3 12 -7
v -3 12 -8
v -3 14 -6
v -3 14 -7
v -3 15 -5
v -3 15 -6
v -3 15 -7
v -3 17 -5
v -3 17 -6
v -3 18 -4
v -3 18 -5
v -3 18 -6
v -3 19 -4
v -3 19 -5
v 1 12 -7
v 1 12 -9
v 1 14 -7
v 1 14 -9
v 1 15 -6
v 1 15 -7
v 1 15 -8
v 1 15 -9
v 1 17 -6
v 1 17 -8
v 1 18 -5
v 1 18 -6
v 1 18 -7
v 1 18 -8
v 1 19 -2
v 1 19 -5
v 1 20 -2
v 1 20 -7
v 2 19 -1
v 2 19 -2
v 2 20 -1
v 2 20 -2
v 3 19 1
v 3 19 -1
v 3 20 1
v 3 20 -1
v -1 19 1
v -1 20 1
v 3 19 1
v 3 20 1
v -3 19 -1
v -3 20 -1
v -1 19 -1
v -1 20 -1
v -6 18 -2
v -6 20 -2
v -5 18 -2
v -5 19 -2
v -3 19 -2
v -3 20 -2
v -10 9 -3
v -10 12 -3
v -8 12 -3
v -8 14 -3
v -8 15 -3
v -7 9 -3
v -7 12 -3
v -7 15 -3
v -7 17 -3
v -7 18 -3
v -6 12 -3
v -6 14 -3
v -6 15 -3
v -6 18 -3
v -5 15 -3
v -5 17 -3
v -5 18 -3
v -5 19 -3
v -4 18 -3
v -4 19 -3
v -5 15 -4
v -5 17 -4
v -5 18 -4
v -4 15 -4
v -4 17 -4
v -4 18 -4
v -4 19 -4
v -3 18 -4
v -3 19 -4
v -7 9 -5
v -7 12 -5
v -6 9 -5
v -6 12 -5
v -6 14 -5
v -6 15 -5
v -5 12 -5
v -5 14 -5
v -5 15 -5
v -4 15 -5
v -4 17 -5
v -4 18 -5
v -3 15 -5
v -3 17 -5
v -3 18 -5
v -3 19 -5
v 1 18 -5
v 1 19 -5
v -6 9 -6
v -6 12 -6
v -5 9 -6
v -5 12 -6
v -5 14 -6
v -5 15 -6
v -3 12 -6
v -3 14 -6
v -3 15 -6
v -3 17 -6
v -3 18 -6
v 1 15 -6
v 1 17 -6
v 1 18 -6
v -5 9 -7
v -5 12 -7
v -3 9 -7
v -3 12 -7
v -3 14 -7
v -3 15 -7
v 1 12 -7
v 1 14 -7
v 1 15 -7
v 2 19 -1
v 2 20 -1
v 3 19 -1
v 3 20 -1
v 1 19 -2
v 1 20 -2
v 2 19 -2
v 2 20 -2
v -10 9 -4
v -10 12 -4
v -9 9 -4
v -9 12 -4
v -8 12 -5
v -8 14 -5
v -8 15 -5
v -7 12 -5
v -7 14 -5
v -7 15 -5
v -7 17 -5
v -7 18 -5
v -6 15 -5
v -6 17 -5
v -6 18 -5
v -6 20 -5
v -5 18 -5
v -5 20 -5
v -9 9 -6
v -9 12 -6
v -8 9 -6
v -8 12 -6
v -6 15 -6
v -6 17 -6
v -6 18 -6
v -5 15 -6
v -5 17 -6
v -5 18 -6
v -5 20 -6
v -3 18 -6
v -3 20 -6
v -8 9 -7
v -8 12 -7
v -7 9 -7
v -7 12 -7
v -7 14 -7
v -7 15 -7
v -5 12 -7
v -5 14 -7
v -5 15 -7
v -5 17 -7
v -5 18 -7
v -3 15 -7
v -3 17 -7
v -3 18 -7
v -3 20 -7
v 1 18 -7
v 1 20 -7
v -7 9 -8
v -7 12 -8
v -5 12 -8
v -5 14 -8
v -5 15 -8
v -3 9 -8
v -3 12 -8
v -3 14 -8
v -3 15 -8
v -3 17 -8
v -3 18 -8
v 1 15 -8
v 1 17 -8
v 1 18 -8
v -3 12 -9
v -3 14 -9
v -3 15 -9
v 1 12 -9
v 1 14 -9
v 1 15 -9
v -10 9 -3
v -7 9 -3
v -10 9 -4
v -9 9 -4
v -7 9 -5
v -6 9 -5
v -9 9 -6
v -8 9 -6
v -6 9 -6
v -5 9 -6
v -8 9 -7
v -7 9 -7
v -5 9 -7
v -3 9 -7
v -7 9 -8
v -3 9 -8
v -7 12 -3
v -6 12 -3
v -7 12 -5
v -6 12 -5
v -5 12 -5
v -6 12 -6
v -5 12 -6
v -3 12 -6
v -5 12 -7
v -3 12 -7
v 1 12 -7
v -3 12 -8
v -3 12 -9
v 1 12 -9
v -6 15 -3
v -5 15 -3
v -5 15 -4
v -4 15 -4
v -6 15 -5
v -5 15 -5
v -4 15 -5
v -3 15 -5
v -5 15 -6
v -3 15 -6
v 1 15 -6
v -3 15 -7
v 1 15 -7
v -6 18 -2
v -5 18 -2
v -6 18 -3
v -5 18 -3
v -4 18 -3
v -5 18 -4
v -4 18 -4
v -3 18 -4
v -4 18 -5
v -3 18 -5
v 1 18 -5
v -3 18 -6
v 1 18 -6
v -1 19 1
v 3 19 1
v -3 19 -1
v -1 19 -1
v 2 19 -1
v 3 19 -1
v -5 19 -2
v -3 19 -2
v 1 19 -2
v 2 19 -2
v -5 19 -3
v -4 19 -3
v -4 19 -4
v -3 19 -4
v -3 19 -5
v 1 19 -5
v -10 12 -3
v -8 12 -3
v -10 12 -4
v -9 12 -4
v -8 12 -5
v -7 12 -5
v -9 12 -6
v -8 12 -6
v -8 12 -7
v -7 12 -7
v -5 12 -7
v -7 12 -8
v -5 12 -8
v -8 15 -3
v -7 15 -3
v -8 15 -5
v -7 15 -5
v -6 15 -5
v -6 15 -6
v -5 15 -6
v -7 15 -7
v -5 15 -7
v -3 15 -7
v -5 15 -8
v -3 15 -8
v 1 15 -8
v -3 15 -9
v 1 15 -9
v -7 18 -3
v -6 18 -3
v -7 18 -5
v -6 18 -5
v -5 18 -5
v -6 18 -6
v -5 18 -6
v -3 18 -6
v -5 18 -7
v -3 18 -7
v 1 18 -7
v -3 18 -8
v 1 18 -8
v -1 20 1
v 3 20 1
v -3 20 -1
v -1 20 -1
v 2 20 -1
v 3 20 -1
v -6 20 -2
v -3 20 -2
v 1 20 -2
v 2 20 -2
v -6 20 -5
v -5 20 -5
v -5 20 -6
v -3 20 -6
v -3 20 -7
v 1 20 -7

# faces
f 3/1/1 2/1/1 1/1/1
f 4/1/1 2/1/1 3/1/1
f 7/1/1 6/1/1 5/1/1
f 8/1/1 6/1/1 7/1/1
f 13/1/1 10/1/1 9/1/1
f 14/1/1 10/1/1 13/1/1
f 15/1/1 12/1/1 11/1/1
f 16/1/1 12/1/1 15/1/1
f 17/2/1 16/2/1 15/2/1
f 18/2/1 16/2/1 17/2/1
f 22/1/1 20/1/1 19/1/1
f 23/1/1 20/1/1 22/1/1
f 24/1/1 22/1/1 21/1/1
f 25/1/1 22/1/1 24/1/1
f 27/2/1 25/2/1 24/2/1
f 28/2/1 25/2/1 27/2/1
f 29/1/1 27/1/1 26/1/1
f 30/1/1 27/1/1 29/1/1
f 31/2/1 30/2/1 29/2/1
f 32/2/1 30/2/1 31/2/1
f 35/1/1 34/1/1 33/1/1
f 36/1/1 34/1/1 35/1/1
f 39/2/1 36/2/1 35/2/1
f 40/2/1 36/2/1 39/2/1
f 41/1/1 38/1/1 37/1/1
f 41/1/1 39/1/1 38/1/1
f 42/1/1 39/1/1 41/1/1
f 45/1/1 44/1/1 43/1/1
f 46/1/1 44/1/1 45/1/1
f 48/2/1 46/2/1 45/2/1
f 49/2/1 46/2/1 48/2/1
f 50/1/1 48/1/1 47/1/1
f 51/1/1 48/1/1 50/1/1
f 53/2/1 51/2/1 50/2/1
f 54/2/1 51/2/1 53/2/1
f 55/1/1 53/1/1 52/1/1
f 56/1/1 53/1/1 55/1/1
f 59/1/1 58/1/1 57/1/1
f 60/1/1 58/1/1 59/1/1
f 62/2/1 60/2/1 59/2/1
f 63/2/1 60/2/1 62/2/1
f 64/1/1 62/1/1 61/1/1
f 65/1/1 62/1/1 64/1/1
f 67/2/1 65/2/1 64/2/1
f 68/2/1 65/2/1 67/2/1
f 71/1/1 70/1/1 69/1/1
f 72/1/1 70/1/1 71/1/1
f 73/1/1 67/1/1 66/1/1
f 74/1/1 67/1/1 73/1/1
f 77/1/1 76/1/1 75/1/1
f 78/1/1 76/1/1 77/1/1
f 79/1/2 80/1/2 81/1/2
f 81/1/2 80/1/2 82/1/2
f 83/1/2 84/1/2 86/1/2
f 86/1/2 84/1/2 87/1/2
f 85/1/2 86/1/2 88/1/2
f 88/1/2 86/1/2 89/1/2
f 88/2/2 89/2/2 90/2/2
f 90/2/2 89/2/2 91/2/2
f 92/1/2 93/1/2 95/1/2
f 95/1/2 93/1/2 96/1/2
f 94/1/2 95/1/2 97/1/2
f 97/1/2 95/1/2 98/1/2
f 97/2/2 98/2/2 101/2/2
f 101/2/2 98/2/2 102/2/2
f 99/1/2 100/1/2 103/1/2
f 103/1/2 100/1/2 104/1/2
f 103/2/2 104/2/2 106/2/2
f 106/2/2 104/2/2 107/2/2
f 105/1/2 106/1/2 108/1/2
f 108/1/2 106/1/2 109/1/2
f 110/1/2 111/1/2 112/1/2
f 112/1/2 111/1/2 113/1/2
f 112/2/2 113/2/2 115/2/2
f 115/2/2 113/2/2 116/2/2
f 114/1/2 115/1/2 117/1/2
f 117/1/2 115/1/2 118/1/2
f 119/1/2 120/1/2 122/1/2
f 122/1/2 120/1/2 123/1/2
f 121/1/2 122/1/2 124/1/2
f 124/1/2 122/1/2 125/1/2
f 124/2/2 125/2/2 127/2/2
f 127/2/2 125/2/2 128/2/2
f 126/1/2 127/1/2 129/1/2
f 129/1/2 127/1/2 130/1/2
f 129/2/2 130/2/2 132/2/2
f 132/2/2 130/2/2 133/2/2
f 131/1/2 132/1/2 134/1/2
f 134/1/2 132/1/2 135/1/2
f 136/1/2 137/1/2 138/1/2
f 138/1/2 137/1/2 139/1/2
f 138/2/2 139/2/2 141/2/2
f 141/2/2 139/2/2 142/2/2
f 142/2/2 139/2/2 143/2/2
f 140/1/2 141/1/2 144/1/2
f 141/1/2 142/1/2 144/1/2
f 144/1/2 142/1/2 145/1/2
f 144/2/2 145/2/2 147/2/2
f 147/2/2 145/2/2 148/2/2
f 148/2/2 145/2/2 149/2/2
f 146/1/2 147/1/2 151/1/2
f 147/1/2 148/1/2 151/1/2
f 150/1/2 151/1/2 152/1/2
f 151/1/2 148/1/2 153/1/2
f 152/1/2 151/1/2 153/1/2
f 154/1/2 155/1/2 156/1/2
f 156/1/2 155/1/2 157/1/2
f 158/1/2 159/1/2 160/1/2
f 160/1/2 159/1/2 161/1/2
f 164/1/3 163/1/3 162/1/3
f 165/1/3 163/1/3 164/1/3
f 168/1/3 167/1/3 166/1/3
f 169/1/3 167/1/3 168/1/3
f 172/1/3 171/1/3 170/1/3
f 173/1/3 171/1/3 172/1/3
f 174/1/3 171/1/3 173/1/3
f 175/1/3 171/1/3 174/1/3
f 178/1/3 177/1/3 176/1/3
f 181/1/3 178/1/3 176/1/3
f 181/1/3 179/1/3 178/1/3
f 182/1/3 179/1/3 181/1/3
f 183/2/3 180/2/3 179/2/3
f 186/1/3 179/1/3 182/1/3
f 187/2/3 183/2/3 179/2/3
f 187/1/3 179/1/3 186/1/3
f 188/1/3 184/1/3 183/1/3
f 188/2/3 183/2/3 187/2/3
f 189/2/3 185/2/3 184/2/3
f 190/1/3 184/1/3 188/1/3
f 191/2/3 189/2/3 184/2/3
f 191/1/3 184/1/3 190/1/3
f 192/2/3 189/2/3 191/2/3
f 194/1/3 193/1/3 192/1/3
f 195/1/3 193/1/3 194/1/3
f 199/1/3 197/1/3 196/1/3
f 200/2/3 198/2/3 197/2/3
f 200/1/3 197/1/3 199/1/3
f 201/2/3 198/2/3 200/2/3
f 203/1/3 202/1/3 201/1/3
f 204/1/3 202/1/3 203/1/3
f 207/1/3 206/1/3 205/1/3
f 208/1/3 206/1/3 207/1/3
f 211/1/3 209/1/3 208/1/3
f 212/2/3 210/2/3 209/2/3
f 212/1/3 209/1/3 211/1/3
f 213/2/3 210/2/3 212/2/3
f 217/1/3 215/1/3 214/1/3
f 218/2/3 216/2/3 215/2/3
f 218/1/3 215/1/3 217/1/3
f 219/2/3 216/2/3 218/2/3
f 221/1/3 220/1/3 219/1/3
f 222/1/3 220/1/3 221/1/3
f 225/1/3 224/1/3 223/1/3
f 226/1/3 224/1/3 225/1/3
f 229/1/3 227/1/3 226/1/3
f 230/2/3 228/2/3 227/2/3
f 230/1/3 227/1/3 229/1/3
f 231/2/3 228/2/3 230/2/3
f 234/1/3 232/1/3 231/1/3
f 235/2/3 233/2/3 232/2/3
f 235/1/3 232/1/3 234/1/3
f 236/2/3 233/2/3 235/2/3
f 239/1/3 238/1/3 237/1/3
f 240/1/3 238/1/3 239/1/3
f 243/1/3 241/1/3 240/1/3
f 244/2/3 242/2/3 241/2/3
f 244/1/3 241/1/3 243/1/3
f 245/2/3 242/2/3 244/2/3
f 246/1/4 247/1/4 248/1/4
f 248/1/4 247/1/4 249/1/4
f 250/1/4 251/1/4 252/1/4
f 252/1/4 251/1/4 253/1/4
f 254/1/4 255/1/4 256/1/4
f 256/1/4 255/1/4 257/1/4
f 258/1/4 259/1/4 261/1/4
f 259/2/4 260/2/4 262/2/4
f 261/1/4 259/1/4 262/1/4
f 262/2/4 260/2/4 263/2/4
f 263/1/4 264/1/4 266/1/4
f 264/2/4 265/2/4 267/2/4
f 266/1/4 264/1/4 267/1/4
f 267/2/4 265/2/4 268/2/4
f 268/1/4 269/1/4 270/1/4
f 270/1/4 269/1/4 271/1/4
f 272/1/4 273/1/4 274/1/4
f 274/1/4 273/1/4 275/1/4
f 276/1/4 277/1/4 279/1/4
f 277/2/4 278/2/4 280/2/4
f 279/1/4 277/1/4 280/1/4
f 280/2/4 278/2/4 281/2/4
f 281/1/4 282/1/4 283/1/4
f 283/1/4 282/1/4 284/1/4
f 285/1/4 286/1/4 287/1/4
f 287/1/4 286/1/4 288/1/4
f 288/1/4 289/1/4 291/1/4
f 289/2/4 290/2/4 292/2/4
f 291/1/4 289/1/4 292/1/4
f 292/2/4 290/2/4 293/2/4
f 293/1/4 294/1/4 296/1/4
f 294/2/4 295/2/4 297/2/4
f 296/1/4 294/1/4 297/1/4
f 297/2/4 295/2/4 298/2/4
f 298/1/4 299/1/4 300/1/4
f 300/1/4 299/1/4 301/1/4
f 302/1/4 303/1/4 304/1/4
f 302/1/4 304/1/4 307/1/4
f 304/1/4 305/1/4 307/1/4
f 307/1/4 305/1/4 308/1/4
f 305/2/4 306/2/4 309/2/4
f 308/1/4 305/1/4 309/1/4
f 309/2/4 306/2/4 310/2/4
f 310/1/4 311/1/4 313/1/4
f 311/2/4 312/2/4 314/2/4
f 313/1/4 311/1/4 314/1/4
f 314/2/4 312/2/4 315/2/4
f 316/1/4 317/1/4 319/1/4
f 317/2/4 318/2/4 320/2/4
f 319/1/4 317/1/4 320/1/4
f 320/2/4 318/2/4 321/2/4
f 324/1/5 323/1/5 322/1/5
f 325/1/5 323/1/5 324/1/5
f 326/1/5 323/1/5 325/1/5
f 328/1/5 326/1/5 325/1/5
f 328/1/5 327/1/5 326/1/5
f 329/1/5 327/1/5 328/1/5
f 330/1/5 327/1/5 329/1/5
f 332/1/5 331/1/5 330/1/5
f 332/1/5 330/1/5 329/1/5
f 333/1/5 331/1/5 332/1/5
f 334/1/5 331/1/5 333/1/5
f 336/1/5 335/1/5 334/1/5
f 336/1/5 334/1/5 333/1/5
f 337/1/5 335/1/5 336/1/5
f 340/1/5 339/1/5 338/1/5
f 341/1/5 339/1/5 340/1/5
f 343/1/5 342/1/5 341/1/5
f 344/1/5 342/1/5 343/1/5
f 346/1/5 345/1/5 344/1/5
f 347/1/5 345/1/5 346/1/5
f 349/1/5 348/1/5 347/1/5
f 350/1/5 348/1/5 349/1/5
f 351/1/5 348/1/5 350/1/5
f 354/1/5 353/1/5 352/1/5
f 356/1/5 354/1/5 352/1/5
f 356/1/5 355/1/5 354/1/5
f 357/1/5 355/1/5 356/1/5
f 358/1/5 355/1/5 357/1/5
f 360/1/5 359/1/5 358/1/5
f 360/1/5 358/1/5 357/1/5
f 361/1/5 359/1/5 360/1/5
f 363/1/5 362/1/5 361/1/5
f 364/1/5 362/1/5 363/1/5
f 367/1/5 366/1/5 365/1/5
f 368/1/5 366/1/5 367/1/5
f 370/1/5 369/1/5 368/1/5
f 371/1/5 369/1/5 370/1/5
f 373/1/5 372/1/5 371/1/5
f 374/1/5 372/1/5 373/1/5
f 376/1/5 375/1/5 374/1/5
f 377/1/5 375/1/5 376/1/5
f 381/1/5 379/1/5 378/1/5
f 382/1/5 379/1/5 381/1/5
f 383/1/5 379/1/5 382/1/5
f 385/1/5 381/1/5 380/1/5
f 385/1/5 382/1/5 381/1/5
f 386/1/5 382/1/5 385/1/5
f 387/1/5 382/1/5 386/1/5
f 388/1/5 385/1/5 384/1/5
f 388/1/5 386/1/5 385/1/5
f 389/1/5 386/1/5 388/1/5
f 390/1/5 386/1/5 389/1/5
f 391/1/5 386/1/5 390/1/5
f 392/1/5 386/1/5 391/1/5
f 393/1/5 386/1/5 392/1/5
f 394/1/6 395/1/6 396/1/6
f 396/1/6 395/1/6 397/1/6
f 397/1/6 395/1/6 398/1/6
f 397/1/6 398/1/6 400/1/6
f 398/1/6 399/1/6 400/1/6
f 400/1/6 399/1/6 401/1/6
f 401/1/6 399/1/6 402/1/6
f 402/1/6 399/1/6 403/1/6
f 403/1/6 404/1/6 405/1/6
f 405/1/6 404/1/6 406/1/6
f 407/2/6 408/2/6 409/2/6
f 409/2/6 408/2/6 410/2/6
f 410/2/6 411/2/6 412/2/6
f 410/2/6 412/2/6 414/2/6
f 412/2/6 413/2/6 414/2/6
f 414/2/6 413/2/6 415/2/6
f 415/2/6 416/2/6 417/2/6
f 417/2/6 416/2/6 418/2/6
f 418/2/6 419/2/6 420/2/6
f 420/2/6 419/2/6 421/2/6
f 422/2/6 423/2/6 424/2/6
f 424/2/6 423/2/6 425/2/6
f 425/2/6 426/2/6 427/2/6
f 427/2/6 426/2/6 428/2/6
f 428/2/6 429/2/6 430/2/6
f 430/2/6 429/2/6 431/2/6
f 431/2/6 432/2/6 433/2/6
f 433/2/6 432/2/6 434/2/6
f 435/1/6 436/1/6 438/1/6
f 438/1/6 436/1/6 439/1/6
f 439/1/6 436/1/6 440/1/6
f 437/1/6 438/1/6 442/1/6
f 438/1/6 439/1/6 442/1/6
f 442/1/6 439/1/6 443/1/6
f 443/1/6 439/1/6 444/1/6
f 441/1/6 442/1/6 445/1/6
f 442/1/6 443/1/6 445/1/6
f 445/1/6 443/1/6 446/1/6
f 446/1/6 443/1/6 447/1/6
f 447/1/6 443/1/6 448/1/6
f 448/1/6 443/1/6 449/1/6
f 449/1/6 443/1/6 450/1/6
