# MagicaVoxel @ Ephtracy

# material
mtllib Target_Oak_1.mtl
usemtl palette

# normals
vn -1 0 0
vn 1 0 0
vn 0 0 1
vn 0 0 -1
vn 0 -1 0
vn 0 1 0

# texcoords
vt 0.533203 0.5
vt 0.970703 0.5

# verts
v 1 11 10
v 1 11 8
v 1 12 10
v 1 12 9
v 1 12 8
v 1 12 7
v 1 14 9
v 1 14 7
v 1 15 9
v 1 15 8
v 1 15 7
v 1 15 6
v 1 17 8
v 1 17 6
v 1 18 8
v 1 18 7
v 1 18 6
v 1 18 5
v 1 19 5
v 1 19 1
v 1 20 7
v 1 20 1
v 3 11 8
v 3 11 7
v 3 12 8
v 3 12 7
v 3 12 6
v 3 14 7
v 3 14 6
v 3 15 7
v 3 15 6
v 3 15 5
v 3 17 6
v 3 17 5
v 3 18 6
v 3 18 5
v 3 18 4
v 3 19 5
v 3 19 4
v 4 15 5
v 4 15 4
v 4 17 5
v 4 17 4
v 4 18 5
v 4 18 4
v 4 18 3
v 4 19 4
v 4 19 3
v 5 11 7
v 5 11 6
v 5 12 7
v 5 12 6
v 5 12 5
v 5 14 6
v 5 14 5
v 5 15 6
v 5 15 5
v 5 15 4
v 5 15 3
v 5 17 4
v 5 17 3
v 5 18 4
v 5 18 3
v 5 18 1
v 5 19 3
v 5 19 1
v 6 11 6
v 6 11 5
v 6 12 6
v 6 12 5
v 6 12 3
v 6 14 5
v 6 14 3
v 6 15 5
v 6 15 3
v 6 15 1
v 6 17 3
v 6 17 1
v 6 18 3
v 6 18 1
v 7 11 5
v 7 11 3
v 7 12 5
v 7 12 3
v 7 12 2
v 7 14 3
v 7 14 2
v 7 15 3
v 7 15 2
v 3 12 9
v 3 12 8
v 3 14 9
v 3 14 8
v 3 15 9
v 3 15 8
v 3 15 7
v 3 17 8
v 3 17 7
v 3 18 8
v 3 18 7
v 3 18 6
v 3 20 7
v 3 20 6
v 4 11 10
v 4 11 9
v 4 12 10
v 4 12 9
v 5 12 8
v 5 12 7
v 5 14 8
v 5 14 7
v 5 15 8
v 5 15 7
v 5 15 6
v 5 17 7
v 5 17 6
v 5 18 7
v 5 18 6
v 5 18 5
v 5 20 6
v 5 20 5
v 6 11 9
v 6 11 8
v 6 12 9
v 6 12 8
v 6 15 6
v 6 15 5
v 6 17 6
v 6 17 5
v 6 18 6
v 6 18 5
v 6 18 3
v 6 20 5
v 6 20 3
v 7 11 8
v 7 11 7
v 7 12 8
v 7 12 7
v 7 12 5
v 7 14 7
v 7 14 5
v 7 15 7
v 7 15 5
v 7 15 3
v 7 15 2
v 7 15 1
v 7 17 5
v 7 17 3
v 7 17 2
v 7 17 1
v 7 18 5
v 7 18 3
v 7 18 2
v 7 18 1
v 7 20 3
v 7 20 1
v 8 11 7
v 8 11 3
v 8 12 7
v 8 12 5
v 8 12 3
v 8 12 2
v 8 14 5
v 8 14 2
v 8 15 5
v 8 15 3
v 8 15 2
v 8 17 3
v 8 17 2
v 8 18 3
v 8 18 2
v 1 11 10
v 1 12 10
v 4 11 10
v 4 12 10
v 1 12 9
v 1 14 9
v 1 15 9
v 3 12 9
v 3 14 9
v 3 15 9
v 4 11 9
v 4 12 9
v 6 11 9
v 6 12 9
v 1 15 8
v 1 17 8
v 1 18 8
v 3 12 8
v 3 14 8
v 3 15 8
v 3 17 8
v 3 18 8
v 5 12 8
v 5 14 8
v 5 15 8
v 6 11 8
v 6 12 8
v 7 11 8
v 7 12 8
v 1 18 7
v 1 20 7
v 3 15 7
v 3 17 7
v 3 18 7
v 3 20 7
v 5 12 7
v 5 14 7
v 5 15 7
v 5 17 7
v 5 18 7
v 7 11 7
v 7 12 7
v 7 14 7
v 7 15 7
v 8 11 7
v 8 12 7
v 3 18 6
v 3 20 6
v 5 15 6
v 5 17 6
v 5 18 6
v 5 20 6
v 6 15 6
v 6 17 6
v 6 18 6
v 5 18 5
v 5 20 5
v 6 15 5
v 6 17 5
v 6 18 5
v 6 20 5
v 7 12 5
v 7 14 5
v 7 15 5
v 7 17 5
v 7 18 5
v 8 12 5
v 8 14 5
v 8 15 5
v 6 18 3
v 6 20 3
v 7 15 3
v 7 17 3
v 7 18 3
v 7 20 3
v 8 15 3
v 8 17 3
v 8 18 3
v 1 11 8
v 1 12 8
v 3 11 8
v 3 12 8
v 1 12 7
v 1 14 7
v 1 15 7
v 3 11 7
v 3 12 7
v 3 14 7
v 3 15 7
v 5 11 7
v 5 12 7
v 1 15 6
v 1 17 6
v 1 18 6
v 3 12 6
v 3 14 6
v 3 15 6
v 3 17 6
v 3 18 6
v 5 11 6
v 5 12 6
v 5 14 6
v 5 15 6
v 6 11 6
v 6 12 6
v 1 18 5
v 1 19 5
v 3 15 5
v 3 17 5
v 3 18 5
v 3 19 5
v 4 15 5
v 4 17 5
v 4 18 5
v 5 12 5
v 5 14 5
v 5 15 5
v 6 11 5
v 6 12 5
v 6 14 5
v 6 15 5
v 7 11 5
v 7 12 5
v 3 18 4
v 3 19 4
v 4 15 4
v 4 17 4
v 4 18 4
v 4 19 4
v 5 15 4
v 5 17 4
v 5 18 4
v 4 18 3
v 4 19 3
v 5 15 3
v 5 17 3
v 5 18 3
v 5 19 3
v 6 12 3
v 6 14 3
v 6 15 3
v 6 17 3
v 6 18 3
v 7 11 3
v 7 12 3
v 7 14 3
v 7 15 3
v 8 11 3
v 8 12 3
v 7 12 2
v 7 14 2
v 7 15 2
v 7 17 2
v 7 18 2
v 8 12 2
v 8 14 2
v 8 15 2
v 8 17 2
v 8 18 2
v 1 19 1
v 1 20 1
v 5 18 1
v 5 19 1
v 6 15 1
v 6 17 1
v 6 18 1
v 7 15 1
v 7 17 1
v 7 18 1
v 7 20 1
v 1 11 10
v 4 11 10
v 4 11 9
v 6 11 9
v 1 11 8
v 3 11 8
v 6 11 8
v 7 11 8
v 3 11 7
v 5 11 7
v 7 11 7
v 8 11 7
v 5 11 6
v 6 11 6
v 6 11 5
v 7 11 5
v 7 11 3
v 8 11 3
v 1 12 8
v 3 12 8
v 1 12 7
v 3 12 7
v 5 12 7
v 3 12 6
v 5 12 6
v 6 12 6
v 5 12 5
v 6 12 5
v 7 12 5
v 6 12 3
v 7 12 3
v 8 12 3
v 7 12 2
v 8 12 2
v 1 15 7
v 3 15 7
v 1 15 6
v 3 15 6
v 5 15 6
v 3 15 5
v 4 15 5
v 5 15 5
v 6 15 5
v 4 15 4
v 5 15 4
v 5 15 3
v 6 15 3
v 7 15 3
v 7 15 2
v 6 15 1
v 7 15 1
v 1 18 6
v 3 18 6
v 1 18 5
v 3 18 5
v 4 18 5
v 3 18 4
v 4 18 4
v 5 18 4
v 4 18 3
v 5 18 3
v 6 18 3
v 5 18 1
v 6 18 1
v 1 19 5
v 3 19 5
v 3 19 4
v 4 19 4
v 4 19 3
v 5 19 3
v 1 19 1
v 5 19 1
v 1 12 10
v 4 12 10
v 1 12 9
v 3 12 9
v 4 12 9
v 6 12 9
v 3 12 8
v 5 12 8
v 6 12 8
v 7 12 8
v 5 12 7
v 7 12 7
v 8 12 7
v 7 12 5
v 8 12 5
v 1 15 9
v 3 15 9
v 1 15 8
v 3 15 8
v 5 15 8
v 3 15 7
v 5 15 7
v 7 15 7
v 5 15 6
v 6 15 6
v 6 15 5
v 7 15 5
v 8 15 5
v 7 15 3
v 8 15 3
v 1 18 8
v 3 18 8
v 1 18 7
v 3 18 7
v 5 18 7
v 3 18 6
v 5 18 6
v 6 18 6
v 5 18 5
v 6 18 5
v 7 18 5
v 6 18 3
v 7 18 3
v 8 18 3
v 7 18 2
v 8 18 2
v 1 20 7
v 3 20 7
v 3 20 6
v 5 20 6
v 5 20 5
v 6 20 5
v 6 20 3
v 7 20 3
v 1 20 1
v 7 20 1

# faces
f 3/1/1 2/1/1 1/1/1
f 4/1/1 2/1/1 3/1/1
f 5/1/1 2/1/1 4/1/1
f 7/1/1 6/1/1 5/1/1
f 7/1/1 5/1/1 4/1/1
f 8/1/1 6/1/1 7/1/1
f 9/2/1 8/2/1 7/2/1
f 10/2/1 8/2/1 9/2/1
f 11/2/1 8/2/1 10/2/1
f 13/1/1 11/1/1 10/1/1
f 13/1/1 12/1/1 11/1/1
f 14/1/1 12/1/1 13/1/1
f 15/2/1 14/2/1 13/2/1
f 16/2/1 14/2/1 15/2/1
f 17/2/1 14/2/1 16/2/1
f 19/1/1 17/1/1 16/1/1
f 19/1/1 18/1/1 17/1/1
f 21/1/1 19/1/1 16/1/1
f 21/1/1 20/1/1 19/1/1
f 22/1/1 20/1/1 21/1/1
f 25/1/1 24/1/1 23/1/1
f 26/1/1 24/1/1 25/1/1
f 28/1/1 27/1/1 26/1/1
f 29/1/1 27/1/1 28/1/1
f 30/2/1 29/2/1 28/2/1
f 31/2/1 29/2/1 30/2/1
f 33/1/1 32/1/1 31/1/1
f 34/1/1 32/1/1 33/1/1
f 35/2/1 34/2/1 33/2/1
f 36/2/1 34/2/1 35/2/1
f 38/1/1 37/1/1 36/1/1
f 39/1/1 37/1/1 38/1/1
f 42/1/1 41/1/1 40/1/1
f 43/1/1 41/1/1 42/1/1
f 44/2/1 43/2/1 42/2/1
f 45/2/1 43/2/1 44/2/1
f 47/1/1 46/1/1 45/1/1
f 48/1/1 46/1/1 47/1/1
f 51/1/1 50/1/1 49/1/1
f 52/1/1 50/1/1 51/1/1
f 54/1/1 53/1/1 52/1/1
f 55/1/1 53/1/1 54/1/1
f 56/2/1 55/2/1 54/2/1
f 57/2/1 55/2/1 56/2/1
f 60/1/1 59/1/1 58/1/1
f 61/1/1 59/1/1 60/1/1
f 62/2/1 61/2/1 60/2/1
f 63/2/1 61/2/1 62/2/1
f 65/1/1 64/1/1 63/1/1
f 66/1/1 64/1/1 65/1/1
f 69/1/1 68/1/1 67/1/1
f 70/1/1 68/1/1 69/1/1
f 72/1/1 71/1/1 70/1/1
f 73/1/1 71/1/1 72/1/1
f 74/2/1 73/2/1 72/2/1
f 75/2/1 73/2/1 74/2/1
f 77/1/1 76/1/1 75/1/1
f 78/1/1 76/1/1 77/1/1
f 79/2/1 78/2/1 77/2/1
f 80/2/1 78/2/1 79/2/1
f 83/1/1 82/1/1 81/1/1
f 84/1/1 82/1/1 83/1/1
f 86/1/1 85/1/1 84/1/1
f 87/1/1 85/1/1 86/1/1
f 88/2/1 87/2/1 86/2/1
f 89/2/1 87/2/1 88/2/1
f 90/1/2 91/1/2 92/1/2
f 92/1/2 91/1/2 93/1/2
f 92/2/2 93/2/2 94/2/2
f 94/2/2 93/2/2 95/2/2
f 95/1/2 96/1/2 97/1/2
f 97/1/2 96/1/2 98/1/2
f 97/2/2 98/2/2 99/2/2
f 99/2/2 98/2/2 100/2/2
f 100/1/2 101/1/2 102/1/2
f 102/1/2 101/1/2 103/1/2
f 104/1/2 105/1/2 106/1/2
f 106/1/2 105/1/2 107/1/2
f 108/1/2 109/1/2 110/1/2
f 110/1/2 109/1/2 111/1/2
f 110/2/2 111/2/2 112/2/2
f 112/2/2 111/2/2 113/2/2
f 113/1/2 114/1/2 115/1/2
f 115/1/2 114/1/2 116/1/2
f 115/2/2 116/2/2 117/2/2
f 117/2/2 116/2/2 118/2/2
f 118/1/2 119/1/2 120/1/2
f 120/1/2 119/1/2 121/1/2
f 122/1/2 123/1/2 124/1/2
f 124/1/2 123/1/2 125/1/2
f 126/1/2 127/1/2 128/1/2
f 128/1/2 127/1/2 129/1/2
f 128/2/2 129/2/2 130/2/2
f 130/2/2 129/2/2 131/2/2
f 131/1/2 132/1/2 133/1/2
f 133/1/2 132/1/2 134/1/2
f 135/1/2 136/1/2 137/1/2
f 137/1/2 136/1/2 138/1/2
f 138/1/2 139/1/2 140/1/2
f 140/1/2 139/1/2 141/1/2
f 140/2/2 141/2/2 142/2/2
f 142/2/2 141/2/2 143/2/2
f 143/1/2 144/1/2 147/1/2
f 147/1/2 144/1/2 148/1/2
f 145/1/2 146/1/2 149/1/2
f 149/1/2 146/1/2 150/1/2
f 147/2/2 148/2/2 151/2/2
f 151/2/2 148/2/2 152/2/2
f 149/2/2 150/2/2 153/2/2
f 153/2/2 150/2/2 154/2/2
f 152/1/2 153/1/2 155/1/2
f 153/1/2 154/1/2 155/1/2
f 155/1/2 154/1/2 156/1/2
f 157/1/2 158/1/2 159/1/2
f 159/1/2 158/1/2 160/1/2
f 160/1/2 158/1/2 161/1/2
f 161/1/2 162/1/2 163/1/2
f 160/1/2 161/1/2 163/1/2
f 163/1/2 162/1/2 164/1/2
f 163/2/2 164/2/2 165/2/2
f 165/2/2 164/2/2 166/2/2
f 166/2/2 164/2/2 167/2/2
f 166/1/2 167/1/2 168/1/2
f 168/1/2 167/1/2 169/1/2
f 168/2/2 169/2/2 170/2/2
f 170/2/2 169/2/2 171/2/2
f 174/1/3 173/1/3 172/1/3
f 175/1/3 173/1/3 174/1/3
f 179/1/3 177/1/3 176/1/3
f 180/2/3 178/2/3 177/2/3
f 180/1/3 177/1/3 179/1/3
f 181/2/3 178/2/3 180/2/3
f 184/1/3 183/1/3 182/1/3
f 185/1/3 183/1/3 184/1/3
f 191/1/3 187/1/3 186/1/3
f 192/2/3 188/2/3 187/2/3
f 192/1/3 187/1/3 191/1/3
f 193/2/3 188/2/3 192/2/3
f 194/1/3 190/1/3 189/1/3
f 195/2/3 191/2/3 190/2/3
f 195/1/3 190/1/3 194/1/3
f 196/2/3 191/2/3 195/2/3
f 199/1/3 198/1/3 197/1/3
f 200/1/3 198/1/3 199/1/3
f 205/1/3 202/1/3 201/1/3
f 206/1/3 202/1/3 205/1/3
f 209/1/3 204/1/3 203/1/3
f 210/2/3 205/2/3 204/2/3
f 210/1/3 204/1/3 209/1/3
f 211/2/3 205/2/3 210/2/3
f 213/1/3 208/1/3 207/1/3
f 214/2/3 209/2/3 208/2/3
f 214/1/3 208/1/3 213/1/3
f 215/2/3 209/2/3 214/2/3
f 216/1/3 213/1/3 212/1/3
f 217/1/3 213/1/3 216/1/3
f 222/1/3 219/1/3 218/1/3
f 223/1/3 219/1/3 222/1/3
f 224/1/3 221/1/3 220/1/3
f 225/2/3 222/2/3 221/2/3
f 225/1/3 221/1/3 224/1/3
f 226/2/3 222/2/3 225/2/3
f 231/1/3 228/1/3 227/1/3
f 232/1/3 228/1/3 231/1/3
f 235/1/3 230/1/3 229/1/3
f 236/2/3 231/2/3 230/2/3
f 236/1/3 230/1/3 235/1/3
f 237/2/3 231/2/3 236/2/3
f 238/1/3 234/1/3 233/1/3
f 239/2/3 235/2/3 234/2/3
f 239/1/3 234/1/3 238/1/3
f 240/2/3 235/2/3 239/2/3
f 245/1/3 242/1/3 241/1/3
f 246/1/3 242/1/3 245/1/3
f 247/1/3 244/1/3 243/1/3
f 248/2/3 245/2/3 244/2/3
f 248/1/3 244/1/3 247/1/3
f 249/2/3 245/2/3 248/2/3
f 250/1/4 251/1/4 252/1/4
f 252/1/4 251/1/4 253/1/4
f 254/1/4 255/1/4 258/1/4
f 255/2/4 256/2/4 259/2/4
f 258/1/4 255/1/4 259/1/4
f 259/2/4 256/2/4 260/2/4
f 257/1/4 258/1/4 261/1/4
f 261/1/4 258/1/4 262/1/4
f 263/1/4 264/1/4 268/1/4
f 264/2/4 265/2/4 269/2/4
f 268/1/4 264/1/4 269/1/4
f 269/2/4 265/2/4 270/2/4
f 266/1/4 267/1/4 272/1/4
f 267/2/4 268/2/4 273/2/4
f 272/1/4 267/1/4 273/1/4
f 273/2/4 268/2/4 274/2/4
f 271/1/4 272/1/4 275/1/4
f 275/1/4 272/1/4 276/1/4
f 277/1/4 278/1/4 281/1/4
f 281/1/4 278/1/4 282/1/4
f 279/1/4 280/1/4 283/1/4
f 280/2/4 281/2/4 284/2/4
f 283/1/4 280/1/4 284/1/4
f 284/2/4 281/2/4 285/2/4
f 286/1/4 287/1/4 290/1/4
f 287/2/4 288/2/4 291/2/4
f 290/1/4 287/1/4 291/1/4
f 291/2/4 288/2/4 292/2/4
f 289/1/4 290/1/4 293/1/4
f 293/1/4 290/1/4 294/1/4
f 295/1/4 296/1/4 299/1/4
f 299/1/4 296/1/4 300/1/4
f 297/1/4 298/1/4 301/1/4
f 298/2/4 299/2/4 302/2/4
f 301/1/4 298/1/4 302/1/4
f 302/2/4 299/2/4 303/2/4
f 304/1/4 305/1/4 308/1/4
f 308/1/4 305/1/4 309/1/4
f 306/1/4 307/1/4 312/1/4
f 307/2/4 308/2/4 313/2/4
f 312/1/4 307/1/4 313/1/4
f 313/2/4 308/2/4 314/2/4
f 310/1/4 311/1/4 316/1/4
f 311/2/4 312/2/4 317/2/4
f 316/1/4 311/1/4 317/1/4
f 317/2/4 312/2/4 318/2/4
f 315/1/4 316/1/4 319/1/4
f 319/1/4 316/1/4 320/1/4
f 321/1/4 322/1/4 326/1/4
f 322/2/4 323/2/4 327/2/4
f 326/1/4 322/1/4 327/1/4
f 323/1/4 324/1/4 328/1/4
f 327/2/4 323/2/4 328/2/4
f 324/2/4 325/2/4 329/2/4
f 328/1/4 324/1/4 329/1/4
f 329/2/4 325/2/4 330/2/4
f 331/1/4 332/1/4 334/1/4
f 333/1/4 334/1/4 337/1/4
f 335/1/4 336/1/4 338/1/4
f 336/2/4 337/2/4 339/2/4
f 338/1/4 336/1/4 339/1/4
f 337/1/4 334/1/4 340/1/4
f 339/2/4 337/2/4 340/2/4
f 334/1/4 332/1/4 341/1/4
f 340/1/4 334/1/4 341/1/4
f 344/1/5 343/1/5 342/1/5
f 346/1/5 344/1/5 342/1/5
f 346/1/5 345/1/5 344/1/5
f 347/1/5 345/1/5 346/1/5
f 348/1/5 345/1/5 347/1/5
f 350/1/5 349/1/5 348/1/5
f 350/1/5 348/1/5 347/1/5
f 351/1/5 349/1/5 350/1/5
f 352/1/5 349/1/5 351/1/5
f 354/1/5 353/1/5 352/1/5
f 354/1/5 352/1/5 351/1/5
f 355/1/5 353/1/5 354/1/5
f 356/1/5 353/1/5 355/1/5
f 357/1/5 353/1/5 356/1/5
f 358/1/5 353/1/5 357/1/5
f 359/1/5 353/1/5 358/1/5
f 362/1/5 361/1/5 360/1/5
f 363/1/5 361/1/5 362/1/5
f 365/1/5 364/1/5 363/1/5
f 366/1/5 364/1/5 365/1/5
f 368/1/5 367/1/5 366/1/5
f 369/1/5 367/1/5 368/1/5
f 371/1/5 370/1/5 369/1/5
f 372/1/5 370/1/5 371/1/5
f 374/1/5 373/1/5 372/1/5
f 375/1/5 373/1/5 374/1/5
f 378/1/5 377/1/5 376/1/5
f 379/1/5 377/1/5 378/1/5
f 381/1/5 380/1/5 379/1/5
f 382/1/5 380/1/5 381/1/5
f 383/1/5 380/1/5 382/1/5
f 385/1/5 384/1/5 383/1/5
f 385/1/5 383/1/5 382/1/5
f 386/1/5 384/1/5 385/1/5
f 387/1/5 384/1/5 386/1/5
f 388/1/5 384/1/5 387/1/5
f 390/1/5 389/1/5 388/1/5
f 391/1/5 390/1/5 388/1/5
f 392/1/5 390/1/5 391/1/5
f 395/1/5 394/1/5 393/1/5
f 396/1/5 394/1/5 395/1/5
f 398/1/5 397/1/5 396/1/5
f 399/1/5 397/1/5 398/1/5
f 401/1/5 400/1/5 399/1/5
f 402/1/5 400/1/5 401/1/5
f 404/1/5 403/1/5 402/1/5
f 405/1/5 403/1/5 404/1/5
f 408/1/5 407/1/5 406/1/5
f 410/1/5 409/1/5 408/1/5
f 412/1/5 408/1/5 406/1/5
f 412/1/5 411/1/5 410/1/5
f 412/1/5 410/1/5 408/1/5
f 413/1/5 411/1/5 412/1/5
f 414/1/6 415/1/6 416/1/6
f 416/1/6 415/1/6 417/1/6
f 417/1/6 415/1/6 418/1/6
f 418/1/6 419/1/6 420/1/6
f 417/1/6 418/1/6 420/1/6
f 420/1/6 419/1/6 421/1/6
f 421/1/6 419/1/6 422/1/6
f 422/1/6 423/1/6 424/1/6
f 421/1/6 422/1/6 424/1/6
f 424/1/6 423/1/6 425/1/6
f 425/1/6 426/1/6 427/1/6
f 427/1/6 426/1/6 428/1/6
f 429/2/6 430/2/6 431/2/6
f 431/2/6 430/2/6 432/2/6
f 432/2/6 433/2/6 434/2/6
f 434/2/6 433/2/6 435/2/6
f 435/2/6 436/2/6 437/2/6
f 437/2/6 436/2/6 438/2/6
f 438/2/6 436/2/6 439/2/6
f 439/2/6 436/2/6 440/2/6
f 440/2/6 441/2/6 442/2/6
f 442/2/6 441/2/6 443/2/6
f 444/2/6 445/2/6 446/2/6
f 446/2/6 445/2/6 447/2/6
f 447/2/6 448/2/6 449/2/6
f 449/2/6 448/2/6 450/2/6
f 450/2/6 451/2/6 452/2/6
f 452/2/6 451/2/6 453/2/6
f 453/2/6 454/2/6 455/2/6
f 455/2/6 454/2/6 456/2/6
f 456/2/6 457/2/6 458/2/6
f 458/2/6 457/2/6 459/2/6
f 460/1/6 461/1/6 462/1/6
f 462/1/6 463/1/6 464/1/6
f 464/1/6 465/1/6 466/1/6
f 460/1/6 462/1/6 468/1/6
f 466/1/6 467/1/6 468/1/6
f 464/1/6 466/1/6 468/1/6
f 462/1/6 464/1/6 468/1/6
f 468/1/6 467/1/6 469/1/6
